{"glyphs":{"0":{"ha":1189,"x_min":56,"x_max":1133,"o":"m 604 -18 l 583 -18 q 212 143 368 -18 q 56 522 56 304 q 214 898 56 739 q 594 1057 372 1057 q 975 899 817 1057 q 1133 518 1133 740 q 1063 254 1133 378 q 869 56 992 131 q 604 -18 746 -18 m 1088 519 q 1088 621 1088 519 q 942 870 1088 724 q 594 1017 797 1017 q 246 870 390 1017 q 101 519 101 724 q 246 168 101 314 q 594 22 390 22 q 942 168 797 22 q 1088 519 1088 314 z "},"1":{"ha":335,"x_min":21,"x_max":231,"o":"m 185 0 l 185 999 l 21 999 l 21 1039 l 231 1039 l 231 0 l 185 0 z "},"2":{"ha":885,"x_min":42,"x_max":818,"o":"m 772 667 q 681 911 772 807 q 438 1015 589 1015 q 185 906 286 1015 q 85 642 85 797 l 42 642 q 156 936 42 818 q 440 1054 269 1054 q 714 939 610 1054 q 818 665 818 824 q 572 282 818 436 l 194 46 l 814 46 l 814 0 l 50 0 l 535 307 q 772 667 772 457 z "},"3":{"ha":818,"x_min":42,"x_max":756,"o":"m 756 336 q 651 88 756 190 q 399 -14 546 -14 q 147 85 251 -14 q 42 321 42 183 l 42 350 l 85 350 l 85 328 q 176 113 85 201 q 396 25 267 25 q 617 113 525 25 q 710 329 710 201 q 663 499 710 417 q 542 613 617 581 l 515 624 l 540 643 q 597 716 576 671 q 617 808 617 761 q 553 956 617 893 q 402 1018 490 1018 q 248 953 314 1018 q 179 799 182 889 l 135 799 q 215 981 138 906 q 401 1057 292 1057 q 585 986 510 1057 q 661 813 661 915 q 588 631 661 711 q 710 506 664 585 q 756 336 756 428 z "},"4":{"ha":681,"x_min":24,"x_max":660,"o":"m 493 0 l 493 126 l 24 126 l 539 1056 l 539 172 l 660 172 l 660 126 l 539 126 l 539 0 l 493 0 m 493 172 l 493 896 l 92 172 l 493 172 z "},"5":{"ha":901,"x_min":63,"x_max":839,"o":"m 724 1042 l 724 1001 l 194 1001 l 157 644 q 282 740 206 707 q 443 774 358 774 q 724 658 608 774 q 839 378 839 542 q 723 101 839 215 q 443 -14 607 -14 q 202 69 311 -14 q 63 281 93 153 l 106 281 q 233 97 139 169 q 443 25 328 25 q 692 128 589 25 q 794 378 794 232 q 692 630 794 525 q 443 735 589 735 q 281 692 357 735 q 154 578 204 650 l 106 578 l 154 1042 l 724 1042 z "},"6":{"ha":876,"x_min":46,"x_max":835,"o":"m 450 771 q 719 653 603 771 q 835 374 835 535 q 718 98 835 213 q 438 -17 601 -17 q 160 97 275 -17 q 46 372 46 211 q 186 693 46 532 l 490 1042 l 543 1042 l 268 726 q 346 758 292 744 q 450 771 400 771 m 89 374 q 89 302 89 374 q 192 126 89 229 q 438 22 294 22 q 683 126 582 22 q 785 375 785 229 q 683 626 785 521 q 439 732 581 732 q 193 626 297 732 q 89 374 89 519 z "},"7":{"ha":743,"x_min":28,"x_max":715,"o":"m 28 1039 l 715 1039 l 179 0 l 128 0 l 643 999 l 28 999 l 28 1039 z "},"8":{"ha":790,"x_min":42,"x_max":749,"o":"m 604 846 q 574 740 604 789 q 490 664 543 692 q 676 540 603 636 q 749 331 749 444 q 645 83 749 186 q 396 -19 542 -19 q 146 84 250 -19 q 42 331 42 188 q 112 535 42 442 q 292 661 182 628 q 207 738 240 686 q 174 846 174 789 q 236 994 174 933 q 388 1056 299 1056 q 541 994 478 1056 q 604 846 604 933 m 388 1017 q 354 1017 388 1017 q 269 966 319 1017 q 218 847 218 915 q 269 728 218 779 q 388 678 319 678 q 508 728 457 678 q 560 847 560 779 q 508 966 560 915 q 388 1017 457 1017 m 88 328 q 88 266 88 328 q 178 112 88 203 q 396 21 269 21 q 613 112 522 21 q 703 329 703 203 q 613 547 703 456 q 397 639 522 639 q 179 547 271 639 q 88 328 88 454 z "},"9":{"ha":876,"x_min":39,"x_max":828,"o":"m 424 271 q 154 388 269 271 q 39 667 39 506 q 156 944 39 829 q 435 1058 272 1058 q 713 944 599 1058 q 828 669 828 829 q 688 349 828 510 l 383 0 l 331 0 l 606 315 q 528 284 582 297 q 424 271 474 271 m 785 667 q 785 740 785 667 q 682 916 785 813 q 435 1019 579 1019 q 190 916 292 1019 q 89 667 89 813 q 191 415 89 521 q 435 310 293 310 q 681 416 576 310 q 785 667 785 522 z "},"\u0000":{"ha":28,"x_min":0,"x_max":0,"o":""},"\r":{"ha":653,"x_min":0,"x_max":0,"o":""}," ":{"ha":486,"x_min":0,"x_max":0,"o":""},"!":{"ha":314,"x_min":111,"x_max":203,"o":"m 136 1042 l 182 1042 l 182 139 l 136 139 l 136 1042 m 157 -10 q 134 -10 157 -10 q 111 33 111 -10 q 157 76 111 76 q 203 33 203 76 q 157 -10 203 -10 z "},"\"":{"ha":382,"x_min":97,"x_max":285,"o":"m 97 876 l 97 1125 l 143 1125 l 143 876 l 97 876 m 239 876 l 239 1125 l 285 1125 l 285 876 l 239 876 z "},"#":{"ha":933,"x_min":21,"x_max":913,"o":"m 21 689 l 375 689 l 529 1039 l 575 1039 l 421 689 l 678 689 l 832 1039 l 878 1039 l 724 689 l 913 689 l 913 646 l 704 646 l 610 433 l 913 433 l 913 390 l 592 390 l 419 0 l 375 0 l 547 390 l 289 390 l 117 0 l 74 0 l 244 390 l 21 390 l 21 433 l 264 433 l 357 646 l 21 646 l 21 689 m 403 646 l 308 433 l 565 433 l 660 646 l 403 646 z "},"$":{"ha":704,"x_min":49,"x_max":656,"o":"m 325 586 q 161 686 221 632 q 101 833 101 740 q 169 985 101 926 q 325 1054 238 1044 l 325 1132 l 368 1132 l 368 1054 q 554 961 483 1046 l 554 894 q 477 972 531 939 q 368 1014 424 1006 l 368 617 q 453 578 422 593 q 528 535 483 564 q 596 478 572 506 q 656 307 656 406 q 572 91 656 182 q 368 -17 489 0 l 368 -101 l 325 -101 l 325 -19 q 165 22 239 -17 q 49 124 90 61 l 49 196 q 161 73 85 122 q 325 21 238 24 l 325 586 m 533 475 q 368 569 471 525 l 368 24 q 542 119 471 40 q 613 304 613 197 q 533 475 613 411 m 325 1014 q 201 951 254 1001 q 147 829 147 900 q 193 716 147 758 q 325 633 239 674 l 325 1014 z "},"%":{"ha":961,"x_min":28,"x_max":933,"o":"m 710 -15 l 696 -15 q 542 53 607 -15 q 476 213 476 121 q 543 371 476 304 q 705 438 610 438 q 867 371 800 438 q 933 213 933 304 q 867 53 933 121 q 710 -15 801 -15 m 889 210 q 889 248 889 210 q 834 341 889 285 q 706 397 779 397 q 576 341 632 397 q 521 210 521 285 q 576 81 521 136 q 706 25 632 25 q 834 81 779 25 q 889 210 889 136 m 261 604 l 247 604 q 92 672 157 604 q 28 832 28 740 q 94 990 28 924 q 255 1057 160 1057 q 416 990 350 1057 q 482 832 482 924 q 417 672 482 740 q 261 604 351 604 m 384 960 q 357 989 384 960 q 256 1017 331 1017 q 125 960 181 1017 q 69 830 69 904 q 125 700 69 756 q 256 644 181 644 q 384 699 331 644 q 438 829 438 754 q 384 960 438 904 m 822 1042 l 876 1042 l 100 0 l 49 0 l 822 1042 z "},"&":{"ha":967,"x_min":49,"x_max":946,"o":"m 49 331 q 117 535 49 442 q 296 661 186 628 q 211 738 244 686 q 178 846 178 789 q 240 994 178 933 q 397 1056 303 1056 q 556 983 492 1056 l 556 910 q 490 986 536 956 q 384 1017 444 1017 q 273 966 324 1017 q 222 847 222 915 q 273 728 222 779 q 393 678 324 678 l 413 678 l 413 639 l 401 639 q 184 547 276 639 q 92 328 92 454 q 183 112 92 203 q 401 21 275 21 q 619 111 528 21 q 711 329 711 201 l 711 639 l 518 639 l 518 678 l 946 678 l 946 639 l 753 639 l 753 0 l 711 0 l 711 178 q 592 38 681 94 q 401 -19 504 -19 q 152 84 256 -19 q 49 331 49 188 z "},"'":{"ha":254,"x_min":104,"x_max":150,"o":"m 104 878 l 104 1125 l 150 1125 l 150 878 l 104 878 z "},"(":{"ha":463,"x_min":118,"x_max":428,"o":"m 428 -121 q 201 165 285 0 q 118 510 118 331 q 201 854 118 690 q 428 1136 283 1018 l 428 1086 q 164 507 164 844 q 233 193 164 340 q 428 -67 303 46 l 428 -121 z "},")":{"ha":464,"x_min":35,"x_max":346,"o":"m 40 1126 q 265 851 185 1011 q 346 509 346 690 q 263 164 346 328 q 35 -119 179 0 l 35 -67 q 231 192 161 44 q 300 507 300 340 q 231 822 300 674 q 35 1082 161 971 l 35 1124 l 40 1126 z "},"*":{"ha":435,"x_min":49,"x_max":386,"o":"m 203 1035 l 238 1035 l 238 908 l 333 1007 l 363 979 l 265 882 l 386 882 l 386 846 l 265 846 l 361 753 l 331 724 l 238 819 l 238 696 l 203 696 l 203 821 l 107 724 l 78 753 l 174 846 l 49 846 l 49 882 l 175 882 l 76 979 l 104 1007 l 203 908 l 203 1035 z "},"+":{"ha":474,"x_min":21,"x_max":453,"o":"m 215 538 l 21 538 l 21 581 l 215 581 l 215 774 l 261 774 l 261 581 l 453 581 l 453 538 l 261 538 l 261 351 l 215 351 l 215 538 z "},",":{"ha":193,"x_min":49,"x_max":144,"o":"m 92 -87 l 92 -10 q 49 33 49 -10 q 97 76 49 76 q 144 33 144 76 q 140 11 144 24 l 97 -87 l 92 -87 z "},"-":{"ha":543,"x_min":56,"x_max":488,"o":"m 488 538 l 56 538 l 56 581 l 488 581 l 488 538 z "},".":{"ha":193,"x_min":49,"x_max":144,"o":"m 97 -10 q 73 -10 97 -10 q 49 33 49 -10 q 97 76 49 76 q 144 33 144 76 q 97 -10 144 -10 z "},"/":{"ha":897,"x_min":35,"x_max":863,"o":"m 808 1039 l 863 1039 l 86 0 l 35 0 l 808 1039 z "},":":{"ha":329,"x_min":118,"x_max":211,"o":"m 165 -10 q 141 -10 165 -10 q 118 33 118 -10 q 165 76 118 76 q 211 33 211 76 q 165 -10 211 -10 m 165 363 q 141 363 165 363 q 118 406 118 363 q 165 449 118 449 q 211 406 211 449 q 165 363 211 363 z "},";":{"ha":332,"x_min":118,"x_max":214,"o":"m 166 363 q 142 363 166 363 q 118 406 118 363 q 166 449 118 449 q 214 406 214 449 q 166 363 214 363 m 161 -87 l 161 -10 q 118 33 118 -10 q 166 76 118 76 q 214 33 214 76 q 210 11 214 24 l 167 -87 l 161 -87 z "},"<":{"ha":567,"x_min":104,"x_max":539,"o":"m 104 617 l 539 869 l 539 817 l 163 596 l 539 374 l 539 318 l 104 575 l 104 617 z "},"=":{"ha":571,"x_min":69,"x_max":501,"o":"m 501 640 l 69 640 l 69 683 l 501 683 l 501 640 m 501 463 l 69 463 l 69 503 l 501 503 l 501 463 z "},">":{"ha":567,"x_min":104,"x_max":539,"o":"m 104 869 l 539 615 l 539 575 l 104 318 l 104 374 l 481 596 l 104 817 l 104 869 z "},"?":{"ha":897,"x_min":63,"x_max":779,"o":"m 63 710 q 168 961 71 864 q 420 1058 265 1058 q 677 957 575 1058 q 779 722 779 856 q 681 465 779 588 q 447 363 585 371 l 447 133 l 403 133 l 403 403 l 422 403 q 648 494 561 403 q 735 715 735 586 q 644 931 735 843 q 418 1018 553 1018 q 199 934 283 1018 q 110 710 115 850 l 63 710 m 428 -10 q 405 -10 428 -10 q 381 33 381 -10 q 428 76 381 76 q 476 33 476 76 q 428 -10 476 -10 z "},"@":{"ha":1222,"x_min":69,"x_max":1153,"o":"m 621 -18 l 600 -18 q 227 144 385 -18 q 69 524 69 307 q 229 901 69 742 q 613 1060 389 1060 q 994 901 836 1060 q 1153 524 1153 743 q 996 144 1153 306 q 621 -18 839 -18 m 1107 522 q 1107 624 1107 522 q 962 873 1107 726 q 612 1019 817 1019 q 261 873 407 1019 q 115 522 115 726 q 261 169 115 317 q 611 22 407 22 q 961 169 815 22 q 1107 522 1107 317 m 939 833 l 939 208 l 894 208 l 894 354 q 774 236 850 279 q 611 193 697 193 q 378 290 475 193 q 281 521 281 386 q 378 752 281 656 q 611 849 475 849 q 774 806 697 849 q 894 688 850 763 l 894 833 l 939 833 m 325 519 q 325 461 325 519 q 410 317 325 403 q 613 232 496 232 q 814 317 731 232 q 897 520 897 403 q 813 724 897 638 q 613 810 729 810 q 410 723 496 810 q 325 519 325 636 z "},"A":{"ha":1124,"x_min":42,"x_max":1082,"o":"m 561 1067 l 1082 0 l 1033 0 l 836 397 l 279 397 l 85 0 l 42 0 l 561 1067 m 557 971 l 297 438 l 819 438 l 557 971 z "},"B":{"ha":538,"x_min":104,"x_max":496,"o":"m 104 1042 l 149 1042 q 300 985 239 1042 q 361 842 361 929 q 327 734 361 789 q 247 663 293 679 q 425 549 354 636 q 496 328 496 461 q 394 98 496 196 q 149 0 293 0 l 104 0 l 104 1042 m 149 638 l 149 39 l 160 39 q 366 128 279 39 q 453 339 453 217 q 367 549 453 461 q 160 638 281 638 l 149 638 m 149 1003 l 149 675 l 160 675 q 270 726 222 675 q 318 842 318 776 q 271 956 318 908 q 160 1003 224 1003 l 149 1003 z "},"C":{"ha":969,"x_min":63,"x_max":886,"o":"m 611 -15 l 596 -15 q 329 60 453 -15 q 134 259 206 135 q 63 524 63 383 q 222 903 63 744 q 604 1063 382 1063 q 886 985 753 1063 l 886 933 q 604 1022 756 1022 q 254 876 400 1022 q 108 524 108 729 q 254 172 108 319 q 604 25 400 25 q 886 114 756 25 l 886 63 q 611 -15 760 -15 z "},"D":{"ha":731,"x_min":104,"x_max":668,"o":"m 104 1042 l 149 1042 q 525 888 382 1042 q 668 520 668 735 q 526 153 668 306 q 149 0 383 0 l 104 0 l 104 1042 m 160 1000 l 149 1000 l 149 43 l 160 43 q 492 183 363 43 q 622 520 622 324 q 492 858 622 717 q 160 1000 363 1000 z "},"E":{"ha":513,"x_min":104,"x_max":478,"o":"m 104 1042 l 478 1042 l 478 1001 l 150 1001 l 150 435 l 424 435 l 424 394 l 150 394 l 150 40 l 478 40 l 478 0 l 104 0 l 104 1042 z "},"F":{"ha":510,"x_min":104,"x_max":475,"o":"m 104 1042 l 475 1042 l 475 1001 l 150 1001 l 150 438 l 421 438 l 421 397 l 150 397 l 150 0 l 104 0 l 104 1042 z "},"G":{"ha":963,"x_min":63,"x_max":886,"o":"m 496 397 l 496 438 l 886 438 l 886 61 q 611 -15 764 -15 l 596 -15 q 329 60 453 -15 q 134 259 206 135 q 63 524 63 383 q 222 903 63 744 q 604 1063 382 1063 q 886 985 753 1063 l 886 933 q 604 1022 756 1022 q 254 876 400 1022 q 108 524 108 729 q 254 172 108 319 q 604 25 400 25 q 840 83 718 25 l 840 397 l 496 397 z "},"H":{"ha":1014,"x_min":104,"x_max":910,"o":"m 864 1042 l 910 1042 l 910 0 l 864 0 l 864 397 l 150 397 l 150 0 l 104 0 l 104 1042 l 150 1042 l 150 438 l 864 438 l 864 1042 z "},"I":{"ha":268,"x_min":111,"x_max":157,"o":"m 111 1042 l 157 1042 l 157 0 l 111 0 l 111 1042 z "},"J":{"ha":649,"x_min":28,"x_max":544,"o":"m 242 1001 l 242 1042 l 544 1042 l 544 319 q 462 74 544 168 q 246 -21 379 -21 l 232 -21 q 28 58 121 -21 l 28 115 q 238 19 115 19 q 429 102 360 19 q 499 314 499 185 l 499 1001 l 242 1001 z "},"K":{"ha":794,"x_min":104,"x_max":767,"o":"m 104 1042 l 149 1042 l 149 660 l 589 1042 l 644 1042 l 168 626 l 767 0 l 706 0 l 150 579 l 150 0 l 104 0 l 104 1042 z "},"L":{"ha":500,"x_min":104,"x_max":472,"o":"m 150 1042 l 150 40 l 472 40 l 472 0 l 104 0 l 104 1042 l 150 1042 z "},"M":{"ha":1276,"x_min":104,"x_max":1172,"o":"m 1172 1042 l 1172 0 l 1126 0 l 1126 988 l 635 -19 l 146 988 l 146 0 l 104 0 l 104 1042 l 171 1042 l 639 81 l 1108 1042 l 1172 1042 z "},"N":{"ha":1015,"x_min":104,"x_max":911,"o":"m 871 1042 l 911 1042 l 911 -15 l 144 928 l 144 0 l 104 0 l 104 1057 l 871 115 l 871 1042 z "},"O":{"ha":1208,"x_min":63,"x_max":1146,"o":"m 593 -18 q 220 144 378 -18 q 63 524 63 307 q 222 901 63 742 q 606 1060 382 1060 q 988 901 829 1060 q 1146 524 1146 743 q 989 144 1146 306 q 614 -18 832 -18 l 593 -18 m 1100 522 q 1100 624 1100 522 q 955 873 1100 726 q 605 1019 810 1019 q 254 873 400 1019 q 108 522 108 726 q 254 169 108 317 q 604 22 400 22 q 954 169 808 22 q 1100 522 1100 317 z "},"P":{"ha":542,"x_min":103,"x_max":496,"o":"m 103 1042 l 149 1042 q 394 942 293 1042 q 496 708 496 843 q 391 476 496 574 q 160 379 286 379 l 149 379 l 149 0 l 103 0 l 103 1042 m 149 418 l 160 418 q 363 504 276 418 q 450 708 450 590 q 362 914 450 826 q 160 1001 274 1001 l 149 1001 l 149 418 z "},"Q":{"ha":1208,"x_min":63,"x_max":1146,"o":"m 1146 522 q 1088 285 1146 399 q 935 96 1031 172 l 1047 -17 l 986 -17 l 900 69 q 611 -17 768 -17 l 596 -17 q 329 58 453 -17 q 134 258 206 133 q 63 522 63 382 q 222 902 63 743 q 606 1061 382 1061 q 988 903 829 1061 q 1146 522 1146 744 m 604 24 q 869 100 744 24 l 629 338 l 689 338 l 903 126 q 1046 303 992 197 q 1100 522 1100 408 q 955 874 1100 728 q 605 1021 810 1021 q 254 874 400 1021 q 108 523 108 728 q 254 171 108 318 q 604 24 400 24 z "},"R":{"ha":565,"x_min":104,"x_max":524,"o":"m 104 1042 l 164 1042 q 401 942 299 1042 q 503 709 503 843 q 399 476 503 575 q 175 378 294 378 l 165 378 l 524 0 l 464 0 l 149 331 l 149 0 l 104 0 l 104 1042 m 149 418 l 174 418 q 372 504 286 418 q 458 708 458 590 q 369 914 458 826 q 167 1001 281 1001 l 149 1001 l 149 418 z "},"S":{"ha":692,"x_min":56,"x_max":636,"o":"m 524 894 q 437 986 492 953 q 314 1019 382 1019 q 198 977 246 1019 q 150 861 150 935 l 150 854 q 247 694 150 767 q 341 634 289 664 q 445 570 393 604 q 540 498 497 536 q 609 404 582 460 q 636 282 636 349 l 636 268 q 547 58 636 136 q 325 -19 457 -19 q 56 124 151 -19 l 56 199 q 162 70 92 119 q 336 21 232 21 q 517 88 440 21 q 593 265 593 154 l 593 274 q 557 401 593 343 q 467 495 521 458 q 349 572 413 532 q 231 647 285 613 q 140 735 176 682 q 104 850 104 788 l 104 860 q 167 1008 104 957 q 321 1060 229 1060 q 524 965 449 1060 l 524 894 z "},"T":{"ha":579,"x_min":28,"x_max":551,"o":"m 551 1042 l 551 1001 l 314 1001 l 314 0 l 268 0 l 268 1001 l 28 1001 l 28 1042 l 551 1042 z "},"U":{"ha":829,"x_min":104,"x_max":725,"o":"m 422 -19 l 408 -19 q 192 69 281 -19 q 104 293 104 158 l 104 1042 l 150 1042 l 150 294 q 226 99 150 176 q 415 21 303 21 q 603 98 528 21 q 679 294 679 175 l 679 1042 l 725 1042 l 725 296 q 637 70 725 160 q 422 -19 549 -19 z "},"V":{"ha":1092,"x_min":28,"x_max":1064,"o":"m 546 -24 l 28 1042 l 78 1042 l 550 76 l 1019 1042 l 1064 1042 l 546 -24 z "},"W":{"ha":1421,"x_min":28,"x_max":1389,"o":"m 485 -18 l 28 1042 l 79 1042 l 492 88 l 685 539 l 469 1042 l 519 1042 l 713 585 l 911 1042 l 950 1042 l 733 540 l 931 83 l 1351 1042 l 1389 1042 l 926 -18 l 706 490 l 485 -18 z "},"X":{"ha":671,"x_min":28,"x_max":643,"o":"m 582 1042 l 358 583 l 643 0 l 592 0 l 332 535 l 71 0 l 28 0 l 310 582 l 81 1042 l 133 1042 l 336 629 l 538 1042 l 582 1042 z "},"Y":{"ha":728,"x_min":28,"x_max":700,"o":"m 390 0 l 344 0 l 344 417 l 28 1042 l 78 1042 l 371 465 l 658 1042 l 700 1042 l 390 417 l 390 0 z "},"Z":{"ha":593,"x_min":35,"x_max":563,"o":"m 558 40 l 558 0 l 35 0 l 493 1001 l 35 1001 l 35 1042 l 563 1042 l 103 40 l 558 40 z "},"[":{"ha":299,"x_min":100,"x_max":278,"o":"m 146 1093 l 146 -75 l 278 -75 l 278 -115 l 100 -115 l 100 1133 l 278 1133 l 278 1093 l 146 1093 z "},"\\":{"ha":897,"x_min":35,"x_max":863,"o":"m 35 1039 l 88 1039 l 863 0 l 810 0 l 35 1039 z "},"]":{"ha":299,"x_min":21,"x_max":201,"o":"m 156 -75 l 156 1093 l 21 1093 l 21 1133 l 201 1133 l 201 -115 l 21 -115 l 21 -75 l 156 -75 z "},"^":{"ha":458,"x_min":21,"x_max":438,"o":"m 246 943 l 438 750 l 381 750 l 231 900 l 79 750 l 21 750 l 215 943 l 246 943 z "},"_":{"ha":497,"x_min":35,"x_max":463,"o":"m 463 0 l 35 0 l 35 43 l 463 43 l 463 0 z "},"`":{"ha":293,"x_min":21,"x_max":272,"o":"m 21 894 l 78 894 l 272 735 l 214 735 l 21 894 z "},"a":{"ha":790,"x_min":49,"x_max":707,"o":"m 707 625 l 707 0 l 663 0 l 663 156 q 546 31 624 76 q 379 -15 468 -15 q 146 81 243 -15 q 49 313 49 178 q 146 544 49 447 q 379 640 243 640 q 549 593 468 640 q 663 468 631 546 l 663 625 l 707 625 m 93 311 q 93 253 93 311 q 178 109 93 194 q 381 24 264 24 q 582 109 499 24 q 665 312 665 194 q 581 515 665 429 q 381 601 497 601 q 178 515 264 601 q 93 311 93 428 z "},"b":{"ha":790,"x_min":83,"x_max":742,"o":"m 83 0 l 83 1042 l 128 1042 l 128 472 q 245 594 165 549 q 411 640 325 640 q 645 544 549 640 q 742 313 742 447 q 645 81 742 178 q 411 -15 549 -15 q 249 30 328 -15 q 128 151 169 75 l 128 0 l 83 0 m 125 311 q 125 253 125 311 q 210 109 125 194 q 413 24 296 24 q 614 109 531 24 q 697 312 697 194 q 613 515 697 429 q 413 601 529 601 q 210 515 296 601 q 125 311 125 428 z "},"c":{"ha":661,"x_min":49,"x_max":626,"o":"m 386 -18 l 374 -18 q 144 81 240 -18 q 49 312 49 179 q 146 541 49 444 q 385 638 243 638 q 626 531 526 638 l 626 460 q 517 561 583 524 q 379 599 451 599 q 178 513 264 599 q 93 310 93 428 q 178 106 93 192 q 379 21 264 21 q 517 58 451 21 q 626 161 583 96 l 626 89 q 386 -18 529 -18 z "},"d":{"ha":790,"x_min":49,"x_max":707,"o":"m 707 1042 l 707 0 l 663 0 l 663 151 q 542 30 621 75 q 379 -15 463 -15 q 145 81 242 -15 q 49 313 49 178 q 145 544 49 447 q 379 640 242 640 q 545 594 465 640 q 663 472 625 549 l 663 1042 l 707 1042 m 93 312 q 93 253 93 312 q 176 109 93 194 q 377 24 260 24 q 580 109 494 24 q 665 311 665 194 q 580 515 665 428 q 378 601 494 601 q 177 515 261 601 q 93 312 93 429 z "},"e":{"ha":688,"x_min":56,"x_max":639,"o":"m 396 -17 l 383 -17 q 153 83 251 -17 q 56 314 56 182 q 153 542 56 446 q 393 639 250 639 q 639 525 536 639 l 203 94 q 376 22 293 22 q 526 60 460 22 q 635 163 592 99 l 635 92 q 396 -17 536 -17 m 381 600 q 326 600 381 600 q 185 515 271 600 q 100 318 100 429 q 174 124 100 207 l 578 525 q 381 600 492 600 z "},"f":{"ha":350,"x_min":83,"x_max":322,"o":"m 321 878 l 321 839 q 184 783 240 839 q 128 643 128 728 l 128 278 l 322 278 l 322 239 l 128 239 l 128 0 l 83 0 l 83 643 q 153 812 83 746 q 321 878 222 878 z "},"g":{"ha":792,"x_min":49,"x_max":708,"o":"m 664 625 l 708 625 l 708 58 q 619 -196 708 -103 q 386 -289 531 -289 q 232 -253 307 -289 q 115 -158 157 -217 l 115 -94 q 228 -206 151 -161 q 386 -250 306 -250 q 586 -167 508 -250 q 664 58 664 -85 l 664 151 q 546 29 626 75 q 379 -17 465 -17 q 146 80 243 -17 q 49 311 49 176 q 146 542 49 446 q 379 639 243 639 q 548 594 469 639 q 664 469 626 549 l 664 625 m 93 311 q 93 252 93 311 q 178 108 93 193 q 381 22 264 22 q 582 108 499 22 q 665 311 665 193 q 582 515 665 429 q 381 600 499 600 q 178 515 264 600 q 93 311 93 429 z "},"h":{"ha":714,"x_min":83,"x_max":644,"o":"m 128 0 l 83 0 l 83 1040 l 128 1040 l 128 504 q 368 640 197 640 q 565 560 485 640 q 644 364 644 479 l 644 0 l 600 0 l 600 364 q 532 531 600 461 q 368 601 464 601 q 200 531 272 601 q 128 364 128 460 l 128 0 z "},"i":{"ha":247,"x_min":83,"x_max":164,"o":"m 146 624 l 146 0 l 101 0 l 101 624 l 146 624 m 124 776 q 103 776 124 776 q 83 814 83 776 q 124 851 83 851 q 164 814 164 851 q 124 776 164 776 z "},"j":{"ha":336,"x_min":-7,"x_max":253,"o":"m -7 -275 l -7 -236 q 132 -181 75 -236 q 189 -40 189 -125 l 189 625 l 233 625 l 233 -40 q 163 -209 233 -143 q -7 -275 93 -275 m 213 776 q 192 776 213 776 q 172 814 172 776 q 213 851 172 851 q 253 814 253 851 q 213 776 253 776 z "},"k":{"ha":539,"x_min":83,"x_max":504,"o":"m 83 1039 l 128 1039 l 128 408 l 375 625 l 432 625 l 146 375 l 504 0 l 444 0 l 128 329 l 128 0 l 83 0 l 83 1039 z "},"l":{"ha":349,"x_min":83,"x_max":321,"o":"m 321 26 l 321 -12 q 153 53 222 -12 q 83 222 83 119 l 83 1042 l 128 1042 l 128 222 q 184 82 128 138 q 321 26 240 26 z "},"m":{"ha":1036,"x_min":83,"x_max":953,"o":"m 517 493 q 597 600 538 560 q 740 640 656 640 q 889 579 825 640 q 953 414 953 518 l 953 0 l 908 0 l 908 414 q 856 548 908 494 q 728 601 803 601 q 597 546 654 601 q 539 417 539 490 l 539 0 l 494 0 l 494 417 q 442 547 494 492 q 314 601 389 601 q 183 546 239 601 q 128 417 128 490 l 128 0 l 83 0 l 83 625 l 128 625 l 128 538 q 210 610 156 579 q 324 640 265 640 q 438 599 383 640 q 517 493 492 558 z "},"n":{"ha":728,"x_min":83,"x_max":644,"o":"m 128 0 l 83 0 l 83 625 l 128 625 l 128 499 q 369 640 199 640 q 565 560 486 640 q 644 364 644 479 l 644 0 l 600 0 l 600 364 q 533 531 600 460 q 369 601 465 601 q 201 531 274 601 q 128 364 128 460 l 128 0 z "},"o":{"ha":758,"x_min":49,"x_max":710,"o":"m 374 -15 q 144 84 240 -15 q 49 315 49 183 q 146 544 49 447 q 380 640 243 640 q 613 544 517 640 q 710 315 710 447 q 615 83 710 182 q 386 -15 521 -15 l 374 -15 m 665 312 q 665 370 665 312 q 581 515 665 429 q 381 601 497 601 q 178 515 264 601 q 93 311 93 428 q 178 109 93 194 q 381 24 264 24 q 582 109 499 24 q 665 312 665 194 z "},"p":{"ha":790,"x_min":83,"x_max":742,"o":"m 83 -278 l 83 625 l 128 625 l 128 472 q 245 594 165 549 q 411 640 325 640 q 645 544 549 640 q 742 313 742 447 q 645 81 742 178 q 411 -15 549 -15 q 249 30 328 -15 q 128 151 169 75 l 128 -278 l 83 -278 m 125 311 q 125 253 125 311 q 210 109 125 194 q 413 24 296 24 q 614 109 531 24 q 697 312 697 194 q 613 515 697 429 q 413 601 529 601 q 210 515 296 601 q 125 311 125 428 z "},"q":{"ha":790,"x_min":49,"x_max":707,"o":"m 707 625 l 707 -278 l 663 -278 l 663 156 q 546 31 624 76 q 379 -15 468 -15 q 146 81 243 -15 q 49 313 49 178 q 146 544 49 447 q 379 640 243 640 q 549 593 468 640 q 663 468 631 546 l 663 625 l 707 625 m 93 311 q 93 253 93 311 q 178 109 93 194 q 381 24 264 24 q 582 109 499 24 q 665 312 665 194 q 581 515 665 429 q 381 601 497 601 q 178 515 264 601 q 93 311 93 428 z "},"r":{"ha":483,"x_min":83,"x_max":449,"o":"m 449 540 q 314 601 388 601 q 184 546 240 601 q 128 417 128 490 l 128 0 l 83 0 l 83 625 l 128 625 l 128 532 q 206 610 153 579 q 324 640 258 640 q 449 596 389 640 l 449 540 z "},"s":{"ha":478,"x_min":44,"x_max":429,"o":"m 219 603 q 156 579 183 603 q 128 521 128 556 q 159 457 128 486 q 234 403 190 428 q 322 351 278 379 q 398 281 367 324 q 429 182 429 238 q 367 42 429 100 q 218 -15 306 -15 q 115 9 163 -15 q 44 74 67 33 l 44 140 q 214 24 97 24 q 335 68 286 24 q 385 167 385 113 q 353 260 385 222 q 278 324 322 297 q 190 376 233 350 q 115 438 146 401 q 83 524 83 475 q 123 608 83 574 q 225 642 163 642 q 332 593 288 642 l 332 536 q 219 603 288 603 z "},"t":{"ha":335,"x_min":69,"x_max":307,"o":"m 307 31 l 307 -8 q 139 58 208 -8 q 69 226 69 124 l 69 876 l 114 876 l 114 624 l 306 624 l 306 585 l 114 585 l 114 226 q 170 86 114 142 q 307 31 226 31 z "},"u":{"ha":700,"x_min":69,"x_max":631,"o":"m 586 625 l 631 625 l 631 0 l 586 0 l 586 126 q 344 -15 515 -15 q 149 65 228 -15 q 69 261 69 146 l 69 625 l 114 625 l 114 261 q 181 94 114 165 q 344 24 249 24 q 513 94 440 24 q 586 261 586 165 l 586 625 z "},"v":{"ha":685,"x_min":35,"x_max":650,"o":"m 610 625 l 650 625 l 343 -18 l 35 625 l 83 625 l 347 76 l 610 625 z "},"w":{"ha":950,"x_min":35,"x_max":915,"o":"m 35 625 l 81 625 l 338 79 l 458 333 l 324 622 l 368 622 l 481 376 l 596 625 l 638 625 l 501 333 l 621 76 l 875 624 l 915 624 l 619 -15 l 478 289 l 335 -15 l 35 625 z "},"x":{"ha":601,"x_min":29,"x_max":574,"o":"m 322 379 l 574 0 l 522 0 l 297 340 l 74 0 l 29 0 l 275 375 l 110 625 l 161 625 l 300 414 l 439 625 l 483 625 l 322 379 z "},"y":{"ha":700,"x_min":69,"x_max":631,"o":"m 586 625 l 631 625 l 631 19 q 544 -190 631 -104 q 333 -276 458 -276 q 96 -161 183 -276 l 99 -92 q 201 -198 138 -158 q 333 -237 264 -237 q 511 -163 436 -237 q 586 15 586 -89 l 586 121 q 349 -15 518 -15 q 151 66 233 -15 q 69 261 69 147 l 69 625 l 114 625 l 114 261 q 184 94 114 165 q 350 24 254 24 q 516 94 446 24 q 586 261 586 165 l 586 625 z "},"z":{"ha":504,"x_min":35,"x_max":469,"o":"m 465 39 l 465 0 l 35 0 l 390 586 l 72 586 l 72 625 l 469 625 l 113 39 l 465 39 z "},"{":{"ha":357,"x_min":47,"x_max":329,"o":"m 232 926 l 232 703 q 208 599 232 649 q 139 521 183 550 q 232 342 232 460 l 232 107 q 258 7 232 51 q 329 -62 285 -37 l 329 -104 q 226 -17 267 -75 q 186 107 186 42 l 186 342 q 146 453 186 403 q 47 521 106 504 q 146 590 106 538 q 186 703 186 642 l 186 926 q 226 1048 186 992 q 329 1135 267 1104 l 329 1093 q 258 1026 285 1071 q 232 926 232 982 z "},"|":{"ha":254,"x_min":104,"x_max":150,"o":"m 104 0 l 104 1039 l 150 1039 l 150 0 l 104 0 z "},"}":{"ha":357,"x_min":28,"x_max":310,"o":"m 174 926 l 174 703 q 214 590 174 643 q 310 521 254 538 q 214 453 254 504 q 174 342 174 403 l 174 107 q 132 -17 174 43 q 28 -104 90 -76 l 28 -62 q 128 107 128 -8 l 128 342 q 219 521 128 461 q 152 599 176 549 q 128 703 128 649 l 128 926 q 101 1026 128 982 q 28 1093 74 1071 l 28 1135 q 133 1048 92 1104 q 174 926 174 992 z "},"~":{"ha":740,"x_min":104,"x_max":636,"o":"m 636 500 q 524 436 581 436 q 374 486 468 436 q 228 536 281 536 q 104 439 160 531 l 104 510 q 226 576 158 571 q 383 526 292 576 q 526 476 474 476 q 636 567 579 476 l 636 500 z "},"¡":{"ha":314,"x_min":111,"x_max":203,"o":"m 182 0 l 136 0 l 136 903 l 182 903 l 182 0 m 157 965 q 134 965 157 965 q 111 1008 111 965 q 157 1051 111 1051 q 203 1008 203 1051 q 157 965 203 965 z "},"¢":{"ha":751,"x_min":69,"x_max":703,"o":"m 397 -215 l 397 -12 l 392 -12 q 157 84 244 -12 q 69 312 69 181 q 154 538 69 443 q 390 633 239 633 l 397 633 l 397 783 l 444 783 l 444 633 l 451 633 q 703 531 607 633 l 703 460 q 592 558 660 522 q 451 594 525 594 l 444 594 l 444 26 l 451 26 q 593 63 526 26 q 703 161 660 99 l 703 89 q 591 14 658 40 q 450 -12 524 -12 l 444 -12 l 444 -215 l 397 -215 m 397 594 l 390 594 q 189 511 260 594 q 118 310 118 428 q 189 109 118 192 q 390 26 260 26 l 397 26 l 397 594 z "},"£":{"ha":735,"x_min":28,"x_max":707,"o":"m 246 433 l 526 433 l 526 394 l 247 394 l 247 140 q 403 90 313 140 q 547 40 494 40 q 657 131 600 40 l 707 131 q 544 -3 625 -3 q 395 48 489 -3 q 247 99 301 99 l 201 99 q 78 0 133 93 l 28 0 q 201 140 97 129 l 201 394 l 74 394 l 74 433 l 201 433 l 201 761 q 271 970 201 888 q 453 1053 340 1053 l 465 1053 q 639 983 560 1053 l 639 935 q 557 995 606 972 q 458 1018 508 1018 q 302 946 358 1018 q 246 761 246 874 l 246 433 z "},"¤":{"ha":1171,"x_min":49,"x_max":1122,"o":"m 221 922 q 580 1057 372 1057 q 947 914 788 1057 l 1071 1039 l 1101 1003 l 981 882 q 1122 517 1122 719 q 983 157 1122 314 l 1101 42 l 1068 7 l 953 122 q 581 -17 790 -17 q 224 122 371 -17 l 104 3 l 71 38 l 189 157 q 49 515 49 307 q 188 889 49 724 l 69 1004 l 104 1040 l 221 922 m 939 872 q 869 941 939 872 q 590 1011 799 1011 q 239 868 382 1011 q 96 515 96 725 q 240 167 96 306 q 581 28 383 28 q 929 172 779 28 q 1079 524 1079 315 q 939 872 1079 732 z "},"¥":{"ha":742,"x_min":35,"x_max":707,"o":"m 589 242 l 397 242 l 397 0 l 351 0 l 351 242 l 157 242 l 157 282 l 351 282 l 351 419 l 157 419 l 157 463 l 328 463 l 35 1042 l 83 1042 l 376 465 l 664 1042 l 707 1042 l 419 463 l 589 463 l 589 419 l 397 419 l 397 282 l 589 282 l 589 242 z "},"¦":{"ha":299,"x_min":125,"x_max":174,"o":"m 174 0 l 125 0 l 125 393 l 174 393 l 174 0 m 174 647 l 125 647 l 125 1042 l 174 1042 l 174 647 z "},"§":{"ha":592,"x_min":69,"x_max":522,"o":"m 69 521 q 128 665 69 604 q 269 731 186 725 q 177 803 208 768 q 146 897 146 838 q 195 1003 146 957 q 312 1049 244 1049 q 436 1000 379 1049 l 436 926 q 322 1010 382 1010 q 226 976 261 1010 q 190 892 190 943 q 206 841 190 858 q 228 815 221 824 q 253 794 236 806 q 277 777 271 782 q 303 762 283 772 q 324 750 322 751 l 363 729 q 486 636 460 674 q 522 512 522 585 q 464 378 522 439 q 321 308 406 317 q 414 236 382 271 q 446 140 446 201 q 395 34 446 79 q 271 -11 344 -11 q 146 40 197 -11 l 146 117 q 271 29 199 29 q 363 62 325 29 q 400 147 400 94 q 265 293 400 224 l 229 313 q 83 443 114 372 q 69 521 69 478 m 419 643 q 392 668 419 643 q 293 693 365 693 q 169 642 221 693 q 118 519 118 592 q 172 398 118 447 q 299 349 226 349 q 422 399 371 349 q 474 522 474 450 q 419 643 474 593 z "},"¨":{"ha":267,"x_min":21,"x_max":246,"o":"m 61 775 q 41 775 61 775 q 21 813 21 775 q 61 850 21 850 q 101 813 101 850 q 61 775 101 775 m 208 775 q 189 775 208 775 q 169 813 169 775 q 208 850 169 850 q 246 813 246 850 q 208 775 246 775 z "},"©":{"ha":1236,"x_min":76,"x_max":1160,"o":"m 628 -18 l 607 -18 q 234 144 392 -18 q 76 524 76 307 q 236 901 76 742 q 619 1060 396 1060 q 1001 901 843 1060 q 1160 524 1160 743 q 1003 144 1160 306 q 628 -18 846 -18 m 1114 522 q 1114 624 1114 522 q 969 873 1114 726 q 619 1019 824 1019 q 268 873 414 1019 q 122 522 122 726 q 268 169 122 317 q 618 22 414 22 q 968 169 822 22 q 1114 522 1114 317 m 629 194 l 608 194 q 384 294 479 194 q 289 525 289 393 q 386 753 289 657 q 625 850 483 850 q 867 743 767 850 l 867 672 q 758 774 824 736 q 619 811 692 811 q 419 726 504 811 q 333 522 333 640 q 419 319 333 404 q 619 233 504 233 q 758 271 692 233 q 867 374 824 308 l 867 301 q 629 194 769 194 z "},"«":{"ha":671,"x_min":97,"x_max":643,"o":"m 97 333 l 400 601 l 400 542 l 144 315 l 400 88 l 400 25 l 97 297 l 97 333 m 340 333 l 643 601 l 643 542 l 388 315 l 643 88 l 643 25 l 340 297 l 340 333 z "},"¬":{"ha":569,"x_min":69,"x_max":500,"o":"m 457 261 l 457 392 l 69 392 l 69 435 l 500 435 l 500 261 l 457 261 z "},"­":{"ha":571,"x_min":69,"x_max":501,"o":"m 501 392 l 69 392 l 69 435 l 501 435 l 501 392 z "},"®":{"ha":1236,"x_min":76,"x_max":1160,"o":"m 628 -18 l 607 -18 q 234 144 392 -18 q 76 524 76 307 q 236 901 76 742 q 619 1060 396 1060 q 1001 901 843 1060 q 1160 524 1160 743 q 1003 144 1160 306 q 628 -18 846 -18 m 1114 522 q 1114 624 1114 522 q 969 873 1114 726 q 619 1019 824 1019 q 268 873 414 1019 q 122 522 122 726 q 268 169 122 317 q 618 22 414 22 q 968 169 822 22 q 1114 522 1114 317 m 511 429 l 511 214 l 468 214 l 468 839 l 606 839 q 751 778 690 839 q 811 640 811 718 q 768 506 811 561 q 657 433 725 450 l 818 214 l 761 214 l 608 429 l 511 429 m 511 801 l 511 467 l 608 467 q 722 517 672 467 q 771 634 771 568 q 722 751 771 700 q 608 801 672 801 l 511 801 z "},"¯":{"ha":474,"x_min":104,"x_max":378,"o":"m 378 786 l 104 786 l 104 825 l 378 825 l 378 786 z "},"°":{"ha":265,"x_min":28,"x_max":238,"o":"m 135 833 l 129 833 q 58 865 88 833 q 28 938 28 896 q 58 1011 28 981 q 133 1042 89 1042 q 207 1011 176 1042 q 238 938 238 981 q 207 865 238 896 q 135 833 176 833 m 201 938 q 201 952 201 938 q 181 988 201 967 q 133 1008 161 1008 q 83 987 104 1008 q 63 938 63 965 q 83 888 63 910 q 133 867 104 867 q 181 888 161 867 q 201 938 201 908 z "},"±":{"ha":626,"x_min":97,"x_max":529,"o":"m 292 538 l 97 538 l 97 581 l 292 581 l 292 774 l 338 774 l 338 581 l 529 581 l 529 538 l 338 538 l 338 351 l 292 351 l 292 538 m 529 233 l 97 233 l 97 276 l 529 276 l 529 233 z "},"´":{"ha":293,"x_min":21,"x_max":272,"o":"m 215 894 l 272 894 l 79 735 l 21 735 l 215 894 z "},"µ":{"ha":771,"x_min":104,"x_max":667,"o":"m 104 -278 l 104 625 l 150 625 l 150 261 q 220 94 150 165 q 386 24 290 24 q 552 94 482 24 q 622 261 622 165 l 622 625 l 667 625 l 667 0 l 622 0 l 622 121 q 520 22 585 60 q 383 -15 456 -15 q 249 19 311 -15 q 149 114 186 54 l 149 -278 l 104 -278 z "},"¶":{"ha":783,"x_min":104,"x_max":742,"o":"m 376 -278 l 333 -278 l 333 632 l 306 632 q 163 692 221 632 q 104 837 104 753 q 164 981 104 921 q 310 1042 224 1042 l 742 1042 l 742 1001 l 617 1001 l 617 -278 l 574 -278 l 574 1001 l 376 1001 l 376 -278 z "},"·":{"ha":294,"x_min":104,"x_max":190,"o":"m 147 363 q 126 363 147 363 q 104 406 104 363 q 147 449 104 449 q 190 406 190 449 q 147 363 190 363 z "},"¸":{"ha":197,"x_min":21,"x_max":176,"o":"m 21 -104 l 21 13 l 56 13 l 56 -68 l 69 -68 q 145 -99 114 -68 q 176 -171 176 -129 l 176 -176 q 146 -248 176 -218 q 69 -278 115 -278 l 21 -278 l 21 -243 l 69 -243 q 122 -223 101 -243 q 143 -174 143 -203 q 122 -124 143 -144 q 69 -104 101 -104 l 21 -104 z "},"»":{"ha":671,"x_min":28,"x_max":574,"o":"m 271 601 l 574 333 l 574 297 l 271 25 l 271 88 l 526 315 l 271 542 l 271 601 m 28 601 l 331 333 l 331 297 l 28 25 l 28 88 l 283 315 l 28 542 l 28 601 z "},"¿":{"ha":869,"x_min":76,"x_max":793,"o":"m 793 339 q 688 88 785 185 q 435 -10 590 -10 q 178 92 281 -10 q 76 327 76 193 q 175 583 76 461 q 408 686 271 678 l 408 915 l 453 915 l 453 646 l 433 646 q 208 554 294 646 q 121 334 121 463 q 212 118 121 206 q 438 31 303 31 q 656 115 572 31 q 746 339 740 199 l 793 339 m 427 1058 q 451 1058 427 1058 q 475 1015 475 1058 q 427 972 475 972 q 379 1015 379 972 q 427 1058 379 1058 z "},"À":{"ha":1124,"x_min":42,"x_max":1082,"o":"m 561 1067 l 1082 0 l 1033 0 l 836 397 l 279 397 l 85 0 l 42 0 l 561 1067 m 557 971 l 297 438 l 819 438 l 557 971 m 436 1311 l 493 1311 l 688 1151 l 629 1151 l 436 1311 z "},"Á":{"ha":1124,"x_min":42,"x_max":1082,"o":"m 561 1067 l 1082 0 l 1033 0 l 836 397 l 279 397 l 85 0 l 42 0 l 561 1067 m 557 971 l 297 438 l 819 438 l 557 971 m 631 1311 l 688 1311 l 494 1151 l 436 1151 l 631 1311 z "},"Â":{"ha":1124,"x_min":42,"x_max":1082,"o":"m 561 1067 l 1082 0 l 1033 0 l 836 397 l 279 397 l 85 0 l 42 0 l 561 1067 m 557 971 l 297 438 l 819 438 l 557 971 m 585 1311 l 768 1151 l 711 1151 l 563 1278 l 415 1151 l 357 1151 l 543 1311 l 585 1311 z "},"Ã":{"ha":1124,"x_min":42,"x_max":1082,"o":"m 561 1067 l 1082 0 l 1033 0 l 836 397 l 279 397 l 85 0 l 42 0 l 561 1067 m 557 971 l 297 438 l 819 438 l 557 971 m 674 1176 q 565 1215 633 1176 q 454 1252 496 1253 q 368 1178 413 1251 l 325 1178 q 457 1289 379 1289 l 469 1289 q 574 1252 511 1289 q 674 1215 636 1215 q 756 1283 713 1215 l 799 1283 q 674 1176 733 1176 z "},"Ä":{"ha":1124,"x_min":42,"x_max":1082,"o":"m 561 1067 l 1082 0 l 1033 0 l 836 397 l 279 397 l 85 0 l 42 0 l 561 1067 m 557 971 l 297 438 l 819 438 l 557 971 m 489 1192 q 469 1192 489 1192 q 449 1229 449 1192 q 489 1267 449 1267 q 529 1229 529 1267 q 489 1192 529 1192 m 635 1192 q 616 1192 635 1192 q 597 1229 597 1192 q 635 1267 597 1267 q 674 1229 674 1267 q 635 1192 674 1192 z "},"Å":{"ha":1124,"x_min":42,"x_max":1082,"o":"m 561 1067 l 1082 0 l 1033 0 l 836 397 l 279 397 l 85 0 l 42 0 l 561 1067 m 557 971 l 297 438 l 819 438 l 557 971 m 564 1128 l 558 1128 q 487 1159 517 1128 q 457 1233 457 1190 q 488 1306 457 1275 q 562 1336 518 1336 q 636 1306 606 1336 q 667 1233 667 1275 q 636 1159 667 1190 q 564 1128 606 1128 m 631 1232 q 631 1247 631 1232 q 610 1282 631 1261 q 562 1303 590 1303 q 513 1281 533 1303 q 492 1232 492 1260 q 513 1183 492 1204 q 562 1161 533 1161 q 610 1182 590 1161 q 631 1232 631 1203 z "},"Æ":{"ha":960,"x_min":35,"x_max":925,"o":"m 925 1042 l 925 1001 l 597 1001 l 597 439 l 871 439 l 871 399 l 597 399 l 597 40 l 925 40 l 925 0 l 551 0 l 551 397 l 272 397 l 78 0 l 35 0 l 551 1042 l 925 1042 m 551 438 l 551 961 l 290 438 l 551 438 z "},"Ç":{"ha":997,"x_min":76,"x_max":900,"o":"m 579 -104 l 579 -14 q 224 158 372 -3 q 76 531 76 318 q 236 903 76 744 q 618 1063 396 1063 q 900 985 767 1063 l 900 933 q 618 1022 769 1022 q 268 876 414 1022 q 122 524 122 729 q 268 172 122 319 q 618 25 414 25 q 900 114 769 25 l 900 63 q 625 -15 774 -15 l 614 -15 l 614 -68 l 628 -68 q 703 -99 672 -68 q 735 -171 735 -129 l 735 -176 q 704 -248 735 -218 q 628 -278 674 -278 l 579 -278 l 579 -243 l 628 -243 q 681 -223 660 -243 q 701 -174 701 -203 q 681 -124 701 -144 q 628 -104 660 -104 l 579 -104 z "},"È":{"ha":540,"x_min":118,"x_max":492,"o":"m 118 1042 l 492 1042 l 492 1001 l 164 1001 l 164 435 l 438 435 l 438 394 l 164 394 l 164 40 l 492 40 l 492 0 l 118 0 l 118 1042 m 182 1311 l 239 1311 l 433 1151 l 375 1151 l 182 1311 z "},"É":{"ha":540,"x_min":118,"x_max":492,"o":"m 118 1042 l 492 1042 l 492 1001 l 164 1001 l 164 435 l 438 435 l 438 394 l 164 394 l 164 40 l 492 40 l 492 0 l 118 0 l 118 1042 m 375 1311 l 432 1311 l 239 1151 l 181 1151 l 375 1311 z "},"Ê":{"ha":540,"x_min":103,"x_max":514,"o":"m 118 1042 l 492 1042 l 492 1001 l 164 1001 l 164 435 l 438 435 l 438 394 l 164 394 l 164 40 l 492 40 l 492 0 l 118 0 l 118 1042 m 331 1311 l 514 1151 l 457 1151 l 308 1278 l 161 1151 l 103 1151 l 289 1311 l 331 1311 z "},"Ë":{"ha":540,"x_min":118,"x_max":492,"o":"m 118 1042 l 492 1042 l 492 1001 l 164 1001 l 164 435 l 438 435 l 438 394 l 164 394 l 164 40 l 492 40 l 492 0 l 118 0 l 118 1042 m 231 1192 q 210 1192 231 1192 q 190 1229 190 1192 q 231 1267 190 1267 q 271 1229 271 1267 q 231 1192 271 1192 m 377 1192 q 358 1192 377 1192 q 339 1229 339 1192 q 377 1267 339 1267 q 415 1229 415 1267 q 377 1192 415 1192 z "},"Ì":{"ha":296,"x_min":22,"x_max":274,"o":"m 125 1042 l 171 1042 l 171 0 l 125 0 l 125 1042 m 22 1311 l 79 1311 l 274 1151 l 215 1151 l 22 1311 z "},"Í":{"ha":296,"x_min":22,"x_max":274,"o":"m 125 1042 l 171 1042 l 171 0 l 125 0 l 125 1042 m 217 1311 l 274 1311 l 81 1151 l 22 1151 l 217 1311 z "},"Î":{"ha":296,"x_min":-57,"x_max":354,"o":"m 125 1042 l 171 1042 l 171 0 l 125 0 l 125 1042 m 171 1311 l 354 1151 l 297 1151 l 149 1278 l 1 1151 l -57 1151 l 129 1311 l 171 1311 z "},"Ï":{"ha":296,"x_min":35,"x_max":260,"o":"m 125 1042 l 171 1042 l 171 0 l 125 0 l 125 1042 m 75 1192 q 55 1192 75 1192 q 35 1229 35 1192 q 75 1267 35 1267 q 115 1229 115 1267 q 75 1192 115 1192 m 222 1192 q 202 1192 222 1192 q 183 1229 183 1192 q 222 1267 183 1267 q 260 1229 260 1267 q 222 1192 260 1192 z "},"Ð":{"ha":731,"x_min":21,"x_max":668,"o":"m 104 1042 l 149 1042 q 525 888 382 1042 q 668 520 668 735 q 526 153 668 306 q 149 0 383 0 l 104 0 l 104 501 l 21 501 l 21 542 l 104 542 l 104 1042 m 160 1000 l 149 1000 l 149 542 l 321 542 l 321 501 l 149 501 l 149 43 l 160 43 q 492 183 363 43 q 622 520 622 324 q 492 858 622 717 q 160 1000 363 1000 z "},"Ñ":{"ha":1043,"x_min":118,"x_max":925,"o":"m 885 1042 l 925 1042 l 925 -15 l 158 928 l 158 0 l 118 0 l 118 1057 l 885 115 l 885 1042 m 633 1176 q 524 1215 593 1176 q 414 1252 456 1253 q 328 1178 372 1251 l 285 1178 q 417 1289 339 1289 l 429 1289 q 533 1252 471 1289 q 634 1215 596 1215 q 715 1283 672 1215 l 758 1283 q 633 1176 693 1176 z "},"Ò":{"ha":1236,"x_min":76,"x_max":1160,"o":"m 607 -18 q 234 144 392 -18 q 76 524 76 307 q 236 901 76 742 q 619 1060 396 1060 q 1001 901 843 1060 q 1160 524 1160 743 q 1003 144 1160 306 q 628 -18 846 -18 l 607 -18 m 1114 522 q 1114 624 1114 522 q 969 873 1114 726 q 619 1019 824 1019 q 268 873 414 1019 q 122 522 122 726 q 268 169 122 317 q 618 22 414 22 q 968 169 822 22 q 1114 522 1114 317 m 492 1311 l 549 1311 l 743 1151 l 685 1151 l 492 1311 z "},"Ó":{"ha":1236,"x_min":76,"x_max":1160,"o":"m 607 -18 q 234 144 392 -18 q 76 524 76 307 q 236 901 76 742 q 619 1060 396 1060 q 1001 901 843 1060 q 1160 524 1160 743 q 1003 144 1160 306 q 628 -18 846 -18 l 607 -18 m 1114 522 q 1114 624 1114 522 q 969 873 1114 726 q 619 1019 824 1019 q 268 873 414 1019 q 122 522 122 726 q 268 169 122 317 q 618 22 414 22 q 968 169 822 22 q 1114 522 1114 317 m 686 1311 l 743 1311 l 550 1151 l 492 1151 l 686 1311 z "},"Ô":{"ha":1236,"x_min":76,"x_max":1160,"o":"m 607 -18 q 234 144 392 -18 q 76 524 76 307 q 236 901 76 742 q 619 1060 396 1060 q 1001 901 843 1060 q 1160 524 1160 743 q 1003 144 1160 306 q 628 -18 846 -18 l 607 -18 m 1114 522 q 1114 624 1114 522 q 969 873 1114 726 q 619 1019 824 1019 q 268 873 414 1019 q 122 522 122 726 q 268 169 122 317 q 618 22 414 22 q 968 169 822 22 q 1114 522 1114 317 m 640 1311 l 824 1151 l 767 1151 l 618 1278 l 471 1151 l 413 1151 l 599 1311 l 640 1311 z "},"Õ":{"ha":1236,"x_min":76,"x_max":1160,"o":"m 607 -18 q 234 144 392 -18 q 76 524 76 307 q 236 901 76 742 q 619 1060 396 1060 q 1001 901 843 1060 q 1160 524 1160 743 q 1003 144 1160 306 q 628 -18 846 -18 l 607 -18 m 1114 522 q 1114 624 1114 522 q 969 873 1114 726 q 619 1019 824 1019 q 268 873 414 1019 q 122 522 122 726 q 268 169 122 317 q 618 22 414 22 q 968 169 822 22 q 1114 522 1114 317 m 729 1176 q 620 1215 689 1176 q 510 1252 551 1253 q 424 1178 468 1251 l 381 1178 q 513 1289 435 1289 l 525 1289 q 629 1252 567 1289 q 730 1215 692 1215 q 811 1283 768 1215 l 854 1283 q 729 1176 789 1176 z "},"Ö":{"ha":1236,"x_min":76,"x_max":1160,"o":"m 607 -18 q 234 144 392 -18 q 76 524 76 307 q 236 901 76 742 q 619 1060 396 1060 q 1001 901 843 1060 q 1160 524 1160 743 q 1003 144 1160 306 q 628 -18 846 -18 l 607 -18 m 1114 522 q 1114 624 1114 522 q 969 873 1114 726 q 619 1019 824 1019 q 268 873 414 1019 q 122 522 122 726 q 268 169 122 317 q 618 22 414 22 q 968 169 822 22 q 1114 522 1114 317 m 546 1192 q 526 1192 546 1192 q 506 1229 506 1192 q 546 1267 506 1267 q 586 1229 586 1267 q 546 1192 586 1192 m 692 1192 q 673 1192 692 1192 q 654 1229 654 1192 q 692 1267 654 1267 q 731 1229 731 1267 q 692 1192 731 1192 z "},"×":{"ha":546,"x_min":104,"x_max":442,"o":"m 242 563 l 104 700 l 135 731 l 272 593 l 408 729 l 442 697 l 304 560 l 440 425 l 410 394 l 274 529 l 143 399 l 110 431 l 242 563 z "},"Ø":{"ha":1222,"x_min":69,"x_max":1153,"o":"m 1153 521 q 996 144 1153 306 q 621 -18 839 -18 l 600 -18 q 307 75 439 -18 l 251 0 l 200 0 l 275 100 q 124 288 179 178 q 69 521 69 397 q 229 901 69 742 q 611 1060 389 1060 q 918 964 779 1060 l 974 1039 l 1028 1039 l 951 938 q 1099 753 1046 861 q 1153 521 1153 644 m 611 1019 q 261 873 407 1019 q 115 521 115 726 q 165 305 115 406 q 300 133 214 204 l 893 931 q 611 1019 763 1019 m 1107 521 q 1059 734 1107 635 q 926 904 1011 833 l 332 110 q 611 22 461 22 q 961 169 815 22 q 1107 521 1107 317 z "},"Ù":{"ha":857,"x_min":118,"x_max":739,"o":"m 436 -19 l 422 -19 q 206 69 294 -19 q 118 293 118 158 l 118 1042 l 164 1042 l 164 294 q 240 99 164 176 q 429 21 317 21 q 617 98 542 21 q 693 294 693 175 l 693 1042 l 739 1042 l 739 296 q 651 70 739 160 q 436 -19 563 -19 m 303 1311 l 360 1311 l 554 1151 l 496 1151 l 303 1311 z "},"Ú":{"ha":857,"x_min":118,"x_max":739,"o":"m 436 -19 l 422 -19 q 206 69 294 -19 q 118 293 118 158 l 118 1042 l 164 1042 l 164 294 q 240 99 164 176 q 429 21 317 21 q 617 98 542 21 q 693 294 693 175 l 693 1042 l 739 1042 l 739 296 q 651 70 739 160 q 436 -19 563 -19 m 497 1311 l 554 1311 l 361 1151 l 303 1151 l 497 1311 z "},"Û":{"ha":857,"x_min":118,"x_max":739,"o":"m 436 -19 l 422 -19 q 206 69 294 -19 q 118 293 118 158 l 118 1042 l 164 1042 l 164 294 q 240 99 164 176 q 429 21 317 21 q 617 98 542 21 q 693 294 693 175 l 693 1042 l 739 1042 l 739 296 q 651 70 739 160 q 436 -19 563 -19 m 450 1311 l 633 1151 l 576 1151 l 428 1278 l 281 1151 l 222 1151 l 408 1311 l 450 1311 z "},"Ü":{"ha":857,"x_min":118,"x_max":739,"o":"m 436 -19 l 422 -19 q 206 69 294 -19 q 118 293 118 158 l 118 1042 l 164 1042 l 164 294 q 240 99 164 176 q 429 21 317 21 q 617 98 542 21 q 693 294 693 175 l 693 1042 l 739 1042 l 739 296 q 651 70 739 160 q 436 -19 563 -19 m 356 1192 q 335 1192 356 1192 q 315 1229 315 1192 q 356 1267 315 1267 q 396 1229 396 1267 q 356 1192 396 1192 m 502 1192 q 483 1192 502 1192 q 464 1229 464 1192 q 502 1267 464 1267 q 540 1229 540 1267 q 502 1192 540 1192 z "},"Ý":{"ha":756,"x_min":42,"x_max":714,"o":"m 404 0 l 358 0 l 358 417 l 42 1042 l 92 1042 l 385 465 l 672 1042 l 714 1042 l 404 417 l 404 0 m 446 1311 l 503 1311 l 310 1151 l 251 1151 l 446 1311 z "},"Þ":{"ha":569,"x_min":104,"x_max":500,"o":"m 104 0 l 104 1040 l 149 1040 l 149 876 l 161 876 q 398 777 296 876 q 500 543 500 678 q 394 310 500 408 q 161 213 289 213 l 149 213 l 149 0 l 104 0 m 149 836 l 149 253 l 161 253 q 367 338 278 253 q 456 542 456 422 q 367 749 456 661 q 161 836 278 836 l 149 836 z "},"ß":{"ha":794,"x_min":104,"x_max":739,"o":"m 301 982 q 342 982 301 982 q 441 925 383 982 q 499 783 499 868 q 421 633 499 699 q 647 535 554 628 q 739 309 739 442 q 643 81 739 176 q 413 -14 547 -14 q 281 14 347 -14 l 281 61 q 413 26 344 26 q 613 110 528 26 q 697 310 697 194 q 613 510 697 426 q 413 593 529 593 l 300 593 l 300 633 q 408 680 363 633 q 454 788 454 726 q 408 896 454 850 q 301 942 363 942 q 194 896 240 942 q 149 788 149 850 l 149 0 l 104 0 l 104 788 q 162 925 104 868 q 301 982 219 982 z "},"à":{"ha":818,"x_min":63,"x_max":721,"o":"m 721 625 l 721 0 l 676 0 l 676 156 q 560 31 638 76 q 393 -15 482 -15 q 160 81 257 -15 q 63 313 63 178 q 160 544 63 447 q 393 640 257 640 q 563 593 482 640 q 676 468 644 546 l 676 625 l 721 625 m 107 311 q 107 253 107 311 q 192 109 107 194 q 395 24 278 24 q 596 109 513 24 q 679 312 679 194 q 595 515 679 429 q 394 601 511 601 q 192 515 278 601 q 107 311 107 428 m 283 894 l 340 894 l 535 735 l 476 735 l 283 894 z "},"á":{"ha":818,"x_min":63,"x_max":721,"o":"m 721 625 l 721 0 l 676 0 l 676 156 q 560 31 638 76 q 393 -15 482 -15 q 160 81 257 -15 q 63 313 63 178 q 160 544 63 447 q 393 640 257 640 q 563 593 482 640 q 676 468 644 546 l 676 625 l 721 625 m 107 311 q 107 253 107 311 q 192 109 107 194 q 395 24 278 24 q 596 109 513 24 q 679 312 679 194 q 595 515 679 429 q 394 601 511 601 q 192 515 278 601 q 107 311 107 428 m 478 894 l 535 894 l 342 735 l 283 735 l 478 894 z "},"â":{"ha":818,"x_min":63,"x_max":721,"o":"m 721 625 l 721 0 l 676 0 l 676 156 q 560 31 638 76 q 393 -15 482 -15 q 160 81 257 -15 q 63 313 63 178 q 160 544 63 447 q 393 640 257 640 q 563 593 482 640 q 676 468 644 546 l 676 625 l 721 625 m 107 311 q 107 253 107 311 q 192 109 107 194 q 395 24 278 24 q 596 109 513 24 q 679 312 679 194 q 595 515 679 429 q 394 601 511 601 q 192 515 278 601 q 107 311 107 428 m 431 894 l 614 735 l 557 735 l 408 861 l 261 735 l 203 735 l 389 894 l 431 894 z "},"ã":{"ha":818,"x_min":63,"x_max":721,"o":"m 721 625 l 721 0 l 676 0 l 676 156 q 560 31 638 76 q 393 -15 482 -15 q 160 81 257 -15 q 63 313 63 178 q 160 544 63 447 q 393 640 257 640 q 563 593 482 640 q 676 468 644 546 l 676 625 l 721 625 m 107 311 q 107 253 107 311 q 192 109 107 194 q 395 24 278 24 q 596 109 513 24 q 679 312 679 194 q 595 515 679 429 q 394 601 511 601 q 192 515 278 601 q 107 311 107 428 m 521 760 q 412 798 481 760 q 301 835 343 836 q 215 761 260 835 l 172 761 q 304 872 226 872 l 317 872 q 421 835 358 872 q 522 799 483 799 q 603 867 560 799 l 646 867 q 521 760 581 760 z "},"ä":{"ha":818,"x_min":63,"x_max":721,"o":"m 721 625 l 721 0 l 676 0 l 676 156 q 560 31 638 76 q 393 -15 482 -15 q 160 81 257 -15 q 63 313 63 178 q 160 544 63 447 q 393 640 257 640 q 563 593 482 640 q 676 468 644 546 l 676 625 l 721 625 m 107 311 q 107 253 107 311 q 192 109 107 194 q 395 24 278 24 q 596 109 513 24 q 679 312 679 194 q 595 515 679 429 q 394 601 511 601 q 192 515 278 601 q 107 311 107 428 m 336 775 q 316 775 336 775 q 296 813 296 775 q 336 850 296 850 q 376 813 376 850 q 336 775 376 775 m 483 775 q 464 775 483 775 q 444 813 444 775 q 483 850 444 850 q 521 813 521 850 q 483 775 521 775 z "},"å":{"ha":818,"x_min":63,"x_max":721,"o":"m 721 625 l 721 0 l 676 0 l 676 156 q 560 31 638 76 q 393 -15 482 -15 q 160 81 257 -15 q 63 313 63 178 q 160 544 63 447 q 393 640 257 640 q 563 593 482 640 q 676 468 644 546 l 676 625 l 721 625 m 107 311 q 107 253 107 311 q 192 109 107 194 q 395 24 278 24 q 596 109 513 24 q 679 312 679 194 q 595 515 679 429 q 394 601 511 601 q 192 515 278 601 q 107 311 107 428 m 411 711 l 406 711 q 334 742 364 711 q 304 816 304 774 q 335 889 304 858 q 409 919 365 919 q 483 889 453 919 q 514 816 514 858 q 483 742 514 774 q 411 711 453 711 m 478 815 q 478 830 478 815 q 458 865 478 844 q 409 886 438 886 q 360 865 381 886 q 339 815 339 843 q 360 766 339 788 q 409 744 381 744 q 458 765 438 744 q 478 815 478 786 z "},"æ":{"ha":1294,"x_min":56,"x_max":1246,"o":"m 1003 -15 l 982 -15 q 822 32 896 -15 q 706 156 749 79 l 706 0 l 669 0 l 669 146 q 549 28 625 71 q 386 -15 472 -15 q 153 81 250 -15 q 56 313 56 178 q 153 544 56 447 q 386 640 250 640 q 549 597 472 640 q 669 479 625 554 l 669 625 l 706 625 l 706 471 q 825 594 749 547 q 993 640 901 640 q 1246 526 1143 640 l 810 96 q 983 24 900 24 q 1133 62 1067 24 q 1242 164 1199 100 l 1242 93 q 1003 -15 1143 -15 m 100 311 q 100 253 100 311 q 185 109 100 194 q 388 24 271 24 q 589 109 506 24 q 672 312 672 194 q 588 515 672 429 q 388 601 504 601 q 185 515 271 601 q 100 311 100 428 m 988 601 q 932 601 988 601 q 791 516 876 601 q 706 320 706 431 q 781 125 706 210 l 1185 526 q 988 601 1099 601 z "},"ç":{"ha":689,"x_min":63,"x_max":640,"o":"m 332 -104 l 332 -12 q 140 101 217 7 q 63 320 63 196 q 160 541 63 444 q 399 638 257 638 q 640 531 540 638 l 640 460 q 531 561 597 524 q 393 599 465 599 q 192 513 278 599 q 107 310 107 428 q 192 106 107 192 q 393 21 278 21 q 531 58 465 21 q 640 161 597 96 l 640 89 q 400 -18 543 -18 l 388 -18 q 367 -17 371 -18 l 367 -68 l 381 -68 q 456 -99 425 -68 q 488 -171 488 -129 l 488 -176 q 457 -248 488 -218 q 381 -278 426 -278 l 332 -278 l 332 -243 l 381 -243 q 433 -223 413 -243 q 454 -174 454 -203 q 433 -124 454 -144 q 381 -104 413 -104 l 332 -104 z "},"è":{"ha":715,"x_min":69,"x_max":653,"o":"m 410 -17 l 397 -17 q 167 83 265 -17 q 69 314 69 182 q 167 542 69 446 q 407 639 264 639 q 653 525 550 639 l 217 94 q 390 22 307 22 q 540 60 474 22 q 649 163 606 99 l 649 92 q 410 -17 550 -17 m 395 600 q 340 600 395 600 q 199 515 285 600 q 114 318 114 429 q 188 124 114 207 l 592 525 q 395 600 506 600 m 232 894 l 289 894 l 483 735 l 425 735 l 232 894 z "},"é":{"ha":715,"x_min":69,"x_max":653,"o":"m 410 -17 l 397 -17 q 167 83 265 -17 q 69 314 69 182 q 167 542 69 446 q 407 639 264 639 q 653 525 550 639 l 217 94 q 390 22 307 22 q 540 60 474 22 q 649 163 606 99 l 649 92 q 410 -17 550 -17 m 395 600 q 340 600 395 600 q 199 515 285 600 q 114 318 114 429 q 188 124 114 207 l 592 525 q 395 600 506 600 m 426 894 l 483 894 l 290 735 l 232 735 l 426 894 z "},"ê":{"ha":715,"x_min":69,"x_max":653,"o":"m 410 -17 l 397 -17 q 167 83 265 -17 q 69 314 69 182 q 167 542 69 446 q 407 639 264 639 q 653 525 550 639 l 217 94 q 390 22 307 22 q 540 60 474 22 q 649 163 606 99 l 649 92 q 410 -17 550 -17 m 395 600 q 340 600 395 600 q 199 515 285 600 q 114 318 114 429 q 188 124 114 207 l 592 525 q 395 600 506 600 m 379 894 l 563 735 l 506 735 l 357 861 l 210 735 l 151 735 l 338 894 l 379 894 z "},"ë":{"ha":715,"x_min":69,"x_max":653,"o":"m 410 -17 l 397 -17 q 167 83 265 -17 q 69 314 69 182 q 167 542 69 446 q 407 639 264 639 q 653 525 550 639 l 217 94 q 390 22 307 22 q 540 60 474 22 q 649 163 606 99 l 649 92 q 410 -17 550 -17 m 395 600 q 340 600 395 600 q 199 515 285 600 q 114 318 114 429 q 188 124 114 207 l 592 525 q 395 600 506 600 m 285 775 q 265 775 285 775 q 244 813 244 775 q 285 850 244 850 q 325 813 325 850 q 285 775 325 775 m 431 775 q 412 775 431 775 q 393 813 393 775 q 431 850 393 850 q 469 813 469 850 q 431 775 469 775 z "},"ì":{"ha":275,"x_min":13,"x_max":264,"o":"m 160 624 l 160 0 l 115 0 l 115 624 l 160 624 m 13 894 l 69 894 l 264 735 l 206 735 l 13 894 z "},"í":{"ha":275,"x_min":13,"x_max":264,"o":"m 160 624 l 160 0 l 115 0 l 115 624 l 160 624 m 207 894 l 264 894 l 71 735 l 13 735 l 207 894 z "},"î":{"ha":275,"x_min":-68,"x_max":343,"o":"m 160 624 l 160 0 l 115 0 l 115 624 l 160 624 m 160 894 l 343 735 l 286 735 l 138 861 l -10 735 l -68 735 l 118 894 l 160 894 z "},"ï":{"ha":275,"x_min":25,"x_max":250,"o":"m 160 624 l 160 0 l 115 0 l 115 624 l 160 624 m 65 775 q 45 775 65 775 q 25 813 25 775 q 65 850 25 850 q 106 813 106 850 q 65 775 106 775 m 212 775 q 193 775 212 775 q 174 813 174 775 q 212 850 174 850 q 250 813 250 850 q 212 775 250 775 z "},"ð":{"ha":793,"x_min":76,"x_max":738,"o":"m 738 422 l 738 317 q 642 83 738 185 q 418 -18 547 -18 l 397 -18 q 170 81 264 -18 q 76 312 76 179 q 173 541 76 444 q 407 638 269 638 q 575 590 496 638 q 694 460 654 543 l 694 472 q 406 806 694 690 l 149 700 l 149 740 l 353 826 l 149 911 l 149 951 l 403 847 l 639 947 l 639 904 l 454 826 q 566 770 522 797 q 653 697 610 743 q 738 422 738 607 m 121 309 q 121 250 121 309 q 204 106 121 192 q 405 21 288 21 q 608 106 522 21 q 693 308 693 192 q 608 512 693 425 q 406 599 522 599 q 205 513 289 599 q 121 309 121 426 z "},"ñ":{"ha":756,"x_min":97,"x_max":658,"o":"m 142 0 l 97 0 l 97 625 l 142 625 l 142 499 q 383 640 213 640 q 579 560 500 640 q 658 364 658 479 l 658 0 l 614 0 l 614 364 q 547 531 614 460 q 383 601 479 601 q 215 531 288 601 q 142 364 142 460 l 142 0 m 489 760 q 380 798 449 760 q 269 835 311 836 q 183 761 228 835 l 140 761 q 272 872 194 872 l 285 872 q 389 835 326 872 q 490 799 451 799 q 571 867 528 799 l 614 867 q 489 760 549 760 z "},"ò":{"ha":786,"x_min":63,"x_max":724,"o":"m 388 -15 q 158 84 254 -15 q 63 315 63 183 q 160 544 63 447 q 394 640 257 640 q 627 544 531 640 q 724 315 724 447 q 629 83 724 182 q 400 -15 535 -15 l 388 -15 m 679 312 q 679 370 679 312 q 595 515 679 429 q 394 601 511 601 q 192 515 278 601 q 107 311 107 428 q 192 109 107 194 q 395 24 278 24 q 596 109 513 24 q 679 312 679 194 m 267 894 l 324 894 l 518 735 l 460 735 l 267 894 z "},"ó":{"ha":786,"x_min":63,"x_max":724,"o":"m 388 -15 q 158 84 254 -15 q 63 315 63 183 q 160 544 63 447 q 394 640 257 640 q 627 544 531 640 q 724 315 724 447 q 629 83 724 182 q 400 -15 535 -15 l 388 -15 m 679 312 q 679 370 679 312 q 595 515 679 429 q 394 601 511 601 q 192 515 278 601 q 107 311 107 428 q 192 109 107 194 q 395 24 278 24 q 596 109 513 24 q 679 312 679 194 m 461 894 l 518 894 l 325 735 l 267 735 l 461 894 z "},"ô":{"ha":786,"x_min":63,"x_max":724,"o":"m 388 -15 q 158 84 254 -15 q 63 315 63 183 q 160 544 63 447 q 394 640 257 640 q 627 544 531 640 q 724 315 724 447 q 629 83 724 182 q 400 -15 535 -15 l 388 -15 m 679 312 q 679 370 679 312 q 595 515 679 429 q 394 601 511 601 q 192 515 278 601 q 107 311 107 428 q 192 109 107 194 q 395 24 278 24 q 596 109 513 24 q 679 312 679 194 m 415 894 l 599 735 l 542 735 l 393 861 l 246 735 l 188 735 l 374 894 l 415 894 z "},"õ":{"ha":786,"x_min":63,"x_max":724,"o":"m 388 -15 q 158 84 254 -15 q 63 315 63 183 q 160 544 63 447 q 394 640 257 640 q 627 544 531 640 q 724 315 724 447 q 629 83 724 182 q 400 -15 535 -15 l 388 -15 m 679 312 q 679 370 679 312 q 595 515 679 429 q 394 601 511 601 q 192 515 278 601 q 107 311 107 428 q 192 109 107 194 q 395 24 278 24 q 596 109 513 24 q 679 312 679 194 m 504 760 q 395 798 464 760 q 285 835 326 836 q 199 761 243 835 l 156 761 q 288 872 210 872 l 300 872 q 404 835 342 872 q 505 799 467 799 q 586 867 543 799 l 629 867 q 504 760 564 760 z "},"ö":{"ha":786,"x_min":63,"x_max":724,"o":"m 388 -15 q 158 84 254 -15 q 63 315 63 183 q 160 544 63 447 q 394 640 257 640 q 627 544 531 640 q 724 315 724 447 q 629 83 724 182 q 400 -15 535 -15 l 388 -15 m 679 312 q 679 370 679 312 q 595 515 679 429 q 394 601 511 601 q 192 515 278 601 q 107 311 107 428 q 192 109 107 194 q 395 24 278 24 q 596 109 513 24 q 679 312 679 194 m 321 775 q 301 775 321 775 q 281 813 281 775 q 321 850 281 850 q 361 813 361 850 q 321 775 361 775 m 467 775 q 448 775 467 775 q 429 813 429 775 q 467 850 429 850 q 506 813 506 850 q 467 775 506 775 z "},"÷":{"ha":640,"x_min":104,"x_max":536,"o":"m 536 538 l 104 538 l 104 581 l 536 581 l 536 538 m 324 354 q 300 354 324 354 q 276 397 276 354 q 324 440 276 440 q 372 397 372 440 q 324 354 372 354 m 324 688 q 300 688 324 688 q 276 731 276 688 q 324 774 276 774 q 372 731 372 774 q 324 688 372 688 z "},"ø":{"ha":772,"x_min":56,"x_max":717,"o":"m 600 561 q 717 322 717 461 q 623 83 717 182 q 396 -15 529 -15 l 375 -15 q 207 36 281 -15 l 181 0 l 129 0 l 175 61 q 56 303 56 160 q 153 544 56 447 q 386 640 250 640 q 567 588 485 640 l 594 625 l 649 625 l 600 561 m 386 601 q 185 515 271 601 q 100 306 100 428 q 200 94 100 183 l 542 554 q 386 601 469 601 m 386 24 q 589 109 506 24 q 672 317 672 194 q 575 528 672 440 l 233 69 q 386 24 303 24 z "},"ù":{"ha":728,"x_min":83,"x_max":644,"o":"m 600 625 l 644 625 l 644 0 l 600 0 l 600 126 q 358 -15 529 -15 q 163 65 242 -15 q 83 261 83 146 l 83 625 l 128 625 l 128 261 q 195 94 128 165 q 358 24 263 24 q 527 94 454 24 q 600 261 600 165 l 600 625 m 238 894 l 294 894 l 489 735 l 431 735 l 238 894 z "},"ú":{"ha":728,"x_min":83,"x_max":644,"o":"m 600 625 l 644 625 l 644 0 l 600 0 l 600 126 q 358 -15 529 -15 q 163 65 242 -15 q 83 261 83 146 l 83 625 l 128 625 l 128 261 q 195 94 128 165 q 358 24 263 24 q 527 94 454 24 q 600 261 600 165 l 600 625 m 432 894 l 489 894 l 296 735 l 238 735 l 432 894 z "},"û":{"ha":728,"x_min":83,"x_max":644,"o":"m 600 625 l 644 625 l 644 0 l 600 0 l 600 126 q 358 -15 529 -15 q 163 65 242 -15 q 83 261 83 146 l 83 625 l 128 625 l 128 261 q 195 94 128 165 q 358 24 263 24 q 527 94 454 24 q 600 261 600 165 l 600 625 m 386 894 l 569 735 l 513 735 l 364 861 l 217 735 l 158 735 l 344 894 l 386 894 z "},"ü":{"ha":728,"x_min":83,"x_max":644,"o":"m 600 625 l 644 625 l 644 0 l 600 0 l 600 126 q 358 -15 529 -15 q 163 65 242 -15 q 83 261 83 146 l 83 625 l 128 625 l 128 261 q 195 94 128 165 q 358 24 263 24 q 527 94 454 24 q 600 261 600 165 l 600 625 m 292 775 q 272 775 292 775 q 251 813 251 775 q 292 850 251 850 q 332 813 332 850 q 292 775 332 775 m 438 775 q 419 775 438 775 q 400 813 400 775 q 438 850 400 850 q 476 813 476 850 q 438 775 476 775 z "},"ý":{"ha":728,"x_min":83,"x_max":644,"o":"m 600 625 l 644 625 l 644 19 q 558 -190 644 -104 q 347 -276 472 -276 q 110 -161 197 -276 l 113 -92 q 215 -198 151 -158 q 347 -237 278 -237 q 525 -163 450 -237 q 600 15 600 -89 l 600 121 q 363 -15 532 -15 q 165 66 247 -15 q 83 261 83 147 l 83 625 l 128 625 l 128 261 q 198 94 128 165 q 364 24 268 24 q 530 94 460 24 q 600 261 600 165 l 600 625 m 432 894 l 489 894 l 296 735 l 238 735 l 432 894 z "},"þ":{"ha":818,"x_min":104,"x_max":763,"o":"m 104 -278 l 104 874 l 149 874 l 149 479 q 272 596 194 553 q 432 639 349 639 q 666 542 569 639 q 763 311 763 446 q 666 80 763 176 q 432 -17 569 -17 q 271 26 347 -17 q 149 143 194 69 l 149 -278 l 104 -278 m 718 311 q 718 370 718 311 q 635 515 718 429 q 434 600 551 600 q 231 515 317 600 q 146 311 146 429 q 231 108 146 193 q 434 22 317 22 q 635 108 551 22 q 718 311 718 193 z "},"ÿ":{"ha":728,"x_min":83,"x_max":644,"o":"m 600 625 l 644 625 l 644 19 q 558 -190 644 -104 q 347 -276 472 -276 q 110 -161 197 -276 l 113 -92 q 215 -198 151 -158 q 347 -237 278 -237 q 525 -163 450 -237 q 600 15 600 -89 l 600 121 q 363 -15 532 -15 q 165 66 247 -15 q 83 261 83 147 l 83 625 l 128 625 l 128 261 q 198 94 128 165 q 364 24 268 24 q 530 94 460 24 q 600 261 600 165 l 600 625 m 292 775 q 272 775 292 775 q 251 813 251 775 q 292 850 251 850 q 332 813 332 850 q 292 775 332 775 m 438 775 q 419 775 438 775 q 400 813 400 775 q 438 850 400 850 q 476 813 476 850 q 438 775 476 775 z "},"Ā":{"ha":1096,"x_min":28,"x_max":1068,"o":"m 547 1067 l 1068 0 l 1019 0 l 822 397 l 265 397 l 71 0 l 28 0 l 547 1067 m 543 971 l 283 438 l 806 438 l 543 971 z "},"ā":{"ha":790,"x_min":49,"x_max":707,"o":"m 707 625 l 707 0 l 663 0 l 663 156 q 546 31 624 76 q 379 -15 468 -15 q 146 81 243 -15 q 49 313 49 178 q 146 544 49 447 q 379 640 243 640 q 549 593 468 640 q 663 468 631 546 l 663 625 l 707 625 m 93 311 q 93 253 93 311 q 178 109 93 194 q 381 24 264 24 q 582 109 499 24 q 665 312 665 194 q 581 515 665 429 q 381 601 497 601 q 178 515 264 601 q 93 311 93 428 m 532 786 l 258 786 l 258 825 l 532 825 l 532 786 z "},"Ă":{"ha":1096,"x_min":28,"x_max":1068,"o":"m 547 1067 l 1068 0 l 1019 0 l 822 397 l 265 397 l 71 0 l 28 0 l 547 1067 m 543 971 l 283 438 l 806 438 l 543 971 m 414 1311 q 457 1223 417 1261 q 547 1185 497 1185 q 635 1223 596 1185 q 681 1311 675 1261 l 721 1311 q 669 1198 718 1246 q 553 1150 619 1150 l 542 1150 q 426 1197 475 1150 q 375 1311 378 1244 l 414 1311 z "},"ă":{"ha":790,"x_min":49,"x_max":707,"o":"m 707 625 l 707 0 l 663 0 l 663 156 q 546 31 624 76 q 379 -15 468 -15 q 146 81 243 -15 q 49 313 49 178 q 146 544 49 447 q 379 640 243 640 q 549 593 468 640 q 663 468 631 546 l 663 625 l 707 625 m 93 311 q 93 253 93 311 q 178 109 93 194 q 381 24 264 24 q 582 109 499 24 q 665 312 665 194 q 581 515 665 429 q 381 601 497 601 q 178 515 264 601 q 93 311 93 428 m 261 894 q 304 806 264 844 q 394 768 344 768 q 483 806 443 768 q 528 894 522 844 l 568 894 q 516 781 565 829 q 400 733 467 733 l 389 733 q 274 781 322 733 q 222 894 225 828 l 261 894 z "},"Ą":{"ha":1096,"x_min":28,"x_max":1068,"o":"m 1019 -243 l 1068 -243 l 1068 -278 l 1013 -278 q 938 -250 967 -278 q 908 -181 908 -222 l 908 -171 l 1019 0 l 822 397 l 265 397 l 71 0 l 28 0 l 547 1067 l 1068 0 l 957 -174 q 973 -224 957 -204 q 1019 -243 989 -243 m 543 971 l 283 438 l 806 438 l 543 971 z "},"ą":{"ha":790,"x_min":49,"x_max":707,"o":"m 707 625 l 707 0 l 706 0 l 585 -174 q 603 -223 585 -203 q 654 -243 622 -243 l 707 -243 l 707 -278 l 651 -278 q 576 -250 606 -278 q 547 -181 547 -222 l 547 -171 l 667 0 l 663 0 l 663 156 q 546 31 624 76 q 379 -15 468 -15 q 146 81 243 -15 q 49 313 49 178 q 146 544 49 447 q 379 640 243 640 q 549 593 468 640 q 663 468 631 546 l 663 625 l 707 625 m 93 311 q 93 253 93 311 q 178 109 93 194 q 381 24 264 24 q 582 109 499 24 q 665 312 665 194 q 581 515 665 429 q 381 601 497 601 q 178 515 264 601 q 93 311 93 428 z "},"Ć":{"ha":969,"x_min":63,"x_max":886,"o":"m 611 -15 l 596 -15 q 329 60 453 -15 q 134 259 206 135 q 63 524 63 383 q 222 903 63 744 q 604 1063 382 1063 q 886 985 753 1063 l 886 933 q 604 1022 756 1022 q 254 876 400 1022 q 108 524 108 729 q 254 172 108 319 q 604 25 400 25 q 886 114 756 25 l 886 63 q 611 -15 760 -15 m 671 1311 l 728 1311 l 535 1151 l 476 1151 l 671 1311 z "},"ć":{"ha":661,"x_min":49,"x_max":626,"o":"m 386 -18 l 374 -18 q 144 81 240 -18 q 49 312 49 179 q 146 541 49 444 q 385 638 243 638 q 626 531 526 638 l 626 460 q 517 561 583 524 q 379 599 451 599 q 178 513 264 599 q 93 310 93 428 q 178 106 93 192 q 379 21 264 21 q 517 58 451 21 q 626 161 583 96 l 626 89 q 386 -18 529 -18 m 399 894 l 456 894 l 263 735 l 204 735 l 399 894 z "},"Ĉ":{"ha":969,"x_min":63,"x_max":886,"o":"m 611 -15 l 596 -15 q 329 60 453 -15 q 134 259 206 135 q 63 524 63 383 q 222 903 63 744 q 604 1063 382 1063 q 886 985 753 1063 l 886 933 q 604 1022 756 1022 q 254 876 400 1022 q 108 524 108 729 q 254 172 108 319 q 604 25 400 25 q 886 114 756 25 l 886 63 q 611 -15 760 -15 m 628 1311 l 811 1151 l 754 1151 l 606 1278 l 458 1151 l 400 1151 l 586 1311 l 628 1311 z "},"ĉ":{"ha":661,"x_min":49,"x_max":626,"o":"m 386 -18 l 374 -18 q 144 81 240 -18 q 49 312 49 179 q 146 541 49 444 q 385 638 243 638 q 626 531 526 638 l 626 460 q 517 561 583 524 q 379 599 451 599 q 178 513 264 599 q 93 310 93 428 q 178 106 93 192 q 379 21 264 21 q 517 58 451 21 q 626 161 583 96 l 626 89 q 386 -18 529 -18 m 407 894 l 590 735 l 533 735 l 385 861 l 238 735 l 179 735 l 365 894 l 407 894 z "},"Ċ":{"ha":969,"x_min":63,"x_max":886,"o":"m 611 -15 l 596 -15 q 329 60 453 -15 q 134 259 206 135 q 63 524 63 383 q 222 903 63 744 q 604 1063 382 1063 q 886 985 753 1063 l 886 933 q 604 1022 756 1022 q 254 876 400 1022 q 108 524 108 729 q 254 172 108 319 q 604 25 400 25 q 886 114 756 25 l 886 63 q 611 -15 760 -15 m 610 1193 q 590 1193 610 1193 q 569 1231 569 1193 q 610 1268 569 1268 q 650 1231 650 1268 q 610 1193 650 1193 z "},"ċ":{"ha":661,"x_min":49,"x_max":626,"o":"m 386 -18 l 374 -18 q 144 81 240 -18 q 49 312 49 179 q 146 541 49 444 q 385 638 243 638 q 626 531 526 638 l 626 460 q 517 561 583 524 q 379 599 451 599 q 178 513 264 599 q 93 310 93 428 q 178 106 93 192 q 379 21 264 21 q 517 58 451 21 q 626 161 583 96 l 626 89 q 386 -18 529 -18 m 375 776 q 355 776 375 776 q 335 814 335 776 q 375 851 335 851 q 415 814 415 851 q 375 776 415 776 z "},"Č":{"ha":969,"x_min":63,"x_max":886,"o":"m 611 -15 l 596 -15 q 329 60 453 -15 q 134 259 206 135 q 63 524 63 383 q 222 903 63 744 q 604 1063 382 1063 q 886 985 753 1063 l 886 933 q 604 1022 756 1022 q 254 876 400 1022 q 108 524 108 729 q 254 172 108 319 q 604 25 400 25 q 886 114 756 25 l 886 63 q 611 -15 760 -15 m 807 1311 l 624 1151 l 582 1151 l 396 1311 l 454 1311 l 601 1185 l 750 1311 l 807 1311 z "},"č":{"ha":661,"x_min":49,"x_max":626,"o":"m 386 -18 l 374 -18 q 144 81 240 -18 q 49 312 49 179 q 146 541 49 444 q 385 638 243 638 q 626 531 526 638 l 626 460 q 517 561 583 524 q 379 599 451 599 q 178 513 264 599 q 93 310 93 428 q 178 106 93 192 q 379 21 264 21 q 517 58 451 21 q 626 161 583 96 l 626 89 q 386 -18 529 -18 m 590 894 l 407 735 l 365 735 l 179 894 l 238 894 l 385 768 l 533 894 l 590 894 z "},"Ď":{"ha":731,"x_min":79,"x_max":668,"o":"m 104 1042 l 149 1042 q 525 888 382 1042 q 668 520 668 735 q 526 153 668 306 q 149 0 383 0 l 104 0 l 104 1042 m 160 1000 l 149 1000 l 149 43 l 160 43 q 492 183 363 43 q 622 520 622 324 q 492 858 622 717 q 160 1000 363 1000 m 490 1311 l 307 1151 l 265 1151 l 79 1311 l 138 1311 l 285 1185 l 433 1311 l 490 1311 z "},"ď":{"ha":896,"x_min":49,"x_max":872,"o":"m 707 1042 l 707 0 l 663 0 l 663 151 q 542 30 621 75 q 379 -15 463 -15 q 145 81 242 -15 q 49 313 49 178 q 145 544 49 447 q 379 640 242 640 q 545 594 465 640 q 663 472 625 549 l 663 1042 l 707 1042 m 93 312 q 93 253 93 312 q 176 109 93 194 q 377 24 260 24 q 580 109 494 24 q 665 311 665 194 q 580 515 665 428 q 378 601 494 601 q 177 515 261 601 q 93 312 93 429 m 819 879 l 819 957 q 776 1000 776 957 q 824 1043 776 1043 q 872 1000 872 1043 q 868 978 872 990 l 825 879 l 819 879 z "},"Đ":{"ha":731,"x_min":21,"x_max":668,"o":"m 104 1042 l 149 1042 q 525 888 382 1042 q 668 520 668 735 q 526 153 668 306 q 149 0 383 0 l 104 0 l 104 501 l 21 501 l 21 542 l 104 542 l 104 1042 m 160 1000 l 149 1000 l 149 542 l 321 542 l 321 501 l 149 501 l 149 43 l 160 43 q 492 183 363 43 q 622 520 622 324 q 492 858 622 717 q 160 1000 363 1000 z "},"đ":{"ha":826,"x_min":49,"x_max":800,"o":"m 707 1042 l 707 826 l 800 826 l 800 786 l 707 786 l 707 0 l 663 0 l 663 151 q 542 30 621 75 q 379 -15 463 -15 q 145 81 242 -15 q 49 313 49 178 q 145 544 49 447 q 379 640 242 640 q 545 594 465 640 q 663 472 625 549 l 663 786 l 500 786 l 500 826 l 663 826 l 663 1042 l 707 1042 m 93 312 q 93 253 93 312 q 176 109 93 194 q 377 24 260 24 q 580 109 494 24 q 665 311 665 194 q 580 515 665 428 q 378 601 494 601 q 177 515 261 601 q 93 312 93 429 z "},"Ē":{"ha":513,"x_min":104,"x_max":478,"o":"m 104 1042 l 478 1042 l 478 1001 l 150 1001 l 150 435 l 424 435 l 424 394 l 150 394 l 150 40 l 478 40 l 478 0 l 104 0 l 104 1042 z "},"ē":{"ha":688,"x_min":56,"x_max":639,"o":"m 396 -17 l 383 -17 q 153 83 251 -17 q 56 314 56 182 q 153 542 56 446 q 393 639 250 639 q 639 525 536 639 l 203 94 q 376 22 293 22 q 526 60 460 22 q 635 163 592 99 l 635 92 q 396 -17 536 -17 m 381 600 q 326 600 381 600 q 185 515 271 600 q 100 318 100 429 q 174 124 100 207 l 578 525 q 381 600 492 600 m 481 786 l 207 786 l 207 825 l 481 825 l 481 786 z "},"Ĕ":{"ha":513,"x_min":104,"x_max":478,"o":"m 104 1042 l 478 1042 l 478 1001 l 150 1001 l 150 435 l 424 435 l 424 394 l 150 394 l 150 40 l 478 40 l 478 0 l 104 0 l 104 1042 m 158 1311 q 201 1223 161 1261 q 291 1185 242 1185 q 380 1223 340 1185 q 425 1311 419 1261 l 465 1311 q 413 1198 463 1246 q 297 1150 364 1150 l 286 1150 q 171 1197 219 1150 q 119 1311 122 1244 l 158 1311 z "},"ĕ":{"ha":688,"x_min":56,"x_max":639,"o":"m 396 -17 l 383 -17 q 153 83 251 -17 q 56 314 56 182 q 153 542 56 446 q 393 639 250 639 q 639 525 536 639 l 203 94 q 376 22 293 22 q 526 60 460 22 q 635 163 592 99 l 635 92 q 396 -17 536 -17 m 381 600 q 326 600 381 600 q 185 515 271 600 q 100 318 100 429 q 174 124 100 207 l 578 525 q 381 600 492 600 m 210 894 q 253 806 213 844 q 342 768 293 768 q 431 806 392 768 q 476 894 471 844 l 517 894 q 465 781 514 829 q 349 733 415 733 l 338 733 q 222 781 271 733 q 171 894 174 828 l 210 894 z "},"Ė":{"ha":513,"x_min":104,"x_max":478,"o":"m 104 1042 l 478 1042 l 478 1001 l 150 1001 l 150 435 l 424 435 l 424 394 l 150 394 l 150 40 l 478 40 l 478 0 l 104 0 l 104 1042 m 296 1193 q 276 1193 296 1193 q 256 1231 256 1193 q 296 1268 256 1268 q 336 1231 336 1268 q 296 1193 336 1193 z "},"ė":{"ha":688,"x_min":56,"x_max":639,"o":"m 396 -17 l 383 -17 q 153 83 251 -17 q 56 314 56 182 q 153 542 56 446 q 393 639 250 639 q 639 525 536 639 l 203 94 q 376 22 293 22 q 526 60 460 22 q 635 163 592 99 l 635 92 q 396 -17 536 -17 m 381 600 q 326 600 381 600 q 185 515 271 600 q 100 318 100 429 q 174 124 100 207 l 578 525 q 381 600 492 600 m 343 776 q 323 776 343 776 q 303 814 303 776 q 343 851 303 851 q 383 814 383 851 q 343 776 383 776 z "},"Ę":{"ha":513,"x_min":104,"x_max":478,"o":"m 104 1042 l 478 1042 l 478 1001 l 150 1001 l 150 435 l 424 435 l 424 394 l 150 394 l 150 40 l 476 40 l 476 0 l 356 -174 q 374 -223 356 -203 q 425 -243 393 -243 l 478 -243 l 478 -278 l 422 -278 q 347 -250 376 -278 q 318 -181 318 -222 l 318 -171 l 438 0 l 104 0 l 104 1042 z "},"ę":{"ha":688,"x_min":56,"x_max":639,"o":"m 403 -17 l 383 -17 q 153 83 251 -17 q 56 314 56 182 q 153 542 56 446 q 393 639 250 639 q 639 525 536 639 l 203 94 q 376 22 293 22 q 526 60 460 22 q 635 163 592 99 l 635 92 q 444 -12 556 3 l 333 -174 q 352 -223 333 -203 q 403 -243 371 -243 l 456 -243 l 456 -278 l 400 -278 q 325 -250 354 -278 q 296 -181 296 -222 l 296 -171 l 403 -17 m 381 600 q 326 600 381 600 q 185 515 271 600 q 100 318 100 429 q 174 124 100 207 l 578 525 q 381 600 492 600 z "},"Ě":{"ha":513,"x_min":88,"x_max":499,"o":"m 104 1042 l 478 1042 l 478 1001 l 150 1001 l 150 435 l 424 435 l 424 394 l 150 394 l 150 40 l 478 40 l 478 0 l 104 0 l 104 1042 m 499 1311 l 315 1151 l 274 1151 l 88 1311 l 146 1311 l 293 1185 l 442 1311 l 499 1311 z "},"ě":{"ha":688,"x_min":56,"x_max":639,"o":"m 396 -17 l 383 -17 q 153 83 251 -17 q 56 314 56 182 q 153 542 56 446 q 393 639 250 639 q 639 525 536 639 l 203 94 q 376 22 293 22 q 526 60 460 22 q 635 163 592 99 l 635 92 q 396 -17 536 -17 m 381 600 q 326 600 381 600 q 185 515 271 600 q 100 318 100 429 q 174 124 100 207 l 578 525 q 381 600 492 600 m 549 894 l 365 735 l 324 735 l 138 894 l 196 894 l 343 768 l 492 894 l 549 894 z "},"Ĝ":{"ha":963,"x_min":63,"x_max":886,"o":"m 496 397 l 496 438 l 886 438 l 886 61 q 611 -15 764 -15 l 596 -15 q 329 60 453 -15 q 134 259 206 135 q 63 524 63 383 q 222 903 63 744 q 604 1063 382 1063 q 886 985 753 1063 l 886 933 q 604 1022 756 1022 q 254 876 400 1022 q 108 524 108 729 q 254 172 108 319 q 604 25 400 25 q 840 83 718 25 l 840 397 l 496 397 m 625 1311 l 808 1151 l 751 1151 l 603 1278 l 456 1151 l 397 1151 l 583 1311 l 625 1311 z "},"ĝ":{"ha":792,"x_min":49,"x_max":708,"o":"m 664 625 l 708 625 l 708 58 q 619 -196 708 -103 q 386 -289 531 -289 q 232 -253 307 -289 q 115 -158 157 -217 l 115 -94 q 228 -206 151 -161 q 386 -250 306 -250 q 586 -167 508 -250 q 664 58 664 -85 l 664 151 q 546 29 626 75 q 379 -17 465 -17 q 146 80 243 -17 q 49 311 49 176 q 146 542 49 446 q 379 639 243 639 q 548 594 469 639 q 664 469 626 549 l 664 625 m 93 311 q 93 252 93 311 q 178 108 93 193 q 381 22 264 22 q 582 108 499 22 q 665 311 665 193 q 582 515 665 429 q 381 600 499 600 q 178 515 264 600 q 93 311 93 429 m 418 894 l 601 735 l 544 735 l 396 861 l 249 735 l 190 735 l 376 894 l 418 894 z "},"Ğ":{"ha":963,"x_min":63,"x_max":886,"o":"m 496 397 l 496 438 l 886 438 l 886 61 q 611 -15 764 -15 l 596 -15 q 329 60 453 -15 q 134 259 206 135 q 63 524 63 383 q 222 903 63 744 q 604 1063 382 1063 q 886 985 753 1063 l 886 933 q 604 1022 756 1022 q 254 876 400 1022 q 108 524 108 729 q 254 172 108 319 q 604 25 400 25 q 840 83 718 25 l 840 397 l 496 397 m 474 1311 q 517 1223 476 1261 q 606 1185 557 1185 q 695 1223 656 1185 q 740 1311 735 1261 l 781 1311 q 728 1198 778 1246 q 613 1150 679 1150 l 601 1150 q 486 1197 535 1150 q 435 1311 438 1244 l 474 1311 z "},"ğ":{"ha":792,"x_min":49,"x_max":708,"o":"m 664 625 l 708 625 l 708 58 q 619 -196 708 -103 q 386 -289 531 -289 q 232 -253 307 -289 q 115 -158 157 -217 l 115 -94 q 228 -206 151 -161 q 386 -250 306 -250 q 586 -167 508 -250 q 664 58 664 -85 l 664 151 q 546 29 626 75 q 379 -17 465 -17 q 146 80 243 -17 q 49 311 49 176 q 146 542 49 446 q 379 639 243 639 q 548 594 469 639 q 664 469 626 549 l 664 625 m 93 311 q 93 252 93 311 q 178 108 93 193 q 381 22 264 22 q 582 108 499 22 q 665 311 665 193 q 582 515 665 429 q 381 600 499 600 q 178 515 264 600 q 93 311 93 429 m 261 894 q 304 806 264 844 q 394 768 344 768 q 483 806 443 768 q 528 894 522 844 l 568 894 q 516 781 565 829 q 400 733 467 733 l 389 733 q 274 781 322 733 q 222 894 225 828 l 261 894 z "},"Ġ":{"ha":963,"x_min":63,"x_max":886,"o":"m 496 397 l 496 438 l 886 438 l 886 61 q 611 -15 764 -15 l 596 -15 q 329 60 453 -15 q 134 259 206 135 q 63 524 63 383 q 222 903 63 744 q 604 1063 382 1063 q 886 985 753 1063 l 886 933 q 604 1022 756 1022 q 254 876 400 1022 q 108 524 108 729 q 254 172 108 319 q 604 25 400 25 q 840 83 718 25 l 840 397 l 496 397 m 604 1193 q 584 1193 604 1193 q 564 1231 564 1193 q 604 1268 564 1268 q 644 1231 644 1268 q 604 1193 644 1193 z "},"ġ":{"ha":792,"x_min":49,"x_max":708,"o":"m 664 625 l 708 625 l 708 58 q 619 -196 708 -103 q 386 -289 531 -289 q 232 -253 307 -289 q 115 -158 157 -217 l 115 -94 q 228 -206 151 -161 q 386 -250 306 -250 q 586 -167 508 -250 q 664 58 664 -85 l 664 151 q 546 29 626 75 q 379 -17 465 -17 q 146 80 243 -17 q 49 311 49 176 q 146 542 49 446 q 379 639 243 639 q 548 594 469 639 q 664 469 626 549 l 664 625 m 93 311 q 93 252 93 311 q 178 108 93 193 q 381 22 264 22 q 582 108 499 22 q 665 311 665 193 q 582 515 665 429 q 381 600 499 600 q 178 515 264 600 q 93 311 93 429 m 396 776 q 376 776 396 776 q 356 814 356 776 q 396 851 356 851 q 436 814 436 851 q 396 776 436 776 z "},"Ģ":{"ha":963,"x_min":63,"x_max":886,"o":"m 496 397 l 496 438 l 886 438 l 886 61 q 611 -15 764 -15 l 596 -15 q 329 60 453 -15 q 134 259 206 135 q 63 524 63 383 q 222 903 63 744 q 604 1063 382 1063 q 886 985 753 1063 l 886 933 q 604 1022 756 1022 q 254 876 400 1022 q 108 524 108 729 q 254 172 108 319 q 604 25 400 25 q 840 83 718 25 l 840 397 l 496 397 m 596 -271 l 596 -193 q 553 -150 553 -193 q 601 -107 553 -107 q 649 -150 649 -107 q 644 -172 649 -160 l 601 -271 l 596 -271 z "},"ģ":{"ha":792,"x_min":49,"x_max":708,"o":"m 379 800 l 379 735 l 329 735 l 329 800 q 365 912 329 865 q 461 976 401 958 l 461 928 q 379 800 379 890 m 664 625 l 708 625 l 708 58 q 619 -196 708 -103 q 386 -289 531 -289 q 232 -253 307 -289 q 115 -158 157 -217 l 115 -94 q 228 -206 151 -161 q 386 -250 306 -250 q 586 -167 508 -250 q 664 58 664 -85 l 664 151 q 546 29 626 75 q 379 -17 465 -17 q 146 80 243 -17 q 49 311 49 176 q 146 542 49 446 q 379 639 243 639 q 548 594 469 639 q 664 469 626 549 l 664 625 m 93 311 q 93 252 93 311 q 178 108 93 193 q 381 22 264 22 q 582 108 499 22 q 665 311 665 193 q 582 515 665 429 q 381 600 499 600 q 178 515 264 600 q 93 311 93 429 z "},"Ĥ":{"ha":1014,"x_min":104,"x_max":910,"o":"m 864 1042 l 910 1042 l 910 0 l 864 0 l 864 397 l 150 397 l 150 0 l 104 0 l 104 1042 l 150 1042 l 150 438 l 864 438 l 864 1042 m 529 1311 l 713 1151 l 656 1151 l 507 1278 l 360 1151 l 301 1151 l 488 1311 l 529 1311 z "},"ĥ":{"ha":714,"x_min":83,"x_max":644,"o":"m 128 0 l 83 0 l 83 1040 l 128 1040 l 128 504 q 368 640 197 640 q 565 560 485 640 q 644 364 644 479 l 644 0 l 600 0 l 600 364 q 532 531 600 461 q 368 601 464 601 q 200 531 272 601 q 128 364 128 460 l 128 0 m 406 894 l 589 735 l 532 735 l 383 861 l 236 735 l 178 735 l 364 894 l 406 894 z "},"Ħ":{"ha":1014,"x_min":28,"x_max":988,"o":"m 864 1042 l 910 1042 l 910 775 l 988 775 l 988 735 l 910 735 l 910 0 l 864 0 l 864 397 l 150 397 l 150 0 l 104 0 l 104 735 l 28 735 l 28 775 l 104 775 l 104 1042 l 150 1042 l 150 775 l 864 775 l 864 1042 m 150 438 l 864 438 l 864 735 l 150 735 l 150 438 z "},"ħ":{"ha":732,"x_min":21,"x_max":658,"o":"m 142 0 l 97 0 l 97 807 l 21 807 l 21 847 l 97 847 l 97 1040 l 142 1040 l 142 847 l 321 847 l 321 807 l 142 807 l 142 504 q 382 640 211 640 q 578 560 499 640 q 658 364 658 479 l 658 0 l 614 0 l 614 364 q 546 531 614 461 q 382 601 478 601 q 214 531 286 601 q 142 364 142 460 l 142 0 z "},"Ĩ":{"ha":268,"x_min":-103,"x_max":371,"o":"m 111 1042 l 157 1042 l 157 0 l 111 0 l 111 1042 m 246 1176 q 137 1215 206 1176 q 26 1252 68 1253 q -60 1178 -15 1251 l -103 1178 q 29 1289 -49 1289 l 42 1289 q 146 1252 83 1289 q 247 1215 208 1215 q 328 1283 285 1215 l 371 1283 q 246 1176 306 1176 z "},"ĩ":{"ha":247,"x_min":-112,"x_max":361,"o":"m 146 624 l 146 0 l 101 0 l 101 624 l 146 624 m 236 760 q 127 798 196 760 q 17 835 58 836 q -69 761 -25 835 l -112 761 q 19 872 -58 872 l 32 872 q 136 835 74 872 q 237 799 199 799 q 318 867 275 799 l 361 867 q 236 760 296 760 z "},"Ī":{"ha":268,"x_min":0,"x_max":274,"o":"m 111 1042 l 157 1042 l 157 0 l 111 0 l 111 1042 m 274 1203 l 0 1203 l 0 1242 l 274 1242 l 274 1203 z "},"ī":{"ha":247,"x_min":-12,"x_max":261,"o":"m 146 624 l 146 0 l 101 0 l 101 624 l 146 624 m 261 786 l -12 786 l -12 825 l 261 825 l 261 786 z "},"Ĭ":{"ha":268,"x_min":-39,"x_max":307,"o":"m 111 1042 l 157 1042 l 157 0 l 111 0 l 111 1042 m 0 1311 q 43 1223 3 1261 q 133 1185 83 1185 q 222 1223 182 1185 q 267 1311 261 1261 l 307 1311 q 255 1198 304 1246 q 139 1150 206 1150 l 128 1150 q 13 1197 61 1150 q -39 1311 -36 1244 l 0 1311 z "},"ĭ":{"ha":247,"x_min":-49,"x_max":297,"o":"m 146 624 l 146 0 l 101 0 l 101 624 l 146 624 m -10 894 q 33 806 -7 844 q 123 768 74 768 q 212 806 172 768 q 257 894 251 844 l 297 894 q 245 781 294 829 q 129 733 196 733 l 118 733 q 3 781 51 733 q -49 894 -46 828 l -10 894 z "},"Į":{"ha":268,"x_min":-3,"x_max":157,"o":"m 111 1042 l 157 1042 l 157 0 l 156 0 l 35 -174 q 53 -223 35 -203 q 104 -243 72 -243 l 157 -243 l 157 -278 l 101 -278 q 26 -250 56 -278 q -3 -181 -3 -222 l -3 -171 l 117 0 l 111 0 l 111 1042 z "},"į":{"ha":247,"x_min":-11,"x_max":164,"o":"m 96 -243 l 149 -243 l 149 -278 l 93 -278 q 18 -250 47 -278 q -11 -181 -11 -222 l -11 -171 l 108 0 l 101 0 l 101 624 l 146 624 l 146 0 l 147 0 l 26 -174 q 45 -223 26 -203 q 96 -243 64 -243 m 124 776 q 103 776 124 776 q 83 814 83 776 q 124 851 83 851 q 164 814 164 851 q 124 776 164 776 z "},"İ":{"ha":268,"x_min":93,"x_max":174,"o":"m 111 1042 l 157 1042 l 157 0 l 111 0 l 111 1042 m 133 1193 q 113 1193 133 1193 q 93 1231 93 1193 q 133 1268 93 1268 q 174 1231 174 1268 q 133 1193 174 1193 z "},"ı":{"ha":247,"x_min":101,"x_max":146,"o":"m 146 624 l 146 0 l 101 0 l 101 624 l 146 624 z "},"Ĵ":{"ha":649,"x_min":28,"x_max":603,"o":"m 242 1001 l 242 1042 l 544 1042 l 544 319 q 462 74 544 168 q 246 -21 379 -21 l 232 -21 q 28 58 121 -21 l 28 115 q 238 19 115 19 q 429 102 360 19 q 499 314 499 185 l 499 1001 l 242 1001 m 419 1311 l 603 1151 l 546 1151 l 397 1278 l 250 1151 l 192 1151 l 378 1311 l 419 1311 z "},"ĵ":{"ha":336,"x_min":-7,"x_max":411,"o":"m -7 -275 l -7 -236 q 132 -181 75 -236 q 189 -40 189 -125 l 189 625 l 233 625 l 233 -40 q 163 -209 233 -143 q -7 -275 93 -275 m 228 894 l 411 735 l 354 735 l 206 861 l 58 735 l 0 735 l 186 894 l 228 894 z "},"Ķ":{"ha":794,"x_min":104,"x_max":767,"o":"m 104 1042 l 149 1042 l 149 660 l 589 1042 l 644 1042 l 168 626 l 767 0 l 706 0 l 150 579 l 150 0 l 104 0 l 104 1042 m 392 -271 l 392 -193 q 349 -150 349 -193 q 397 -107 349 -107 q 444 -150 444 -107 q 440 -172 444 -160 l 397 -271 l 392 -271 z "},"ķ":{"ha":539,"x_min":83,"x_max":504,"o":"m 83 1039 l 128 1039 l 128 408 l 375 625 l 432 625 l 146 375 l 504 0 l 444 0 l 128 329 l 128 0 l 83 0 l 83 1039 m 264 -271 l 264 -193 q 221 -150 221 -193 q 269 -107 221 -107 q 317 -150 317 -107 q 313 -172 317 -160 l 269 -271 l 264 -271 z "},"Ĺ":{"ha":500,"x_min":26,"x_max":472,"o":"m 150 1042 l 150 40 l 472 40 l 472 0 l 104 0 l 104 1042 l 150 1042 m 221 1311 l 278 1311 l 85 1151 l 26 1151 l 221 1311 z "},"ĺ":{"ha":349,"x_min":25,"x_max":321,"o":"m 321 26 l 321 -12 q 153 53 222 -12 q 83 222 83 119 l 83 1042 l 128 1042 l 128 222 q 184 82 128 138 q 321 26 240 26 m 219 1306 l 276 1306 l 83 1146 l 25 1146 l 219 1306 z "},"Ļ":{"ha":500,"x_min":104,"x_max":472,"o":"m 150 1042 l 150 40 l 472 40 l 472 0 l 104 0 l 104 1042 l 150 1042 m 244 -271 l 244 -193 q 201 -150 201 -193 q 249 -107 201 -107 q 297 -150 297 -107 q 293 -172 297 -160 l 250 -271 l 244 -271 z "},"ļ":{"ha":349,"x_min":83,"x_max":321,"o":"m 321 26 l 321 -12 q 153 53 222 -12 q 83 222 83 119 l 83 1042 l 128 1042 l 128 222 q 184 82 128 138 q 321 26 240 26 m 192 -271 l 192 -193 q 149 -150 149 -193 q 197 -107 149 -107 q 244 -150 244 -107 q 240 -172 244 -160 l 197 -271 l 192 -271 z "},"Ľ":{"ha":500,"x_min":104,"x_max":472,"o":"m 150 1042 l 150 40 l 472 40 l 472 0 l 104 0 l 104 1042 l 150 1042 m 350 876 l 350 954 q 307 997 307 954 q 355 1040 307 1040 q 403 997 403 1040 q 399 975 403 988 l 356 876 l 350 876 z "},"ľ":{"ha":368,"x_min":83,"x_max":347,"o":"m 321 26 l 321 -12 q 153 53 222 -12 q 83 222 83 119 l 83 1042 l 128 1042 l 128 222 q 184 82 128 138 q 321 26 240 26 m 294 878 l 294 956 q 251 999 251 956 q 299 1042 251 1042 q 347 999 347 1042 q 343 976 347 989 l 300 878 l 294 878 z "},"Ŀ":{"ha":500,"x_min":104,"x_max":472,"o":"m 150 1042 l 150 40 l 472 40 l 472 0 l 104 0 l 104 1042 l 150 1042 m 394 510 q 373 510 394 510 q 351 553 351 510 q 394 596 351 596 q 438 553 438 596 q 394 510 438 510 z "},"ŀ":{"ha":401,"x_min":83,"x_max":339,"o":"m 321 26 l 321 -12 q 153 53 222 -12 q 83 222 83 119 l 83 1042 l 128 1042 l 128 222 q 184 82 128 138 q 321 26 240 26 m 296 363 q 274 363 296 363 q 253 406 253 363 q 296 449 253 449 q 339 406 339 449 q 296 363 339 363 z "},"Ł":{"ha":500,"x_min":11,"x_max":472,"o":"m 150 1042 l 150 446 l 317 613 l 344 585 l 150 390 l 150 40 l 472 40 l 472 0 l 104 0 l 104 344 l 39 279 l 11 307 l 104 400 l 104 1042 l 150 1042 z "},"ł":{"ha":392,"x_min":11,"x_max":361,"o":"m 361 26 l 361 -12 q 193 53 263 -12 q 124 222 124 119 l 124 364 l 39 279 l 11 307 l 124 419 l 124 1042 l 168 1042 l 168 464 l 317 613 l 344 585 l 168 408 l 168 222 q 224 82 168 138 q 361 26 281 26 z "},"Ń":{"ha":1015,"x_min":104,"x_max":911,"o":"m 871 1042 l 911 1042 l 911 -15 l 144 928 l 144 0 l 104 0 l 104 1057 l 871 115 l 871 1042 m 576 1311 l 633 1311 l 440 1151 l 382 1151 l 576 1311 z "},"ń":{"ha":728,"x_min":83,"x_max":644,"o":"m 128 0 l 83 0 l 83 625 l 128 625 l 128 499 q 369 640 199 640 q 565 560 486 640 q 644 364 644 479 l 644 0 l 600 0 l 600 364 q 533 531 600 460 q 369 601 465 601 q 201 531 274 601 q 128 364 128 460 l 128 0 m 432 894 l 489 894 l 296 735 l 238 735 l 432 894 z "},"Ņ":{"ha":1015,"x_min":104,"x_max":911,"o":"m 871 1042 l 911 1042 l 911 -15 l 144 928 l 144 0 l 104 0 l 104 1057 l 871 115 l 871 1042 m 503 -271 l 503 -193 q 460 -150 460 -193 q 508 -107 460 -107 q 556 -150 556 -107 q 551 -172 556 -160 l 508 -271 l 503 -271 z "},"ņ":{"ha":728,"x_min":83,"x_max":644,"o":"m 128 0 l 83 0 l 83 625 l 128 625 l 128 499 q 369 640 199 640 q 565 560 486 640 q 644 364 644 479 l 644 0 l 600 0 l 600 364 q 533 531 600 460 q 369 601 465 601 q 201 531 274 601 q 128 364 128 460 l 128 0 m 358 -271 l 358 -193 q 315 -150 315 -193 q 363 -107 315 -107 q 411 -150 411 -107 q 407 -172 411 -160 l 364 -271 l 358 -271 z "},"Ň":{"ha":1015,"x_min":104,"x_max":911,"o":"m 871 1042 l 911 1042 l 911 -15 l 144 928 l 144 0 l 104 0 l 104 1057 l 871 115 l 871 1042 m 713 1311 l 529 1151 l 488 1151 l 301 1311 l 360 1311 l 507 1185 l 656 1311 l 713 1311 z "},"ň":{"ha":728,"x_min":83,"x_max":644,"o":"m 128 0 l 83 0 l 83 625 l 128 625 l 128 499 q 369 640 199 640 q 565 560 486 640 q 644 364 644 479 l 644 0 l 600 0 l 600 364 q 533 531 600 460 q 369 601 465 601 q 201 531 274 601 q 128 364 128 460 l 128 0 m 569 894 l 386 735 l 344 735 l 158 894 l 217 894 l 364 768 l 513 894 l 569 894 z "},"ŉ":{"ha":728,"x_min":82,"x_max":644,"o":"m 128 0 l 83 0 l 83 625 l 128 625 l 128 499 q 369 640 199 640 q 565 560 486 640 q 644 364 644 479 l 644 0 l 600 0 l 600 364 q 533 531 600 460 q 369 601 465 601 q 201 531 274 601 q 128 364 128 460 l 128 0 m 125 735 l 125 813 q 82 856 82 813 q 130 899 82 899 q 178 856 178 899 q 174 833 178 846 l 131 735 l 125 735 z "},"Ō":{"ha":1208,"x_min":63,"x_max":1146,"o":"m 593 -18 q 220 144 378 -18 q 63 524 63 307 q 222 901 63 742 q 606 1060 382 1060 q 988 901 829 1060 q 1146 524 1146 743 q 989 144 1146 306 q 614 -18 832 -18 l 593 -18 m 1100 522 q 1100 624 1100 522 q 955 873 1100 726 q 605 1019 810 1019 q 254 873 400 1019 q 108 522 108 726 q 254 169 108 317 q 604 22 400 22 q 954 169 808 22 q 1100 522 1100 317 m 740 1203 l 467 1203 l 467 1242 l 740 1242 l 740 1203 z "},"ō":{"ha":758,"x_min":49,"x_max":710,"o":"m 374 -15 q 144 84 240 -15 q 49 315 49 183 q 146 544 49 447 q 380 640 243 640 q 613 544 517 640 q 710 315 710 447 q 615 83 710 182 q 386 -15 521 -15 l 374 -15 m 665 312 q 665 370 665 312 q 581 515 665 429 q 381 601 497 601 q 178 515 264 601 q 93 311 93 428 q 178 109 93 194 q 381 24 264 24 q 582 109 499 24 q 665 312 665 194 m 515 786 l 242 786 l 242 825 l 515 825 l 515 786 z "},"Ŏ":{"ha":1208,"x_min":63,"x_max":1146,"o":"m 593 -18 q 220 144 378 -18 q 63 524 63 307 q 222 901 63 742 q 606 1060 382 1060 q 988 901 829 1060 q 1146 524 1146 743 q 989 144 1146 306 q 614 -18 832 -18 l 593 -18 m 1100 522 q 1100 624 1100 522 q 955 873 1100 726 q 605 1019 810 1019 q 254 873 400 1019 q 108 522 108 726 q 254 169 108 317 q 604 22 400 22 q 954 169 808 22 q 1100 522 1100 317 m 469 1311 q 513 1223 472 1261 q 602 1185 553 1185 q 691 1223 651 1185 q 736 1311 731 1261 l 776 1311 q 724 1198 774 1246 q 608 1150 675 1150 l 597 1150 q 482 1197 531 1150 q 431 1311 433 1244 l 469 1311 z "},"ŏ":{"ha":758,"x_min":49,"x_max":710,"o":"m 374 -15 q 144 84 240 -15 q 49 315 49 183 q 146 544 49 447 q 380 640 243 640 q 613 544 517 640 q 710 315 710 447 q 615 83 710 182 q 386 -15 521 -15 l 374 -15 m 665 312 q 665 370 665 312 q 581 515 665 429 q 381 601 497 601 q 178 515 264 601 q 93 311 93 428 q 178 109 93 194 q 381 24 264 24 q 582 109 499 24 q 665 312 665 194 m 244 894 q 288 806 247 844 q 377 768 328 768 q 466 806 426 768 q 511 894 506 844 l 551 894 q 499 781 549 829 q 383 733 450 733 l 372 733 q 257 781 306 733 q 206 894 208 828 l 244 894 z "},"Ő":{"ha":1208,"x_min":63,"x_max":1146,"o":"m 593 -18 q 220 144 378 -18 q 63 524 63 307 q 222 901 63 742 q 606 1060 382 1060 q 988 901 829 1060 q 1146 524 1146 743 q 989 144 1146 306 q 614 -18 832 -18 l 593 -18 m 1100 522 q 1100 624 1100 522 q 955 873 1100 726 q 605 1019 810 1019 q 254 873 400 1019 q 108 522 108 726 q 254 169 108 317 q 604 22 400 22 q 954 169 808 22 q 1100 522 1100 317 m 588 1311 l 644 1311 l 451 1151 l 393 1151 l 588 1311 m 757 1311 l 814 1311 l 621 1151 l 563 1151 l 757 1311 z "},"ő":{"ha":758,"x_min":49,"x_max":710,"o":"m 374 -15 q 144 84 240 -15 q 49 315 49 183 q 146 544 49 447 q 380 640 243 640 q 613 544 517 640 q 710 315 710 447 q 615 83 710 182 q 386 -15 521 -15 l 374 -15 m 665 312 q 665 370 665 312 q 581 515 665 429 q 381 601 497 601 q 178 515 264 601 q 93 311 93 428 q 178 109 93 194 q 381 24 264 24 q 582 109 499 24 q 665 312 665 194 m 363 894 l 419 894 l 226 735 l 168 735 l 363 894 m 532 894 l 589 894 l 396 735 l 338 735 l 532 894 z "},"Œ":{"ha":1054,"x_min":69,"x_max":1006,"o":"m 1006 1001 l 678 1001 l 678 435 l 951 435 l 951 394 l 678 394 l 678 40 l 1006 40 l 1006 0 l 593 0 q 223 155 376 0 q 69 526 69 310 q 225 892 69 743 q 604 1042 381 1042 l 1006 1042 l 1006 1001 m 604 40 l 632 40 l 632 1001 l 604 1001 q 257 865 399 1001 q 115 524 115 728 q 258 180 115 319 q 604 40 400 40 z "},"œ":{"ha":1139,"x_min":76,"x_max":1090,"o":"m 417 -15 l 396 -15 q 172 84 267 -15 q 76 315 76 183 q 174 544 76 447 q 399 640 271 640 q 622 563 526 640 q 838 643 718 643 q 1090 529 988 643 l 656 97 q 828 26 744 26 q 977 65 911 26 q 1086 167 1043 103 l 1086 96 q 847 -12 988 -12 l 826 -12 q 624 65 713 -12 q 417 -15 535 -15 m 693 312 q 693 370 693 312 q 609 515 693 429 q 408 601 525 601 q 206 515 292 601 q 121 311 121 428 q 206 109 121 194 q 409 24 292 24 q 610 109 526 24 q 693 312 693 194 m 1029 529 q 838 604 943 604 q 651 532 733 604 q 738 313 738 438 q 725 224 738 265 l 1029 529 z "},"Ŕ":{"ha":565,"x_min":104,"x_max":524,"o":"m 104 1042 l 164 1042 q 401 942 299 1042 q 503 709 503 843 q 399 476 503 575 q 175 378 294 378 l 165 378 l 524 0 l 464 0 l 149 331 l 149 0 l 104 0 l 104 1042 m 149 418 l 174 418 q 372 504 286 418 q 458 708 458 590 q 369 914 458 826 q 167 1001 281 1001 l 149 1001 l 149 418 m 313 1311 l 369 1311 l 176 1151 l 118 1151 l 313 1311 z "},"ŕ":{"ha":483,"x_min":83,"x_max":449,"o":"m 449 540 q 314 601 388 601 q 184 546 240 601 q 128 417 128 490 l 128 0 l 83 0 l 83 625 l 128 625 l 128 532 q 206 610 153 579 q 324 640 258 640 q 449 596 389 640 l 449 540 m 349 894 l 406 894 l 213 735 l 154 735 l 349 894 z "},"Ŗ":{"ha":565,"x_min":104,"x_max":524,"o":"m 104 1042 l 164 1042 q 401 942 299 1042 q 503 709 503 843 q 399 476 503 575 q 175 378 294 378 l 165 378 l 524 0 l 464 0 l 149 331 l 149 0 l 104 0 l 104 1042 m 149 418 l 174 418 q 372 504 286 418 q 458 708 458 590 q 369 914 458 826 q 167 1001 281 1001 l 149 1001 l 149 418 m 278 -271 l 278 -193 q 235 -150 235 -193 q 283 -107 235 -107 q 331 -150 331 -107 q 326 -172 331 -160 l 283 -271 l 278 -271 z "},"ŗ":{"ha":483,"x_min":82,"x_max":449,"o":"m 449 540 q 314 601 388 601 q 184 546 240 601 q 128 417 128 490 l 128 0 l 83 0 l 83 625 l 128 625 l 128 532 q 206 610 153 579 q 324 640 258 640 q 449 596 389 640 l 449 540 m 125 -271 l 125 -193 q 82 -150 82 -193 q 130 -107 82 -107 q 178 -150 178 -107 q 174 -172 178 -160 l 131 -271 l 125 -271 z "},"Ř":{"ha":565,"x_min":54,"x_max":524,"o":"m 104 1042 l 164 1042 q 401 942 299 1042 q 503 709 503 843 q 399 476 503 575 q 175 378 294 378 l 165 378 l 524 0 l 464 0 l 149 331 l 149 0 l 104 0 l 104 1042 m 149 418 l 174 418 q 372 504 286 418 q 458 708 458 590 q 369 914 458 826 q 167 1001 281 1001 l 149 1001 l 149 418 m 465 1311 l 282 1151 l 240 1151 l 54 1311 l 113 1311 l 260 1185 l 408 1311 l 465 1311 z "},"ř":{"ha":483,"x_min":69,"x_max":481,"o":"m 449 540 q 314 601 388 601 q 184 546 240 601 q 128 417 128 490 l 128 0 l 83 0 l 83 625 l 128 625 l 128 532 q 206 610 153 579 q 324 640 258 640 q 449 596 389 640 l 449 540 m 481 894 l 297 735 l 256 735 l 69 894 l 128 894 l 275 768 l 424 894 l 481 894 z "},"Ś":{"ha":692,"x_min":56,"x_max":636,"o":"m 524 894 q 437 986 492 953 q 314 1019 382 1019 q 198 977 246 1019 q 150 861 150 935 l 150 854 q 247 694 150 767 q 341 634 289 664 q 445 570 393 604 q 540 498 497 536 q 609 404 582 460 q 636 282 636 349 l 636 268 q 547 58 636 136 q 325 -19 457 -19 q 56 124 151 -19 l 56 199 q 162 70 92 119 q 336 21 232 21 q 517 88 440 21 q 593 265 593 154 l 593 274 q 557 401 593 343 q 467 495 521 458 q 349 572 413 532 q 231 647 285 613 q 140 735 176 682 q 104 850 104 788 l 104 860 q 167 1008 104 957 q 321 1060 229 1060 q 524 965 449 1060 l 524 894 m 414 1311 l 471 1311 l 278 1151 l 219 1151 l 414 1311 z "},"ś":{"ha":478,"x_min":44,"x_max":429,"o":"m 219 603 q 156 579 183 603 q 128 521 128 556 q 159 457 128 486 q 234 403 190 428 q 322 351 278 379 q 398 281 367 324 q 429 182 429 238 q 367 42 429 100 q 218 -15 306 -15 q 115 9 163 -15 q 44 74 67 33 l 44 140 q 214 24 97 24 q 335 68 286 24 q 385 167 385 113 q 353 260 385 222 q 278 324 322 297 q 190 376 233 350 q 115 438 146 401 q 83 524 83 475 q 123 608 83 574 q 225 642 163 642 q 332 593 288 642 l 332 536 q 219 603 288 603 m 307 894 l 364 894 l 171 735 l 113 735 l 307 894 z "},"Ŝ":{"ha":692,"x_min":56,"x_max":636,"o":"m 524 894 q 437 986 492 953 q 314 1019 382 1019 q 198 977 246 1019 q 150 861 150 935 l 150 854 q 247 694 150 767 q 341 634 289 664 q 445 570 393 604 q 540 498 497 536 q 609 404 582 460 q 636 282 636 349 l 636 268 q 547 58 636 136 q 325 -19 457 -19 q 56 124 151 -19 l 56 199 q 162 70 92 119 q 336 21 232 21 q 517 88 440 21 q 593 265 593 154 l 593 274 q 557 401 593 343 q 467 495 521 458 q 349 572 413 532 q 231 647 285 613 q 140 735 176 682 q 104 850 104 788 l 104 860 q 167 1008 104 957 q 321 1060 229 1060 q 524 965 449 1060 l 524 894 m 368 1311 l 551 1151 l 494 1151 l 346 1278 l 199 1151 l 140 1151 l 326 1311 l 368 1311 z "},"ŝ":{"ha":478,"x_min":33,"x_max":444,"o":"m 219 603 q 156 579 183 603 q 128 521 128 556 q 159 457 128 486 q 234 403 190 428 q 322 351 278 379 q 398 281 367 324 q 429 182 429 238 q 367 42 429 100 q 218 -15 306 -15 q 115 9 163 -15 q 44 74 67 33 l 44 140 q 214 24 97 24 q 335 68 286 24 q 385 167 385 113 q 353 260 385 222 q 278 324 322 297 q 190 376 233 350 q 115 438 146 401 q 83 524 83 475 q 123 608 83 574 q 225 642 163 642 q 332 593 288 642 l 332 536 q 219 603 288 603 m 261 894 l 444 735 l 388 735 l 239 861 l 92 735 l 33 735 l 219 894 l 261 894 z "},"Ş":{"ha":692,"x_min":56,"x_max":636,"o":"m 290 -104 l 290 -18 q 56 124 138 -4 l 56 199 q 162 70 92 119 q 336 21 232 21 q 517 88 440 21 q 593 265 593 154 l 593 274 q 557 401 593 343 q 467 495 521 458 q 349 572 413 532 q 231 647 285 613 q 140 735 176 682 q 104 850 104 788 l 104 860 q 167 1008 104 957 q 321 1060 229 1060 q 524 965 449 1060 l 524 894 q 437 986 492 953 q 314 1019 382 1019 q 198 977 246 1019 q 150 861 150 935 l 150 854 q 247 694 150 767 q 341 634 289 664 q 445 570 393 604 q 540 498 497 536 q 609 404 582 460 q 636 282 636 349 l 636 268 q 547 58 636 136 q 325 -19 457 -19 l 325 -68 l 339 -68 q 415 -99 383 -68 q 446 -171 446 -129 l 446 -176 q 415 -248 446 -218 q 339 -278 385 -278 l 290 -278 l 290 -243 l 339 -243 q 392 -223 371 -243 q 413 -174 413 -203 q 392 -124 413 -144 q 339 -104 371 -104 l 290 -104 z "},"ş":{"ha":478,"x_min":44,"x_max":429,"o":"m 181 -104 l 181 -12 q 44 74 81 4 l 44 140 q 214 24 97 24 q 335 68 286 24 q 385 167 385 113 q 353 260 385 222 q 278 324 322 297 q 190 376 233 350 q 115 438 146 401 q 83 524 83 475 q 123 608 83 574 q 225 642 163 642 q 332 593 288 642 l 332 536 q 219 603 288 603 q 156 579 183 603 q 128 521 128 556 q 159 457 128 486 q 234 403 190 428 q 322 351 278 379 q 398 281 367 324 q 429 182 429 238 q 367 42 429 100 q 218 -15 306 -15 l 215 -15 l 215 -68 l 229 -68 q 305 -99 274 -68 q 336 -171 336 -129 l 336 -176 q 306 -248 336 -218 q 229 -278 275 -278 l 181 -278 l 181 -243 l 229 -243 q 282 -223 261 -243 q 303 -174 303 -203 q 282 -124 303 -144 q 229 -104 261 -104 l 181 -104 z "},"Š":{"ha":719,"x_min":69,"x_max":650,"o":"m 538 894 q 451 986 506 953 q 328 1019 396 1019 q 212 977 260 1019 q 164 861 164 935 l 164 854 q 261 694 164 767 q 355 634 303 664 q 459 570 407 604 q 553 498 511 536 q 623 404 596 460 q 650 282 650 349 l 650 268 q 560 58 650 136 q 339 -19 471 -19 q 69 124 165 -19 l 69 199 q 176 70 106 119 q 350 21 246 21 q 531 88 454 21 q 607 265 607 154 l 607 274 q 571 401 607 343 q 481 495 535 458 q 363 572 426 532 q 244 647 299 613 q 154 735 190 682 q 118 850 118 788 l 118 860 q 181 1008 118 957 q 335 1060 243 1060 q 538 965 463 1060 l 538 894 m 565 1311 l 382 1151 l 340 1151 l 154 1311 l 213 1311 l 360 1185 l 508 1311 l 565 1311 z "},"š":{"ha":506,"x_min":47,"x_max":458,"o":"m 233 603 q 169 579 197 603 q 142 521 142 556 q 173 457 142 486 q 248 403 204 428 q 336 351 292 379 q 412 281 381 324 q 443 182 443 238 q 381 42 443 100 q 232 -15 319 -15 q 128 9 176 -15 q 58 74 81 33 l 58 140 q 228 24 111 24 q 349 68 300 24 q 399 167 399 113 q 367 260 399 222 q 292 324 336 297 q 203 376 247 350 q 128 438 160 401 q 97 524 97 475 q 137 608 97 574 q 239 642 176 642 q 346 593 301 642 l 346 536 q 233 603 301 603 m 458 894 l 275 735 l 233 735 l 47 894 l 106 894 l 253 768 l 401 894 l 458 894 z "},"Ţ":{"ha":579,"x_min":28,"x_max":551,"o":"m 551 1042 l 551 1001 l 314 1001 l 314 0 l 268 0 l 268 1001 l 28 1001 l 28 1042 l 551 1042 m 285 -271 l 285 -193 q 242 -150 242 -193 q 290 -107 242 -107 q 338 -150 338 -107 q 333 -172 338 -160 l 290 -271 l 285 -271 z "},"ţ":{"ha":335,"x_min":69,"x_max":307,"o":"m 307 31 l 307 -8 q 139 58 208 -8 q 69 226 69 124 l 69 876 l 114 876 l 114 624 l 306 624 l 306 585 l 114 585 l 114 226 q 170 86 114 142 q 307 31 226 31 m 189 -271 l 189 -193 q 146 -150 146 -193 q 194 -107 146 -107 q 242 -150 242 -107 q 238 -172 242 -160 l 194 -271 l 189 -271 z "},"Ť":{"ha":579,"x_min":28,"x_max":551,"o":"m 551 1042 l 551 1001 l 314 1001 l 314 0 l 268 0 l 268 1001 l 28 1001 l 28 1042 l 551 1042 m 494 1311 l 311 1151 l 269 1151 l 83 1311 l 142 1311 l 289 1185 l 438 1311 l 494 1311 z "},"ť":{"ha":381,"x_min":69,"x_max":318,"o":"m 307 31 l 307 -8 q 139 58 208 -8 q 69 226 69 124 l 69 876 l 114 876 l 114 624 l 306 624 l 306 585 l 114 585 l 114 226 q 170 86 114 142 q 307 31 226 31 m 265 713 l 265 790 q 222 833 222 790 q 270 876 222 876 q 318 833 318 876 q 314 811 318 824 l 271 713 l 265 713 z "},"Ŧ":{"ha":579,"x_min":28,"x_max":551,"o":"m 551 1042 l 551 1001 l 314 1001 l 314 422 l 478 422 l 478 382 l 314 382 l 314 0 l 268 0 l 268 382 l 104 382 l 104 422 l 268 422 l 268 1001 l 28 1001 l 28 1042 l 551 1042 z "},"ŧ":{"ha":347,"x_min":14,"x_max":322,"o":"m 322 31 l 322 -8 q 154 58 224 -8 q 85 226 85 124 l 85 728 l 14 728 l 14 764 l 85 764 l 85 876 l 129 876 l 129 764 l 304 764 l 304 728 l 129 728 l 129 624 l 321 624 l 321 585 l 129 585 l 129 226 q 185 86 129 142 q 322 31 242 31 z "},"Ũ":{"ha":829,"x_min":104,"x_max":725,"o":"m 422 -19 l 408 -19 q 192 69 281 -19 q 104 293 104 158 l 104 1042 l 150 1042 l 150 294 q 226 99 150 176 q 415 21 303 21 q 603 98 528 21 q 679 294 679 175 l 679 1042 l 725 1042 l 725 296 q 637 70 725 160 q 422 -19 549 -19 m 526 1176 q 417 1215 486 1176 q 307 1252 349 1253 q 221 1178 265 1251 l 178 1178 q 310 1289 232 1289 l 322 1289 q 426 1252 364 1289 q 527 1215 489 1215 q 608 1283 565 1215 l 651 1283 q 526 1176 586 1176 z "},"ũ":{"ha":700,"x_min":69,"x_max":631,"o":"m 586 625 l 631 625 l 631 0 l 586 0 l 586 126 q 344 -15 515 -15 q 149 65 228 -15 q 69 261 69 146 l 69 625 l 114 625 l 114 261 q 181 94 114 165 q 344 24 249 24 q 513 94 440 24 q 586 261 586 165 l 586 625 m 461 760 q 352 798 421 760 q 242 835 283 836 q 156 761 200 835 l 113 761 q 244 872 167 872 l 257 872 q 361 835 299 872 q 462 799 424 799 q 543 867 500 799 l 586 867 q 461 760 521 760 z "},"Ū":{"ha":829,"x_min":104,"x_max":725,"o":"m 422 -19 l 408 -19 q 192 69 281 -19 q 104 293 104 158 l 104 1042 l 150 1042 l 150 294 q 226 99 150 176 q 415 21 303 21 q 603 98 528 21 q 679 294 679 175 l 679 1042 l 725 1042 l 725 296 q 637 70 725 160 q 422 -19 549 -19 m 551 1203 l 278 1203 l 278 1242 l 551 1242 l 551 1203 z "},"ū":{"ha":700,"x_min":69,"x_max":631,"o":"m 586 625 l 631 625 l 631 0 l 586 0 l 586 126 q 344 -15 515 -15 q 149 65 228 -15 q 69 261 69 146 l 69 625 l 114 625 l 114 261 q 181 94 114 165 q 344 24 249 24 q 513 94 440 24 q 586 261 586 165 l 586 625 m 486 786 l 213 786 l 213 825 l 486 825 l 486 786 z "},"Ŭ":{"ha":829,"x_min":104,"x_max":725,"o":"m 422 -19 l 408 -19 q 192 69 281 -19 q 104 293 104 158 l 104 1042 l 150 1042 l 150 294 q 226 99 150 176 q 415 21 303 21 q 603 98 528 21 q 679 294 679 175 l 679 1042 l 725 1042 l 725 296 q 637 70 725 160 q 422 -19 549 -19 m 281 1311 q 324 1223 283 1261 q 413 1185 364 1185 q 502 1223 463 1185 q 547 1311 542 1261 l 588 1311 q 535 1198 585 1246 q 419 1150 486 1150 l 408 1150 q 293 1197 342 1150 q 242 1311 244 1244 l 281 1311 z "},"ŭ":{"ha":700,"x_min":69,"x_max":631,"o":"m 586 625 l 631 625 l 631 0 l 586 0 l 586 126 q 344 -15 515 -15 q 149 65 228 -15 q 69 261 69 146 l 69 625 l 114 625 l 114 261 q 181 94 114 165 q 344 24 249 24 q 513 94 440 24 q 586 261 586 165 l 586 625 m 215 894 q 258 806 218 844 q 348 768 299 768 q 437 806 397 768 q 482 894 476 844 l 522 894 q 470 781 519 829 q 354 733 421 733 l 343 733 q 228 781 276 733 q 176 894 179 828 l 215 894 z "},"Ů":{"ha":829,"x_min":104,"x_max":725,"o":"m 422 -19 l 408 -19 q 192 69 281 -19 q 104 293 104 158 l 104 1042 l 150 1042 l 150 294 q 226 99 150 176 q 415 21 303 21 q 603 98 528 21 q 679 294 679 175 l 679 1042 l 725 1042 l 725 296 q 637 70 725 160 q 422 -19 549 -19 m 417 1128 l 411 1128 q 340 1159 369 1128 q 310 1233 310 1190 q 340 1306 310 1275 q 415 1336 371 1336 q 489 1306 458 1336 q 519 1233 519 1275 q 489 1159 519 1190 q 417 1128 458 1128 m 483 1232 q 483 1247 483 1232 q 463 1282 483 1261 q 415 1303 443 1303 q 365 1281 386 1303 q 344 1232 344 1260 q 365 1183 344 1204 q 415 1161 386 1161 q 463 1182 443 1161 q 483 1232 483 1203 z "},"ů":{"ha":700,"x_min":69,"x_max":631,"o":"m 586 625 l 631 625 l 631 0 l 586 0 l 586 126 q 344 -15 515 -15 q 149 65 228 -15 q 69 261 69 146 l 69 625 l 114 625 l 114 261 q 181 94 114 165 q 344 24 249 24 q 513 94 440 24 q 586 261 586 165 l 586 625 m 351 711 l 346 711 q 274 742 304 711 q 244 816 244 774 q 275 889 244 858 q 349 919 306 919 q 424 889 393 919 q 454 816 454 858 q 424 742 454 774 q 351 711 393 711 m 418 815 q 418 830 418 815 q 398 865 418 844 q 349 886 378 886 q 300 865 321 886 q 279 815 279 843 q 300 766 279 788 q 349 744 321 744 q 398 765 378 744 q 418 815 418 786 z "},"Ű":{"ha":829,"x_min":104,"x_max":725,"o":"m 422 -19 l 408 -19 q 192 69 281 -19 q 104 293 104 158 l 104 1042 l 150 1042 l 150 294 q 226 99 150 176 q 415 21 303 21 q 603 98 528 21 q 679 294 679 175 l 679 1042 l 725 1042 l 725 296 q 637 70 725 160 q 422 -19 549 -19 m 399 1311 l 456 1311 l 263 1151 l 204 1151 l 399 1311 m 568 1311 l 625 1311 l 432 1151 l 374 1151 l 568 1311 z "},"ű":{"ha":700,"x_min":69,"x_max":631,"o":"m 586 625 l 631 625 l 631 0 l 586 0 l 586 126 q 344 -15 515 -15 q 149 65 228 -15 q 69 261 69 146 l 69 625 l 114 625 l 114 261 q 181 94 114 165 q 344 24 249 24 q 513 94 440 24 q 586 261 586 165 l 586 625 m 333 894 l 390 894 l 197 735 l 139 735 l 333 894 m 503 894 l 560 894 l 367 735 l 308 735 l 503 894 z "},"Ų":{"ha":829,"x_min":104,"x_max":725,"o":"m 725 1042 l 725 296 q 647 81 725 169 q 454 -18 569 -7 l 346 -174 q 365 -223 346 -203 q 415 -243 383 -243 l 468 -243 l 468 -278 l 413 -278 q 338 -250 367 -278 q 308 -181 308 -222 l 308 -171 l 414 -19 l 408 -19 q 192 69 281 -19 q 104 293 104 158 l 104 1042 l 150 1042 l 150 294 q 226 99 150 176 q 415 21 303 21 q 603 98 528 21 q 679 294 679 175 l 679 1042 l 725 1042 z "},"ų":{"ha":700,"x_min":69,"x_max":631,"o":"m 586 625 l 631 625 l 631 0 l 629 0 l 508 -174 q 527 -223 508 -203 q 578 -243 546 -243 l 631 -243 l 631 -278 l 575 -278 q 500 -250 529 -278 q 471 -181 471 -222 l 471 -171 l 590 0 l 586 0 l 586 126 q 344 -15 515 -15 q 149 65 228 -15 q 69 261 69 146 l 69 625 l 114 625 l 114 261 q 181 94 114 165 q 344 24 249 24 q 513 94 440 24 q 586 261 586 165 l 586 625 z "},"Ŵ":{"ha":1421,"x_min":28,"x_max":1389,"o":"m 485 -18 l 28 1042 l 79 1042 l 492 88 l 685 539 l 469 1042 l 519 1042 l 713 585 l 911 1042 l 950 1042 l 733 540 l 931 83 l 1351 1042 l 1389 1042 l 926 -18 l 706 490 l 485 -18 m 732 1311 l 915 1151 l 858 1151 l 710 1278 l 563 1151 l 504 1151 l 690 1311 l 732 1311 z "},"ŵ":{"ha":950,"x_min":35,"x_max":915,"o":"m 35 625 l 81 625 l 338 79 l 458 333 l 324 622 l 368 622 l 481 376 l 596 625 l 638 625 l 501 333 l 621 76 l 875 624 l 915 624 l 619 -15 l 478 289 l 335 -15 l 35 625 m 497 894 l 681 735 l 624 735 l 475 861 l 328 735 l 269 735 l 456 894 l 497 894 z "},"Ŷ":{"ha":728,"x_min":28,"x_max":700,"o":"m 390 0 l 344 0 l 344 417 l 28 1042 l 78 1042 l 371 465 l 658 1042 l 700 1042 l 390 417 l 390 0 m 386 1311 l 569 1151 l 513 1151 l 364 1278 l 217 1151 l 158 1151 l 344 1311 l 386 1311 z "},"ŷ":{"ha":700,"x_min":69,"x_max":631,"o":"m 586 625 l 631 625 l 631 19 q 544 -190 631 -104 q 333 -276 458 -276 q 96 -161 183 -276 l 99 -92 q 201 -198 138 -158 q 333 -237 264 -237 q 511 -163 436 -237 q 586 15 586 -89 l 586 121 q 349 -15 518 -15 q 151 66 233 -15 q 69 261 69 147 l 69 625 l 114 625 l 114 261 q 184 94 114 165 q 350 24 254 24 q 516 94 446 24 q 586 261 586 165 l 586 625 m 372 894 l 556 735 l 499 735 l 350 861 l 203 735 l 144 735 l 331 894 l 372 894 z "},"Ÿ":{"ha":756,"x_min":42,"x_max":714,"o":"m 404 0 l 358 0 l 358 417 l 42 1042 l 92 1042 l 385 465 l 672 1042 l 714 1042 l 404 417 l 404 0 m 306 1192 q 285 1192 306 1192 q 265 1229 265 1192 q 306 1267 265 1267 q 346 1229 346 1267 q 306 1192 346 1192 m 452 1192 q 433 1192 452 1192 q 414 1229 414 1192 q 452 1267 414 1267 q 490 1229 490 1267 q 452 1192 490 1192 z "},"Ź":{"ha":593,"x_min":35,"x_max":563,"o":"m 558 40 l 558 0 l 35 0 l 493 1001 l 35 1001 l 35 1042 l 563 1042 l 103 40 l 558 40 m 365 1311 l 422 1311 l 229 1151 l 171 1151 l 365 1311 z "},"ź":{"ha":504,"x_min":35,"x_max":469,"o":"m 465 39 l 465 0 l 35 0 l 390 586 l 72 586 l 72 625 l 469 625 l 113 39 l 465 39 m 321 894 l 378 894 l 185 735 l 126 735 l 321 894 z "},"Ż":{"ha":593,"x_min":35,"x_max":563,"o":"m 558 40 l 558 0 l 35 0 l 493 1001 l 35 1001 l 35 1042 l 563 1042 l 103 40 l 558 40 m 296 1193 q 276 1193 296 1193 q 256 1231 256 1193 q 296 1268 256 1268 q 336 1231 336 1268 q 296 1193 336 1193 z "},"ż":{"ha":504,"x_min":35,"x_max":469,"o":"m 465 39 l 465 0 l 35 0 l 390 586 l 72 586 l 72 625 l 469 625 l 113 39 l 465 39 m 251 776 q 231 776 251 776 q 211 814 211 776 q 251 851 211 851 q 292 814 292 851 q 251 776 292 776 z "},"Ž":{"ha":621,"x_min":49,"x_max":576,"o":"m 572 40 l 572 0 l 49 0 l 507 1001 l 49 1001 l 49 1042 l 576 1042 l 117 40 l 572 40 m 515 1311 l 332 1151 l 290 1151 l 104 1311 l 163 1311 l 310 1185 l 458 1311 l 515 1311 z "},"ž":{"ha":532,"x_min":49,"x_max":483,"o":"m 479 39 l 479 0 l 49 0 l 404 586 l 86 586 l 86 625 l 483 625 l 126 39 l 479 39 m 471 894 l 288 735 l 246 735 l 60 894 l 118 894 l 265 768 l 414 894 l 471 894 z "},"ƒ":{"ha":503,"x_min":35,"x_max":468,"o":"m 35 -275 l 35 -236 q 173 -181 117 -236 q 229 -40 229 -125 l 229 586 l 92 586 l 92 625 l 229 625 l 229 806 q 299 974 229 908 q 468 1040 368 1040 l 468 1001 q 330 946 386 1001 q 274 806 274 890 l 274 625 l 424 625 l 424 586 l 275 586 l 275 -40 q 205 -209 275 -143 q 35 -275 135 -275 z "},"Ǽ":{"ha":960,"x_min":35,"x_max":925,"o":"m 925 1042 l 925 1001 l 597 1001 l 597 439 l 871 439 l 871 399 l 597 399 l 597 40 l 925 40 l 925 0 l 551 0 l 551 397 l 272 397 l 78 0 l 35 0 l 551 1042 l 925 1042 m 551 438 l 551 961 l 290 438 l 551 438 m 831 1311 l 888 1311 l 694 1151 l 636 1151 l 831 1311 z "},"ǽ":{"ha":1294,"x_min":56,"x_max":1246,"o":"m 1003 -15 l 982 -15 q 822 32 896 -15 q 706 156 749 79 l 706 0 l 669 0 l 669 146 q 549 28 625 71 q 386 -15 472 -15 q 153 81 250 -15 q 56 313 56 178 q 153 544 56 447 q 386 640 250 640 q 549 597 472 640 q 669 479 625 554 l 669 625 l 706 625 l 706 471 q 825 594 749 547 q 993 640 901 640 q 1246 526 1143 640 l 810 96 q 983 24 900 24 q 1133 62 1067 24 q 1242 164 1199 100 l 1242 93 q 1003 -15 1143 -15 m 100 311 q 100 253 100 311 q 185 109 100 194 q 388 24 271 24 q 589 109 506 24 q 672 312 672 194 q 588 515 672 429 q 388 601 504 601 q 185 515 271 601 q 100 311 100 428 m 988 601 q 932 601 988 601 q 791 516 876 601 q 706 320 706 431 q 781 125 706 210 l 1185 526 q 988 601 1099 601 m 715 894 l 772 894 l 579 735 l 521 735 l 715 894 z "},"Ǿ":{"ha":1208,"x_min":63,"x_max":1146,"o":"m 1146 521 q 989 144 1146 306 q 614 -18 832 -18 l 593 -18 q 299 76 432 -18 l 242 0 l 190 0 l 265 101 q 117 289 171 179 q 63 521 63 399 q 222 901 63 742 q 604 1060 382 1060 q 908 965 769 1060 l 964 1039 l 1018 1039 l 943 939 q 1092 753 1038 863 q 1146 521 1146 644 m 604 1019 q 254 873 400 1019 q 108 521 108 726 q 157 306 108 407 q 292 135 206 206 l 883 932 q 604 1019 756 1019 m 1100 521 q 918 906 1100 753 l 324 110 q 604 22 453 22 q 954 169 808 22 q 1100 521 1100 317 m 672 1311 l 729 1311 l 536 1151 l 478 1151 l 672 1311 z "},"ǿ":{"ha":758,"x_min":56,"x_max":717,"o":"m 600 561 q 717 322 717 461 q 623 83 717 182 q 396 -15 529 -15 l 375 -15 q 207 36 281 -15 l 181 0 l 129 0 l 175 61 q 56 303 56 160 q 153 544 56 447 q 386 640 250 640 q 567 588 485 640 l 594 625 l 649 625 l 600 561 m 386 601 q 185 515 271 601 q 100 306 100 428 q 200 94 100 183 l 542 554 q 386 601 469 601 m 386 24 q 589 109 506 24 q 672 317 672 194 q 575 528 672 440 l 233 69 q 386 24 303 24 m 447 894 l 504 894 l 311 735 l 253 735 l 447 894 z "},"Ș":{"ha":692,"x_min":56,"x_max":636,"o":"m 524 894 q 437 986 492 953 q 314 1019 382 1019 q 198 977 246 1019 q 150 861 150 935 l 150 854 q 247 694 150 767 q 341 634 289 664 q 445 570 393 604 q 540 498 497 536 q 609 404 582 460 q 636 282 636 349 l 636 268 q 547 58 636 136 q 325 -19 457 -19 q 56 124 151 -19 l 56 199 q 162 70 92 119 q 336 21 232 21 q 517 88 440 21 q 593 265 593 154 l 593 274 q 557 401 593 343 q 467 495 521 458 q 349 572 413 532 q 231 647 285 613 q 140 735 176 682 q 104 850 104 788 l 104 860 q 167 1008 104 957 q 321 1060 229 1060 q 524 965 449 1060 l 524 894 m 322 -271 l 322 -193 q 279 -150 279 -193 q 327 -107 279 -107 q 375 -150 375 -107 q 371 -172 375 -160 l 328 -271 l 322 -271 z "},"ș":{"ha":478,"x_min":44,"x_max":429,"o":"m 219 603 q 156 579 183 603 q 128 521 128 556 q 159 457 128 486 q 234 403 190 428 q 322 351 278 379 q 398 281 367 324 q 429 182 429 238 q 367 42 429 100 q 218 -15 306 -15 q 115 9 163 -15 q 44 74 67 33 l 44 140 q 214 24 97 24 q 335 68 286 24 q 385 167 385 113 q 353 260 385 222 q 278 324 322 297 q 190 376 233 350 q 115 438 146 401 q 83 524 83 475 q 123 608 83 574 q 225 642 163 642 q 332 593 288 642 l 332 536 q 219 603 288 603 m 233 -271 l 233 -193 q 190 -150 190 -193 q 238 -107 190 -107 q 286 -150 286 -107 q 282 -172 286 -160 l 239 -271 l 233 -271 z "},"ˆ":{"ha":458,"x_min":25,"x_max":436,"o":"m 253 894 l 436 735 l 379 735 l 231 861 l 83 735 l 25 735 l 211 894 l 253 894 z "},"ˇ":{"ha":458,"x_min":25,"x_max":436,"o":"m 436 894 l 253 735 l 211 735 l 25 894 l 83 894 l 231 768 l 379 894 l 436 894 z "},"˘":{"ha":388,"x_min":21,"x_max":367,"o":"m 60 894 q 103 806 63 844 q 192 768 143 768 q 281 806 242 768 q 326 894 321 844 l 367 894 q 315 781 364 829 q 199 733 265 733 l 188 733 q 72 781 121 733 q 21 894 24 828 l 60 894 z "},"˙":{"ha":122,"x_min":21,"x_max":101,"o":"m 61 776 q 41 776 61 776 q 21 814 21 776 q 61 851 21 851 q 101 814 101 851 q 61 776 101 776 z "},"˚":{"ha":251,"x_min":21,"x_max":231,"o":"m 128 711 l 122 711 q 51 742 81 711 q 21 816 21 774 q 51 889 21 858 q 126 919 82 919 q 200 889 169 919 q 231 816 231 858 q 200 742 231 774 q 128 711 169 711 m 194 815 q 194 830 194 815 q 174 865 194 844 q 126 886 154 886 q 76 865 97 886 q 56 815 56 843 q 76 766 56 788 q 126 744 97 744 q 174 765 154 744 q 194 815 194 786 z "},"˛":{"ha":201,"x_min":21,"x_max":181,"o":"m 128 -243 l 181 -243 l 181 -278 l 125 -278 q 50 -250 79 -278 q 21 -181 21 -222 l 21 -171 l 140 0 l 179 0 l 58 -174 q 77 -223 58 -203 q 128 -243 96 -243 z "},"˜":{"ha":515,"x_min":21,"x_max":494,"o":"m 369 760 q 260 798 329 760 q 150 835 192 836 q 64 761 108 835 l 21 761 q 153 872 75 872 l 165 872 q 269 835 207 872 q 370 799 332 799 q 451 867 408 799 l 494 867 q 369 760 429 760 z "},"˝":{"ha":458,"x_min":21,"x_max":442,"o":"m 215 894 l 272 894 l 79 735 l 21 735 l 215 894 m 385 894 l 442 894 l 249 735 l 190 735 l 385 894 z "},"Ё":{"ha":526,"x_min":104,"x_max":478,"o":"m 478 1001 l 150 1001 l 150 435 l 424 435 l 424 394 l 150 394 l 150 40 l 478 40 l 478 0 l 104 0 l 104 1042 l 478 1042 l 478 1001 m 217 1193 q 197 1193 217 1193 q 176 1231 176 1193 q 217 1268 176 1268 q 257 1231 257 1268 q 217 1193 257 1193 m 363 1193 q 344 1193 363 1193 q 325 1231 325 1193 q 363 1268 325 1268 q 401 1231 401 1268 q 363 1193 401 1193 z "},"Ђ":{"ha":921,"x_min":35,"x_max":839,"o":"m 599 -275 l 599 -239 q 737 -183 681 -239 q 793 -40 793 -126 l 793 364 q 723 533 793 461 q 558 604 653 604 q 392 535 463 604 q 321 374 321 467 l 321 0 l 275 0 l 275 1001 l 35 1001 l 35 1042 l 558 1042 l 558 1001 l 321 1001 l 321 515 q 556 643 394 643 q 756 562 674 643 q 839 364 839 481 l 839 -40 q 769 -210 839 -144 q 599 -275 699 -275 z "},"Ѓ":{"ha":524,"x_min":104,"x_max":475,"o":"m 475 1001 l 150 1001 l 150 0 l 104 0 l 104 1042 l 475 1042 l 475 1001 m 371 1319 l 428 1319 l 235 1126 l 176 1126 l 371 1319 z "},"Є":{"ha":942,"x_min":69,"x_max":893,"o":"m 611 1060 q 893 981 761 1060 l 893 931 q 611 1019 763 1019 q 261 873 407 1019 q 115 521 115 726 q 122 438 115 482 l 642 438 l 642 397 l 131 397 q 310 131 175 239 q 604 22 446 22 q 893 111 763 22 l 893 60 q 621 -18 767 -18 l 600 -18 q 227 144 385 -18 q 69 524 69 307 q 229 901 69 742 q 611 1060 389 1060 z "},"Ѕ":{"ha":749,"x_min":69,"x_max":679,"o":"m 563 893 q 473 985 528 951 q 350 1018 418 1018 q 223 969 282 1018 q 164 840 164 919 q 267 679 164 744 q 366 622 311 650 q 476 563 421 594 q 577 494 532 531 q 651 401 622 457 q 679 275 679 344 q 584 58 679 135 q 349 -19 489 -19 q 69 124 171 -19 l 69 199 q 182 69 107 118 q 364 21 257 21 q 552 88 471 21 q 633 272 633 156 q 595 401 633 344 q 500 492 557 458 q 376 563 443 526 q 251 632 308 600 q 156 717 194 664 q 118 839 118 771 q 192 1000 118 942 q 358 1058 265 1058 q 563 964 486 1058 l 563 893 z "},"І":{"ha":296,"x_min":125,"x_max":171,"o":"m 171 0 l 125 0 l 125 1042 l 171 1042 l 171 0 z "},"Ї":{"ha":263,"x_min":21,"x_max":242,"o":"m 153 1042 l 153 0 l 107 0 l 107 1042 l 153 1042 m 57 1118 q 39 1118 57 1118 q 21 1154 21 1118 q 57 1190 21 1190 q 93 1154 93 1190 q 57 1118 93 1118 m 206 1118 q 188 1118 206 1118 q 169 1154 169 1118 q 206 1190 169 1190 q 242 1154 242 1190 q 206 1118 242 1118 z "},"Ј":{"ha":656,"x_min":35,"x_max":551,"o":"m 249 1001 l 249 1042 l 551 1042 l 551 319 q 469 74 551 168 q 253 -21 386 -21 l 239 -21 q 35 58 128 -21 l 35 115 q 244 19 122 19 q 436 102 367 19 q 506 314 506 185 l 506 1001 l 249 1001 z "},"Љ":{"ha":1108,"x_min":35,"x_max":1051,"o":"m 681 0 l 681 1001 l 346 1001 l 346 335 q 263 94 346 189 q 44 0 179 0 l 35 0 l 35 40 q 224 126 147 40 q 300 335 300 211 l 300 1042 l 725 1042 l 725 636 l 738 636 q 951 541 851 636 q 1051 318 1051 446 q 955 95 1051 190 q 731 0 858 0 l 681 0 m 725 42 l 732 42 q 926 124 842 42 q 1010 318 1010 207 q 926 512 1010 429 q 736 594 843 594 l 725 594 l 725 42 z "},"Њ":{"ha":993,"x_min":104,"x_max":989,"o":"m 663 1042 l 663 636 l 675 636 q 889 541 789 636 q 989 318 989 446 q 892 95 989 190 q 668 0 796 0 l 618 0 l 618 593 l 150 593 l 150 0 l 104 0 l 104 1042 l 150 1042 l 150 636 l 618 636 l 618 1042 l 663 1042 m 663 42 l 669 42 q 863 124 779 42 q 947 318 947 207 q 864 512 947 429 q 674 594 781 594 l 663 594 l 663 42 z "},"Ћ":{"ha":921,"x_min":39,"x_max":838,"o":"m 321 0 l 275 0 l 275 1001 l 39 1001 l 39 1042 l 558 1042 l 558 1001 l 321 1001 l 321 515 q 556 643 394 643 q 755 562 672 643 q 838 364 838 481 l 838 0 l 793 0 l 793 364 q 723 533 793 461 q 558 604 653 604 q 392 535 463 604 q 321 374 321 467 l 321 0 z "},"Ќ":{"ha":804,"x_min":104,"x_max":767,"o":"m 451 1321 l 506 1321 l 313 1128 l 257 1128 l 451 1321 m 104 1042 l 149 1042 l 149 660 l 589 1042 l 644 1042 l 168 626 l 767 0 l 706 0 l 150 579 l 150 0 l 104 0 l 104 1042 z "},"Ў":{"ha":888,"x_min":44,"x_max":851,"o":"m 331 1286 q 374 1198 333 1236 q 463 1160 414 1160 q 552 1198 513 1160 q 597 1286 592 1236 l 638 1286 q 585 1173 635 1221 q 469 1125 536 1125 l 458 1125 q 343 1172 392 1125 q 292 1286 294 1219 l 331 1286 m 851 1042 l 357 0 l 314 0 l 433 251 l 44 1042 l 94 1042 l 458 300 l 808 1042 l 851 1042 z "},"Џ":{"ha":863,"x_min":104,"x_max":758,"o":"m 411 0 l 104 0 l 104 1042 l 150 1042 l 150 40 l 713 40 l 713 1042 l 758 1042 l 758 0 l 454 0 l 454 -135 l 411 -135 l 411 0 z "},"А":{"ha":1110,"x_min":35,"x_max":1075,"o":"m 554 1067 l 1075 0 l 1026 0 l 829 397 l 272 397 l 78 0 l 35 0 l 554 1067 m 550 971 l 290 438 l 813 438 l 550 971 z "},"Б":{"ha":546,"x_min":104,"x_max":497,"o":"m 104 0 l 104 1042 l 438 1042 l 438 1001 l 150 1001 l 150 663 l 163 663 q 396 564 294 663 q 497 331 497 465 q 393 98 497 196 q 150 0 289 0 l 104 0 m 150 624 l 150 39 l 161 39 q 363 126 275 39 q 451 331 451 213 q 367 537 451 450 q 161 624 282 624 l 150 624 z "},"В":{"ha":544,"x_min":104,"x_max":496,"o":"m 104 1042 l 149 1042 q 300 985 239 1042 q 361 842 361 929 q 327 734 361 789 q 247 663 293 679 q 425 549 354 636 q 496 328 496 461 q 394 98 496 196 q 149 0 293 0 l 104 0 l 104 1042 m 149 638 l 149 39 l 160 39 q 366 128 279 39 q 453 339 453 217 q 367 549 453 461 q 160 638 281 638 l 149 638 m 149 1003 l 149 675 l 160 675 q 270 726 222 675 q 318 842 318 776 q 271 956 318 908 q 160 1003 224 1003 l 149 1003 z "},"Г":{"ha":510,"x_min":104,"x_max":475,"o":"m 475 1001 l 150 1001 l 150 0 l 104 0 l 104 1042 l 475 1042 l 475 1001 z "},"Д":{"ha":1243,"x_min":49,"x_max":1194,"o":"m 49 -135 l 49 40 l 125 40 l 626 1065 l 1128 40 l 1194 40 l 1194 -135 l 1151 -135 l 1151 0 l 89 0 l 89 -135 l 49 -135 m 622 969 l 168 40 l 1081 40 l 622 969 z "},"Е":{"ha":513,"x_min":104,"x_max":478,"o":"m 478 1001 l 150 1001 l 150 435 l 424 435 l 424 394 l 150 394 l 150 40 l 478 40 l 478 0 l 104 0 l 104 1042 l 478 1042 l 478 1001 z "},"Ж":{"ha":1275,"x_min":35,"x_max":1240,"o":"m 615 1042 l 660 1042 l 660 665 l 1006 1042 l 1057 1042 l 676 628 l 1240 0 l 1183 0 l 660 579 l 660 0 l 615 0 l 615 579 l 93 0 l 35 0 l 600 628 l 219 1042 l 269 1042 l 615 665 l 615 1042 z "},"З":{"ha":743,"x_min":49,"x_max":688,"o":"m 540 851 q 429 671 540 735 q 615 545 542 646 q 688 326 688 444 q 583 83 688 185 q 332 -18 479 -18 q 167 22 243 -18 q 49 132 92 61 l 49 210 q 162 74 86 126 q 333 22 238 22 q 551 113 460 22 q 642 330 642 203 q 552 550 642 457 q 333 643 463 643 l 281 643 l 281 682 l 325 682 q 445 732 396 682 q 494 851 494 782 q 445 970 494 921 q 332 1019 396 1019 q 221 988 268 1019 q 157 904 174 956 l 157 976 q 317 1060 219 1060 q 477 999 414 1060 q 540 851 540 938 z "},"И":{"ha":1024,"x_min":104,"x_max":919,"o":"m 919 1042 l 919 0 l 874 0 l 874 976 l 147 0 l 104 0 l 104 1042 l 150 1042 l 150 68 l 874 1042 l 919 1042 z "},"Й":{"ha":1024,"x_min":104,"x_max":919,"o":"m 396 1296 q 439 1208 400 1244 q 528 1171 478 1171 q 618 1208 579 1171 q 663 1296 657 1246 l 703 1296 q 651 1183 700 1231 q 535 1135 601 1135 l 524 1135 q 408 1182 457 1135 q 357 1296 360 1229 l 396 1296 m 919 1042 l 919 0 l 874 0 l 874 976 l 147 0 l 104 0 l 104 1042 l 150 1042 l 150 68 l 874 1042 l 919 1042 z "},"К":{"ha":801,"x_min":104,"x_max":767,"o":"m 104 1042 l 149 1042 l 149 660 l 589 1042 l 644 1042 l 168 626 l 767 0 l 706 0 l 150 579 l 150 0 l 104 0 l 104 1042 z "},"Л":{"ha":1106,"x_min":35,"x_max":1071,"o":"m 553 1065 l 1071 0 l 1021 0 l 549 965 l 79 0 l 35 0 l 553 1065 z "},"М":{"ha":1276,"x_min":104,"x_max":1172,"o":"m 1172 1042 l 1172 0 l 1126 0 l 1126 988 l 635 -19 l 146 988 l 146 0 l 104 0 l 104 1042 l 171 1042 l 639 81 l 1108 1042 l 1172 1042 z "},"Н":{"ha":1014,"x_min":104,"x_max":910,"o":"m 864 1042 l 910 1042 l 910 0 l 864 0 l 864 397 l 150 397 l 150 0 l 104 0 l 104 1042 l 150 1042 l 150 438 l 864 438 l 864 1042 z "},"О":{"ha":1222,"x_min":69,"x_max":1153,"o":"m 600 -17 q 227 146 385 -17 q 69 526 69 308 q 229 902 69 743 q 613 1061 389 1061 q 994 903 836 1061 q 1153 526 1153 744 q 996 145 1153 307 q 621 -17 839 -17 l 600 -17 m 1107 523 q 1107 625 1107 523 q 962 874 1107 728 q 612 1021 817 1021 q 261 874 407 1021 q 115 523 115 728 q 261 171 115 318 q 611 24 407 24 q 961 171 815 24 q 1107 523 1107 318 z "},"П":{"ha":864,"x_min":104,"x_max":760,"o":"m 104 1042 l 760 1042 l 760 0 l 714 0 l 714 1001 l 150 1001 l 150 0 l 104 0 l 104 1042 z "},"Р":{"ha":567,"x_min":104,"x_max":497,"o":"m 104 1042 l 150 1042 q 396 942 294 1042 q 497 708 497 843 q 392 476 497 574 q 161 379 288 379 l 150 379 l 150 0 l 104 0 l 104 1042 m 150 418 l 161 418 q 365 504 278 418 q 451 708 451 590 q 363 914 451 826 q 161 1001 275 1001 l 150 1001 l 150 418 z "},"С":{"ha":942,"x_min":69,"x_max":893,"o":"m 618 -15 l 603 -15 q 336 60 460 -15 q 141 259 213 135 q 69 524 69 383 q 229 903 69 744 q 611 1063 389 1063 q 893 985 760 1063 l 893 933 q 611 1022 763 1022 q 261 876 407 1022 q 115 524 115 729 q 261 172 115 319 q 611 25 407 25 q 893 114 763 25 l 893 63 q 618 -15 767 -15 z "},"Т":{"ha":593,"x_min":35,"x_max":558,"o":"m 558 1042 l 558 1001 l 321 1001 l 321 0 l 275 0 l 275 1001 l 35 1001 l 35 1042 l 558 1042 z "},"У":{"ha":876,"x_min":35,"x_max":842,"o":"m 842 1042 l 347 0 l 304 0 l 424 251 l 35 1042 l 85 1042 l 449 300 l 799 1042 l 842 1042 z "},"Ф":{"ha":1176,"x_min":69,"x_max":1107,"o":"m 565 -35 l 565 49 l 556 49 q 213 191 357 49 q 69 525 69 333 q 213 856 69 717 q 554 996 357 996 l 565 996 l 565 1076 l 611 1076 l 611 996 l 621 996 q 963 853 819 996 q 1107 521 1107 711 q 963 190 1107 331 q 621 49 818 49 l 611 49 l 611 -35 l 565 -35 m 556 86 l 565 86 l 565 958 l 554 958 q 245 829 375 958 q 115 523 115 700 q 245 216 115 346 q 556 86 375 86 m 622 958 l 611 958 l 611 86 l 621 86 q 931 215 800 86 q 1063 521 1063 344 q 930 828 1063 697 q 622 958 797 958 z "},"Х":{"ha":685,"x_min":35,"x_max":650,"o":"m 589 1042 l 365 583 l 650 0 l 599 0 l 339 535 l 78 0 l 35 0 l 317 582 l 88 1042 l 140 1042 l 343 629 l 544 1042 l 589 1042 z "},"Ц":{"ha":900,"x_min":104,"x_max":865,"o":"m 825 0 l 104 0 l 104 1042 l 150 1042 l 150 40 l 713 40 l 713 1042 l 758 1042 l 758 40 l 865 40 l 865 -135 l 825 -135 l 825 0 z "},"Ч":{"ha":808,"x_min":83,"x_max":704,"o":"m 83 701 l 83 1042 l 129 1042 l 129 711 q 206 516 129 597 q 394 435 283 435 q 581 516 504 435 q 658 711 658 597 l 658 1042 l 704 1042 l 704 0 l 658 0 l 658 564 q 554 442 624 490 q 401 394 485 394 l 388 394 q 174 487 264 394 q 83 701 83 579 z "},"Ш":{"ha":992,"x_min":104,"x_max":888,"o":"m 888 0 l 104 0 l 104 1042 l 150 1042 l 150 40 l 474 40 l 474 1042 l 518 1042 l 518 40 l 842 40 l 842 1042 l 888 1042 l 888 0 z "},"Щ":{"ha":1031,"x_min":104,"x_max":996,"o":"m 956 0 l 104 0 l 104 1042 l 150 1042 l 150 40 l 474 40 l 474 1042 l 518 1042 l 518 40 l 842 40 l 842 1042 l 889 1042 l 889 40 l 996 40 l 996 -135 l 956 -135 l 956 0 z "},"Ъ":{"ha":650,"x_min":35,"x_max":581,"o":"m 35 1001 l 35 1042 l 254 1042 l 254 635 l 267 635 q 481 540 381 635 q 581 318 581 446 q 483 95 581 190 q 254 0 385 0 l 208 0 l 208 1001 l 35 1001 m 265 594 l 254 594 l 254 40 l 265 40 q 452 124 369 40 q 535 318 535 207 q 453 512 535 429 q 265 594 371 594 z "},"Ы":{"ha":753,"x_min":104,"x_max":649,"o":"m 603 0 l 603 1042 l 649 1042 l 649 0 l 603 0 m 104 1042 l 150 1042 l 150 635 l 163 635 q 376 540 276 635 q 476 318 476 446 q 378 95 476 190 q 150 0 281 0 l 104 0 l 104 1042 m 161 594 l 150 594 l 150 40 l 161 40 q 348 124 265 40 q 431 318 431 207 q 349 512 431 429 q 161 594 267 594 z "},"Ь":{"ha":546,"x_min":104,"x_max":476,"o":"m 104 1042 l 150 1042 l 150 635 l 163 635 q 376 540 276 635 q 476 318 476 446 q 378 95 476 190 q 150 0 281 0 l 104 0 l 104 1042 m 161 594 l 150 594 l 150 40 l 161 40 q 348 124 265 40 q 431 318 431 207 q 349 512 431 429 q 161 594 267 594 z "},"Э":{"ha":942,"x_min":49,"x_max":872,"o":"m 331 1060 q 713 901 553 1060 q 872 524 872 742 q 715 144 872 307 q 342 -18 557 -18 l 321 -18 q 49 60 175 -18 l 49 111 q 338 22 179 22 q 631 131 496 22 q 811 397 767 239 l 300 397 l 300 438 l 819 438 q 826 521 826 482 q 681 873 826 726 q 331 1019 535 1019 q 49 931 179 1019 l 49 981 q 331 1060 181 1060 z "},"Ю":{"ha":1551,"x_min":104,"x_max":1482,"o":"m 104 0 l 104 1042 l 150 1042 l 150 438 l 406 438 q 399 521 399 482 q 558 901 399 742 q 940 1060 718 1060 q 1322 901 1163 1060 q 1482 525 1482 743 q 1324 144 1482 307 q 950 -18 1165 -18 l 929 -18 q 606 103 750 -18 q 413 397 463 224 l 150 397 l 150 0 l 104 0 m 1436 522 q 1436 624 1436 522 q 1290 873 1436 726 q 939 1019 1143 1019 q 590 873 735 1019 q 444 522 444 726 q 590 169 444 317 q 940 22 736 22 q 1290 169 1143 22 q 1436 522 1436 317 z "},"Я":{"ha":564,"x_min":49,"x_max":460,"o":"m 400 1042 l 460 1042 l 460 0 l 415 0 l 415 331 l 100 0 l 49 0 l 407 378 l 389 378 q 165 476 269 378 q 61 709 61 575 q 163 942 61 843 q 400 1042 265 1042 m 390 418 l 415 418 l 415 1001 l 397 1001 q 194 914 283 1001 q 106 708 106 826 q 192 504 106 590 q 390 418 278 418 z "},"а":{"ha":818,"x_min":56,"x_max":714,"o":"m 714 625 l 714 0 l 669 0 l 669 156 q 553 31 631 76 q 386 -15 475 -15 q 153 81 250 -15 q 56 313 56 178 q 153 544 56 447 q 386 640 250 640 q 556 593 475 640 q 669 468 638 546 l 669 625 l 714 625 m 100 311 q 100 253 100 311 q 185 109 100 194 q 388 24 271 24 q 589 109 506 24 q 672 312 672 194 q 588 515 672 429 q 388 601 504 601 q 185 515 271 601 q 100 311 100 428 z "},"б":{"ha":793,"x_min":76,"x_max":738,"o":"m 121 308 q 121 250 121 308 q 206 106 121 192 q 409 21 292 21 q 610 106 526 21 q 693 309 693 192 q 609 513 693 426 q 408 599 525 599 q 206 512 292 599 q 121 308 121 425 m 407 638 q 641 541 544 638 q 738 312 738 444 q 644 81 738 179 q 417 -18 550 -18 l 396 -18 q 172 83 267 -18 q 76 317 76 185 l 76 422 q 140 674 76 576 q 216 749 167 714 q 304 803 265 785 q 408 847 343 821 l 661 947 l 661 907 l 408 806 q 119 472 119 690 l 119 460 q 239 590 160 543 q 407 638 318 638 z "},"в":{"ha":482,"x_min":104,"x_max":426,"o":"m 104 625 l 221 625 q 310 588 275 625 q 346 490 346 551 q 294 396 346 429 q 388 324 350 379 q 426 194 426 268 q 367 60 426 121 q 221 0 307 0 l 104 0 l 104 625 m 224 372 l 149 372 l 149 38 l 224 38 q 338 87 290 38 q 386 206 386 136 q 338 324 386 275 q 224 372 290 372 m 222 588 l 149 588 l 149 410 l 225 410 q 283 435 258 410 q 308 497 308 461 q 282 560 308 532 q 222 588 256 588 z "},"г":{"ha":415,"x_min":104,"x_max":381,"o":"m 381 585 l 149 585 l 149 0 l 104 0 l 104 624 l 381 624 l 381 585 z "},"д":{"ha":744,"x_min":35,"x_max":710,"o":"m 35 -79 l 35 36 l 83 36 l 374 643 l 664 38 l 710 38 l 710 -79 l 671 -79 l 671 0 l 71 0 l 71 -79 l 35 -79 m 369 549 l 125 38 l 615 38 l 369 549 z "},"е":{"ha":681,"x_min":56,"x_max":639,"o":"m 393 -17 l 378 -17 q 151 82 246 -17 q 56 313 56 181 q 153 542 56 446 q 393 639 250 639 q 639 525 536 639 l 203 94 q 376 22 293 22 q 526 60 460 22 q 635 163 592 99 l 635 92 q 393 -17 536 -17 m 381 600 q 326 600 381 600 q 185 515 271 600 q 100 318 100 429 q 174 124 100 207 l 578 525 q 381 600 492 600 z "},"ж":{"ha":856,"x_min":35,"x_max":821,"o":"m 406 625 l 450 625 l 450 424 l 650 625 l 700 625 l 456 375 l 821 0 l 761 0 l 450 321 l 450 0 l 406 0 l 406 321 l 94 0 l 35 0 l 400 375 l 156 625 l 206 625 l 406 424 l 406 625 z "},"з":{"ha":497,"x_min":42,"x_max":442,"o":"m 214 636 q 244 636 214 636 q 313 598 274 636 q 353 515 353 560 q 334 440 353 469 q 290 399 315 411 q 397 323 353 382 q 442 186 442 264 q 377 45 442 108 q 224 -18 313 -18 q 42 76 106 -18 l 42 160 q 110 58 63 97 q 225 19 157 19 q 345 72 293 19 q 397 197 397 125 q 345 322 397 268 q 224 375 293 375 l 190 375 l 190 413 l 218 413 q 282 440 256 413 q 308 506 308 468 q 282 571 308 543 q 218 599 256 599 q 110 500 140 599 l 110 588 q 214 636 154 636 z "},"и":{"ha":740,"x_min":104,"x_max":636,"o":"m 636 624 l 636 0 l 593 0 l 593 554 l 143 0 l 104 0 l 104 624 l 147 624 l 147 69 l 596 624 l 636 624 z "},"й":{"ha":740,"x_min":104,"x_max":636,"o":"m 636 624 l 636 0 l 593 0 l 593 554 l 143 0 l 104 0 l 104 624 l 147 624 l 147 69 l 596 624 l 636 624 m 251 965 q 294 877 256 914 q 384 840 333 840 q 474 878 435 840 q 518 965 513 915 l 558 965 q 506 852 556 900 q 390 804 457 804 l 379 804 q 264 851 313 804 q 213 965 215 899 l 251 965 z "},"к":{"ha":560,"x_min":104,"x_max":525,"o":"m 104 625 l 149 625 l 149 408 l 396 625 l 453 625 l 167 375 l 525 0 l 465 0 l 149 329 l 149 0 l 104 0 l 104 625 z "},"л":{"ha":685,"x_min":35,"x_max":650,"o":"m 75 0 l 35 0 l 342 643 l 650 0 l 601 0 l 338 549 l 75 0 z "},"м":{"ha":851,"x_min":104,"x_max":747,"o":"m 104 0 l 104 625 l 154 625 l 428 72 l 706 625 l 747 625 l 747 0 l 703 0 l 703 543 l 421 -17 l 143 549 l 143 0 l 104 0 z "},"н":{"ha":721,"x_min":104,"x_max":617,"o":"m 572 625 l 617 625 l 617 0 l 572 0 l 572 235 l 149 235 l 149 0 l 104 0 l 104 625 l 149 625 l 149 274 l 572 274 l 572 625 z "},"о":{"ha":772,"x_min":56,"x_max":717,"o":"m 56 315 q 56 381 56 315 q 153 544 56 447 q 387 640 250 640 q 620 544 524 640 q 717 315 717 447 q 622 83 717 182 q 393 -15 528 -15 l 379 -15 q 152 84 249 -15 q 56 315 56 183 m 672 312 q 672 370 672 312 q 588 515 672 429 q 388 601 504 601 q 185 515 271 601 q 100 311 100 428 q 185 109 100 194 q 388 24 271 24 q 589 109 506 24 q 672 312 672 194 z "},"п":{"ha":711,"x_min":104,"x_max":607,"o":"m 104 625 l 607 625 l 607 0 l 563 0 l 563 586 l 149 586 l 149 0 l 104 0 l 104 625 z "},"р":{"ha":818,"x_min":104,"x_max":763,"o":"m 104 -278 l 104 625 l 149 625 l 149 472 q 266 594 186 549 q 432 640 346 640 q 666 544 569 640 q 763 313 763 447 q 666 81 763 178 q 432 -15 569 -15 q 269 30 349 -15 q 149 151 190 75 l 149 -278 l 104 -278 m 146 311 q 146 253 146 311 q 231 109 146 194 q 434 24 317 24 q 635 109 551 24 q 718 312 718 194 q 634 515 718 429 q 433 601 550 601 q 231 515 317 601 q 146 311 146 428 z "},"с":{"ha":675,"x_min":56,"x_max":633,"o":"m 393 -18 l 381 -18 q 151 81 247 -18 q 56 312 56 179 q 153 541 56 444 q 392 638 250 638 q 633 531 533 638 l 633 460 q 524 561 590 524 q 386 599 458 599 q 185 513 271 599 q 100 310 100 428 q 185 106 100 192 q 386 21 271 21 q 524 58 458 21 q 633 161 590 96 l 633 89 q 393 -18 536 -18 z "},"т":{"ha":592,"x_min":35,"x_max":557,"o":"m 557 624 l 557 585 l 318 585 l 318 0 l 274 0 l 274 585 l 35 585 l 35 624 l 557 624 z "},"у":{"ha":706,"x_min":35,"x_max":671,"o":"m 671 625 l 242 -278 l 201 -278 l 333 1 l 35 625 l 82 625 l 357 51 l 631 625 l 671 625 z "},"ф":{"ha":835,"x_min":56,"x_max":779,"o":"m 401 874 l 446 874 l 446 640 l 453 640 q 684 545 589 640 q 779 317 779 450 q 685 88 779 185 q 456 -8 592 -8 l 446 -8 l 446 -275 l 401 -275 l 401 -8 l 390 -8 q 154 89 253 -8 q 56 317 56 186 q 155 544 56 449 q 390 640 254 640 l 401 640 l 401 874 m 401 601 l 390 601 q 185 516 274 601 q 97 315 97 431 q 185 115 97 200 q 390 31 274 31 l 401 31 l 401 601 m 446 601 l 446 31 l 454 31 q 653 115 571 31 q 736 315 736 199 q 653 517 736 432 q 453 601 569 601 l 446 601 z "},"х":{"ha":614,"x_min":35,"x_max":579,"o":"m 328 379 l 579 0 l 528 0 l 303 340 l 79 0 l 35 0 l 281 375 l 115 625 l 167 625 l 306 414 l 444 625 l 489 625 l 328 379 z "},"ц":{"ha":740,"x_min":104,"x_max":706,"o":"m 563 625 l 607 625 l 607 40 l 706 40 l 706 -135 l 667 -135 l 667 0 l 104 0 l 104 625 l 149 625 l 149 39 l 563 39 l 563 625 z "},"ч":{"ha":606,"x_min":56,"x_max":501,"o":"m 56 431 l 56 625 l 100 625 l 100 435 q 152 301 100 357 q 279 246 204 246 q 406 301 354 246 q 457 435 457 357 l 457 625 l 501 625 l 501 0 l 458 0 l 458 308 q 387 237 433 264 q 285 210 340 210 l 276 210 q 121 276 186 210 q 56 431 56 342 z "},"ш":{"ha":853,"x_min":104,"x_max":749,"o":"m 749 0 l 104 0 l 104 625 l 149 625 l 149 39 l 404 39 l 404 625 l 449 625 l 449 39 l 704 39 l 704 625 l 749 625 l 749 0 z "},"щ":{"ha":886,"x_min":104,"x_max":851,"o":"m 104 0 l 104 625 l 149 625 l 149 39 l 406 39 l 406 625 l 450 625 l 450 39 l 707 39 l 707 625 l 751 625 l 751 40 l 851 40 l 851 -135 l 808 -135 l 808 0 l 104 0 z "},"ъ":{"ha":531,"x_min":35,"x_max":475,"o":"m 35 625 l 204 625 l 204 410 l 272 410 q 415 349 356 410 q 475 204 475 288 q 414 60 475 121 q 268 0 353 0 l 160 0 l 160 586 l 35 586 l 35 625 m 204 372 l 204 38 l 269 38 q 383 87 335 38 q 432 203 432 136 q 383 322 432 271 q 269 372 333 372 l 204 372 z "},"ы":{"ha":692,"x_min":104,"x_max":586,"o":"m 543 625 l 586 625 l 586 0 l 543 0 l 543 625 m 104 625 l 149 625 l 149 410 l 217 410 q 360 349 300 410 q 419 204 419 288 q 358 60 419 121 q 213 0 297 0 l 104 0 l 104 625 m 149 372 l 149 38 l 214 38 q 328 87 279 38 q 376 203 376 136 q 327 322 376 271 q 214 372 278 372 l 149 372 z "},"ь":{"ha":475,"x_min":104,"x_max":419,"o":"m 104 625 l 149 625 l 149 410 l 217 410 q 360 349 300 410 q 419 204 419 288 q 358 60 419 121 q 213 0 297 0 l 104 0 l 104 625 m 149 372 l 149 38 l 214 38 q 328 87 279 38 q 376 203 376 136 q 327 322 376 271 q 214 372 278 372 l 149 372 z "},"э":{"ha":675,"x_min":42,"x_max":619,"o":"m 218 236 l 218 274 l 572 274 q 575 310 575 293 q 490 513 575 428 q 289 599 404 599 q 151 561 217 599 q 42 458 85 524 l 42 531 q 283 638 139 638 l 296 638 q 524 538 428 638 q 619 307 619 439 q 522 78 619 175 q 283 -18 425 -18 q 42 89 142 -18 l 42 161 q 151 58 85 96 q 299 21 217 21 q 459 84 381 21 q 567 236 538 147 l 218 236 z "},"ю":{"ha":1022,"x_min":104,"x_max":967,"o":"m 104 0 l 104 625 l 149 625 l 149 274 l 308 274 q 306 313 306 282 q 402 544 306 447 q 635 640 499 640 q 869 544 772 640 q 967 315 967 447 q 871 84 967 183 q 642 -15 775 -15 l 631 -15 q 434 58 522 -15 q 314 235 346 132 l 149 235 l 149 0 l 104 0 m 838 515 q 795 558 838 515 q 636 601 753 601 q 435 515 519 601 q 350 312 350 429 q 435 109 350 194 q 636 24 519 24 q 838 109 753 24 q 922 312 922 194 q 838 515 922 429 z "},"я":{"ha":456,"x_min":56,"x_max":351,"o":"m 217 219 q 106 292 149 236 q 63 426 63 347 q 123 565 63 504 q 268 625 183 625 l 351 625 l 351 0 l 307 0 l 307 215 l 261 215 l 103 0 l 56 0 l 217 219 m 307 253 l 307 588 l 265 588 q 152 537 201 588 q 103 420 103 486 q 152 303 103 354 q 265 253 201 253 l 307 253 z "},"ё":{"ha":694,"x_min":56,"x_max":639,"o":"m 307 801 q 287 801 307 801 q 267 839 267 801 q 307 876 267 876 q 347 839 347 876 q 307 801 347 801 m 453 801 q 434 801 453 801 q 415 839 415 801 q 453 876 415 876 q 492 839 492 876 q 453 801 492 801 m 393 -17 l 378 -17 q 151 82 246 -17 q 56 313 56 181 q 153 542 56 446 q 393 639 250 639 q 639 525 536 639 l 203 94 q 376 22 293 22 q 526 60 460 22 q 635 163 592 99 l 635 92 q 393 -17 536 -17 m 381 600 q 326 600 381 600 q 185 515 271 600 q 100 318 100 429 q 174 124 100 207 l 578 525 q 381 600 492 600 z "},"ђ":{"ha":889,"x_min":35,"x_max":785,"o":"m 35 804 l 35 844 l 224 844 l 224 1039 l 269 1039 l 269 844 l 504 844 l 504 804 l 269 804 l 269 513 q 504 640 343 640 q 703 560 622 640 q 785 364 785 479 l 785 -40 q 715 -209 785 -143 q 547 -275 646 -275 l 547 -236 q 684 -181 629 -236 q 739 -40 739 -126 l 739 364 q 669 531 739 460 q 505 601 600 601 q 340 533 410 601 q 269 374 269 464 l 269 0 l 224 0 l 224 804 l 35 804 z "},"ѓ":{"ha":415,"x_min":104,"x_max":381,"o":"m 379 586 l 147 586 l 147 0 l 104 0 l 104 624 l 379 624 l 379 586 m 324 976 l 381 976 l 188 783 l 129 783 l 324 976 z "},"є":{"ha":682,"x_min":56,"x_max":633,"o":"m 457 274 l 457 236 l 108 236 q 216 84 138 147 q 376 21 294 21 q 524 58 458 21 q 633 161 590 96 l 633 89 q 392 -18 533 -18 q 153 78 250 -18 q 56 307 56 175 q 151 538 56 439 q 375 638 246 638 l 396 638 q 633 531 536 638 l 633 458 q 524 561 590 524 q 386 599 458 599 q 185 513 271 599 q 100 310 100 428 q 103 274 100 293 l 457 274 z "},"ѕ":{"ha":496,"x_min":56,"x_max":440,"o":"m 231 603 q 167 579 194 603 q 139 521 139 556 q 170 457 139 486 q 245 403 201 428 q 333 351 289 379 q 409 281 378 324 q 440 182 440 238 q 378 42 440 100 q 229 -15 317 -15 q 126 9 174 -15 q 56 74 78 33 l 56 140 q 225 24 108 24 q 347 68 297 24 q 396 167 396 113 q 365 260 396 222 q 289 324 333 297 q 201 376 244 350 q 126 438 157 401 q 94 524 94 475 q 134 608 94 574 q 236 642 174 642 q 343 593 299 642 l 343 536 q 231 603 299 603 z "},"і":{"ha":303,"x_min":111,"x_max":192,"o":"m 174 624 l 174 0 l 129 0 l 129 624 l 174 624 m 151 776 q 131 776 151 776 q 111 814 111 776 q 151 851 111 851 q 192 814 192 851 q 151 776 192 776 z "},"ї":{"ha":281,"x_min":28,"x_max":253,"o":"m 68 776 q 48 776 68 776 q 28 814 28 776 q 68 851 28 851 q 108 814 108 851 q 68 776 108 776 m 215 776 q 195 776 215 776 q 176 814 176 776 q 215 851 176 851 q 253 814 253 851 q 215 776 253 776 m 164 624 l 164 0 l 119 0 l 119 624 l 164 624 z "},"ј":{"ha":378,"x_min":14,"x_max":274,"o":"m 14 -275 l 14 -236 q 152 -181 96 -236 q 208 -40 208 -125 l 208 625 l 254 625 l 254 -40 q 184 -209 254 -143 q 14 -275 114 -275 m 233 776 q 213 776 233 776 q 193 814 193 776 q 233 851 193 851 q 274 814 274 851 q 233 776 274 776 z "},"љ":{"ha":872,"x_min":42,"x_max":817,"o":"m 42 0 l 42 39 q 181 94 124 39 q 238 235 238 150 l 238 625 l 581 625 l 581 410 l 615 410 q 758 349 699 410 q 817 204 817 288 q 756 60 817 121 q 611 0 696 0 l 536 0 l 536 586 l 278 586 l 278 235 q 209 66 278 132 q 42 0 140 0 m 581 372 l 581 38 l 614 38 q 728 87 679 38 q 776 203 776 136 q 727 322 776 271 q 614 372 678 372 l 581 372 z "},"њ":{"ha":835,"x_min":104,"x_max":779,"o":"m 501 625 l 544 625 l 544 410 l 578 410 q 721 349 663 410 q 779 205 779 289 q 719 60 779 121 q 574 0 660 0 l 501 0 l 501 372 l 149 372 l 149 0 l 104 0 l 104 625 l 149 625 l 149 411 l 501 411 l 501 625 m 544 372 l 544 38 l 576 38 q 691 87 643 38 q 739 203 739 136 q 691 322 739 271 q 576 372 643 372 l 544 372 z "},"ћ":{"ha":889,"x_min":35,"x_max":785,"o":"m 35 804 l 35 844 l 224 844 l 224 1039 l 269 1039 l 269 844 l 504 844 l 504 804 l 269 804 l 269 513 q 504 640 343 640 q 703 560 622 640 q 785 364 785 479 l 785 0 l 739 0 l 739 364 q 669 531 739 460 q 505 601 600 601 q 340 533 410 601 q 269 374 269 464 l 269 0 l 224 0 l 224 804 l 35 804 z "},"ќ":{"ha":560,"x_min":104,"x_max":525,"o":"m 351 976 l 408 976 l 215 783 l 157 783 l 351 976 m 104 625 l 149 625 l 149 408 l 396 625 l 453 625 l 167 375 l 525 0 l 465 0 l 149 329 l 149 0 l 104 0 l 104 625 z "},"ў":{"ha":706,"x_min":35,"x_max":671,"o":"m 242 956 q 285 867 244 906 q 374 829 325 829 q 463 867 424 829 q 508 956 503 906 l 549 956 q 497 842 546 890 q 381 794 447 794 l 369 794 q 254 842 303 794 q 203 956 206 889 l 242 956 m 671 625 l 242 -278 l 201 -278 l 333 1 l 35 625 l 82 625 l 357 51 l 631 625 l 671 625 z "},"џ":{"ha":708,"x_min":104,"x_max":604,"o":"m 560 625 l 604 625 l 604 0 l 375 0 l 375 -135 l 335 -135 l 335 0 l 104 0 l 104 625 l 149 625 l 149 39 l 560 39 l 560 625 z "},"Ґ":{"ha":510,"x_min":104,"x_max":475,"o":"m 150 1001 l 150 0 l 104 0 l 104 1042 l 429 1042 l 429 1179 l 475 1179 l 475 1001 l 150 1001 z "},"ґ":{"ha":415,"x_min":104,"x_max":381,"o":"m 149 586 l 149 0 l 104 0 l 104 625 l 338 625 l 338 768 l 381 768 l 381 586 l 149 586 z "},"Ẁ":{"ha":1421,"x_min":28,"x_max":1389,"o":"m 485 -18 l 28 1042 l 79 1042 l 492 88 l 685 539 l 469 1042 l 519 1042 l 713 585 l 911 1042 l 950 1042 l 733 540 l 931 83 l 1351 1042 l 1389 1042 l 926 -18 l 706 490 l 485 -18 m 585 1311 l 642 1311 l 836 1151 l 778 1151 l 585 1311 z "},"ẁ":{"ha":950,"x_min":35,"x_max":915,"o":"m 35 625 l 81 625 l 338 79 l 458 333 l 324 622 l 368 622 l 481 376 l 596 625 l 638 625 l 501 333 l 621 76 l 875 624 l 915 624 l 619 -15 l 478 289 l 335 -15 l 35 625 m 349 894 l 406 894 l 600 735 l 542 735 l 349 894 z "},"Ẃ":{"ha":1421,"x_min":28,"x_max":1389,"o":"m 485 -18 l 28 1042 l 79 1042 l 492 88 l 685 539 l 469 1042 l 519 1042 l 713 585 l 911 1042 l 950 1042 l 733 540 l 931 83 l 1351 1042 l 1389 1042 l 926 -18 l 706 490 l 485 -18 m 779 1311 l 836 1311 l 643 1151 l 585 1151 l 779 1311 z "},"ẃ":{"ha":950,"x_min":35,"x_max":915,"o":"m 35 625 l 81 625 l 338 79 l 458 333 l 324 622 l 368 622 l 481 376 l 596 625 l 638 625 l 501 333 l 621 76 l 875 624 l 915 624 l 619 -15 l 478 289 l 335 -15 l 35 625 m 543 894 l 600 894 l 407 735 l 349 735 l 543 894 z "},"Ẅ":{"ha":1421,"x_min":28,"x_max":1389,"o":"m 485 -18 l 28 1042 l 79 1042 l 492 88 l 685 539 l 469 1042 l 519 1042 l 713 585 l 911 1042 l 950 1042 l 733 540 l 931 83 l 1351 1042 l 1389 1042 l 926 -18 l 706 490 l 485 -18 m 638 1192 q 617 1192 638 1192 q 597 1229 597 1192 q 638 1267 597 1267 q 678 1229 678 1267 q 638 1192 678 1192 m 784 1192 q 765 1192 784 1192 q 746 1229 746 1192 q 784 1267 746 1267 q 822 1229 822 1267 q 784 1192 822 1192 z "},"ẅ":{"ha":950,"x_min":35,"x_max":915,"o":"m 35 625 l 81 625 l 338 79 l 458 333 l 324 622 l 368 622 l 481 376 l 596 625 l 638 625 l 501 333 l 621 76 l 875 624 l 915 624 l 619 -15 l 478 289 l 335 -15 l 35 625 m 403 775 q 383 775 403 775 q 363 813 363 775 q 403 850 363 850 q 443 813 443 850 q 403 775 443 775 m 549 775 q 530 775 549 775 q 511 813 511 775 q 549 850 511 850 q 588 813 588 850 q 549 775 588 775 z "},"Ỳ":{"ha":728,"x_min":28,"x_max":700,"o":"m 390 0 l 344 0 l 344 417 l 28 1042 l 78 1042 l 371 465 l 658 1042 l 700 1042 l 390 417 l 390 0 m 238 1311 l 294 1311 l 489 1151 l 431 1151 l 238 1311 z "},"ỳ":{"ha":700,"x_min":69,"x_max":631,"o":"m 586 625 l 631 625 l 631 19 q 544 -190 631 -104 q 333 -276 458 -276 q 96 -161 183 -276 l 99 -92 q 201 -198 138 -158 q 333 -237 264 -237 q 511 -163 436 -237 q 586 15 586 -89 l 586 121 q 349 -15 518 -15 q 151 66 233 -15 q 69 261 69 147 l 69 625 l 114 625 l 114 261 q 184 94 114 165 q 350 24 254 24 q 516 94 446 24 q 586 261 586 165 l 586 625 m 224 894 l 281 894 l 475 735 l 417 735 l 224 894 z "},"–":{"ha":567,"x_min":69,"x_max":497,"o":"m 497 392 l 69 392 l 69 435 l 497 435 l 497 392 z "},"—":{"ha":686,"x_min":21,"x_max":665,"o":"m 665 392 l 21 392 l 21 435 l 665 435 l 665 392 z "},"‘":{"ha":306,"x_min":139,"x_max":271,"o":"m 189 951 l 189 788 l 139 788 l 139 951 q 175 1063 139 1017 q 271 1128 211 1110 l 271 1079 q 189 951 189 1042 z "},"’":{"ha":306,"x_min":35,"x_max":167,"o":"m 117 965 l 117 1125 l 167 1125 l 167 965 q 131 853 167 900 q 35 789 94 807 l 35 838 q 117 965 117 875 z "},"‚":{"ha":285,"x_min":28,"x_max":160,"o":"m 110 -100 l 110 44 l 160 44 l 160 -100 q 124 -212 160 -165 q 28 -276 88 -258 l 28 -228 q 110 -100 110 -190 z "},"“":{"ha":478,"x_min":139,"x_max":443,"o":"m 189 951 l 189 788 l 139 788 l 139 951 q 175 1063 139 1017 q 271 1128 211 1110 l 271 1079 q 189 951 189 1042 m 361 951 l 361 788 l 311 788 l 311 951 q 347 1063 311 1017 q 443 1128 383 1110 l 443 1079 q 361 951 361 1042 z "},"”":{"ha":478,"x_min":35,"x_max":339,"o":"m 289 964 l 289 1125 l 339 1125 l 339 964 q 303 852 339 899 q 207 788 267 806 l 207 836 q 289 964 289 874 m 117 964 l 117 1125 l 167 1125 l 167 964 q 131 852 167 899 q 35 788 94 806 l 35 836 q 117 964 117 874 z "},"„":{"ha":457,"x_min":28,"x_max":332,"o":"m 282 -101 l 282 42 l 332 42 l 332 -101 q 296 -213 332 -167 q 200 -278 260 -260 l 200 -229 q 282 -101 282 -192 m 110 -101 l 110 42 l 160 42 l 160 -101 q 124 -213 160 -167 q 28 -278 88 -260 l 28 -229 q 110 -101 110 -192 z "},"†":{"ha":640,"x_min":104,"x_max":536,"o":"m 536 394 l 343 394 l 343 0 l 297 0 l 297 394 l 104 394 l 104 438 l 297 438 l 297 1039 l 343 1039 l 343 438 l 536 438 l 536 394 z "},"‡":{"ha":640,"x_min":104,"x_max":536,"o":"m 536 394 l 343 394 l 343 0 l 297 0 l 297 394 l 104 394 l 104 435 l 297 435 l 297 647 l 104 647 l 104 690 l 297 690 l 297 1039 l 343 1039 l 343 690 l 536 690 l 536 647 l 343 647 l 343 435 l 536 435 l 536 394 z "},"•":{"ha":438,"x_min":153,"x_max":285,"o":"m 218 332 q 153 397 153 332 q 219 463 153 463 q 285 397 285 463 q 267 349 285 367 q 218 332 249 332 z "},"…":{"ha":703,"x_min":104,"x_max":599,"o":"m 152 -10 q 128 -10 152 -10 q 104 33 104 -10 q 152 76 104 76 q 200 33 200 76 q 152 -10 200 -10 m 356 -10 q 332 -10 356 -10 q 308 33 308 -10 q 356 76 308 76 q 404 33 404 76 q 356 -10 404 -10 m 551 -10 q 527 -10 551 -10 q 503 33 503 -10 q 551 76 503 76 q 599 33 599 76 q 551 -10 599 -10 z "},"‰":{"ha":1604,"x_min":76,"x_max":1535,"o":"m 758 -15 l 744 -15 q 590 53 656 -15 q 525 213 525 121 q 592 371 525 304 q 753 438 658 438 q 915 371 849 438 q 982 213 982 304 q 916 53 982 121 q 758 -15 850 -15 m 938 210 q 938 248 938 210 q 883 341 938 285 q 754 397 828 397 q 625 341 681 397 q 569 210 569 285 q 625 81 569 136 q 754 25 681 25 q 883 81 828 25 q 938 210 938 136 m 310 604 l 296 604 q 141 672 206 604 q 76 832 76 740 q 142 990 76 924 q 303 1057 208 1057 q 465 990 399 1057 q 531 832 531 924 q 465 672 531 740 q 310 604 400 604 m 433 960 q 406 989 433 960 q 304 1017 379 1017 q 174 960 229 1017 q 118 830 118 904 q 174 700 118 756 q 304 644 229 644 q 433 699 379 644 q 486 829 486 754 q 433 960 486 904 m 1311 -15 l 1297 -15 q 1143 53 1208 -15 q 1078 213 1078 121 q 1144 371 1078 304 q 1306 438 1211 438 q 1468 371 1401 438 q 1535 213 1535 304 q 1469 53 1535 121 q 1311 -15 1403 -15 m 1490 210 q 1490 248 1490 210 q 1435 341 1490 285 q 1307 397 1381 397 q 1178 341 1233 397 q 1122 210 1122 285 q 1178 81 1122 136 q 1307 25 1233 25 q 1435 81 1381 25 q 1490 210 1490 136 m 879 1039 l 933 1039 l 157 0 l 106 0 l 879 1039 z "},"‹":{"ha":435,"x_min":104,"x_max":407,"o":"m 104 333 l 407 601 l 407 542 l 151 315 l 407 88 l 407 25 l 104 297 l 104 333 z "},"›":{"ha":435,"x_min":28,"x_max":331,"o":"m 28 601 l 331 333 l 331 297 l 28 25 l 28 88 l 283 315 l 28 542 l 28 601 z "},"₣":{"ha":510,"x_min":33,"x_max":475,"o":"m 419 235 l 150 235 l 150 0 l 104 0 l 104 235 l 33 235 l 33 274 l 104 274 l 104 1042 l 475 1042 l 475 1001 l 150 1001 l 150 438 l 421 438 l 421 397 l 150 397 l 150 274 l 419 274 l 419 235 z "},"₤":{"ha":735,"x_min":28,"x_max":707,"o":"m 539 233 l 247 233 l 247 140 q 403 90 313 140 q 547 40 494 40 q 657 131 600 40 l 707 131 q 544 -3 625 -3 q 395 48 489 -3 q 247 99 301 99 l 201 99 q 78 0 133 93 l 28 0 q 201 140 97 129 l 201 233 l 74 233 l 74 274 l 201 274 l 201 394 l 74 394 l 74 433 l 201 433 l 201 761 q 271 970 201 888 q 453 1053 340 1053 l 465 1053 q 639 983 560 1053 l 639 935 q 557 995 606 972 q 458 1018 508 1018 q 302 946 358 1018 q 246 761 246 874 l 246 433 l 539 433 l 539 394 l 247 394 l 247 274 l 539 274 l 539 233 z "},"€":{"ha":974,"x_min":104,"x_max":925,"o":"m 643 1057 q 925 976 790 1057 l 908 935 q 635 1017 790 1017 q 342 901 479 1017 q 158 625 204 786 l 775 625 l 760 585 l 151 585 q 147 517 147 553 q 154 438 147 482 l 696 438 l 681 397 l 163 397 q 342 130 208 238 q 634 22 476 22 q 922 111 792 22 l 922 60 q 653 -18 796 -18 l 632 -18 q 260 143 417 -18 q 104 522 104 304 q 263 898 104 739 q 643 1057 421 1057 z "},"№":{"ha":1543,"x_min":104,"x_max":1488,"o":"m 1264 600 l 1250 600 q 1096 668 1161 600 q 1031 828 1031 736 q 1097 986 1031 919 q 1259 1053 1164 1053 q 1421 986 1354 1053 q 1488 828 1488 919 q 1422 668 1488 736 q 1264 600 1356 600 m 1443 826 q 1443 863 1443 826 q 1388 956 1443 900 q 1260 1013 1333 1013 q 1131 956 1186 1013 q 1075 826 1075 900 q 1131 696 1075 751 q 1260 640 1186 640 q 1388 696 1333 640 q 1443 826 1443 751 m 1488 396 l 1031 396 l 1031 439 l 1488 439 l 1488 396 m 871 1042 l 911 1042 l 911 -15 l 144 928 l 144 0 l 104 0 l 104 1057 l 871 115 l 871 1042 z "},"™":{"ha":929,"x_min":49,"x_max":881,"o":"m 476 647 l 476 1042 l 514 1042 l 679 722 l 847 1042 l 881 1042 l 881 647 l 838 647 l 838 940 l 675 635 l 515 942 l 515 647 l 476 647 m 379 1042 l 379 1006 l 235 1006 l 235 649 l 193 649 l 193 1006 l 49 1006 l 49 1042 l 379 1042 z "},"≈":{"ha":740,"x_min":104,"x_max":636,"o":"m 636 329 q 524 265 581 265 q 374 315 468 265 q 228 365 281 365 q 104 268 160 360 l 104 342 q 226 408 158 403 q 383 358 292 408 q 526 308 474 308 q 636 399 579 308 l 636 329 m 226 583 q 383 533 292 583 q 526 483 474 483 q 636 574 579 483 l 636 504 q 524 440 581 440 q 374 490 468 440 q 228 540 281 540 q 104 443 160 535 l 104 517 q 226 583 158 578 z "},"≠":{"ha":640,"x_min":104,"x_max":536,"o":"m 536 683 l 536 640 l 399 640 l 296 503 l 536 503 l 536 463 l 265 463 l 163 325 l 111 325 l 213 463 l 104 463 l 104 503 l 243 503 l 346 640 l 104 640 l 104 683 l 378 683 l 479 819 l 533 819 l 431 683 l 536 683 z "},"≤":{"ha":643,"x_min":104,"x_max":539,"o":"m 104 669 l 539 922 l 539 869 l 163 649 l 539 426 l 539 371 l 104 628 l 104 669 m 539 218 l 107 218 l 107 261 l 539 261 l 539 218 z "},"≥":{"ha":643,"x_min":104,"x_max":539,"o":"m 104 922 l 539 669 l 539 628 l 104 371 l 104 426 l 481 649 l 104 869 l 104 922 m 536 218 l 104 218 l 104 261 l 536 261 l 536 218 z "},"":{"ha":138,"x_min":21,"x_max":117,"o":"m 64 -271 l 64 -193 q 21 -150 21 -193 q 69 -107 21 -107 q 117 -150 117 -107 q 113 -172 117 -160 l 69 -271 l 64 -271 z "},"ﬀ":{"ha":672,"x_min":83,"x_max":644,"o":"m 643 878 l 643 839 q 506 783 563 839 q 450 643 450 728 l 450 278 l 644 278 l 644 239 l 450 239 l 450 0 l 406 0 l 406 239 l 128 239 l 128 0 l 83 0 l 83 643 q 153 812 83 746 q 321 878 222 878 l 321 839 q 184 783 240 839 q 128 643 128 728 l 128 278 l 406 278 l 406 643 q 475 812 406 746 q 643 878 544 878 z "},"ﬁ":{"ha":569,"x_min":83,"x_max":486,"o":"m 468 624 l 468 0 l 424 0 l 424 239 l 128 239 l 128 0 l 83 0 l 83 643 q 153 812 83 746 q 321 878 222 878 l 321 839 q 184 783 240 839 q 128 643 128 728 l 128 278 l 424 278 l 424 624 l 468 624 m 446 819 q 426 819 446 819 q 406 857 406 819 q 446 894 406 894 q 486 857 486 894 q 446 819 486 819 z "},"ﬂ":{"ha":671,"x_min":83,"x_max":643,"o":"m 643 26 l 643 -12 q 475 53 544 -12 q 406 222 406 119 l 406 239 l 128 239 l 128 0 l 83 0 l 83 643 q 153 812 83 746 q 321 878 222 878 l 321 839 q 184 783 240 839 q 128 643 128 728 l 128 278 l 406 278 l 406 879 l 450 879 l 450 222 q 506 82 450 138 q 643 26 563 26 z "},"ﬃ":{"ha":892,"x_min":83,"x_max":808,"o":"m 790 624 l 790 0 l 746 0 l 746 239 l 450 239 l 450 0 l 406 0 l 406 239 l 128 239 l 128 0 l 83 0 l 83 643 q 153 812 83 746 q 321 878 222 878 l 321 839 q 184 783 240 839 q 128 643 128 728 l 128 278 l 406 278 l 406 643 q 475 812 406 746 q 643 878 544 878 l 643 839 q 506 783 563 839 q 450 643 450 728 l 450 278 l 746 278 l 746 624 l 790 624 m 768 824 q 748 824 768 824 q 728 861 728 824 q 768 899 728 899 q 808 861 808 899 q 768 824 808 824 z "},"ﬄ":{"ha":1021,"x_min":83,"x_max":989,"o":"m 989 26 l 989 -12 q 821 53 890 -12 q 751 222 751 119 l 751 239 l 450 239 l 450 0 l 406 0 l 406 239 l 128 239 l 128 0 l 83 0 l 83 643 q 153 812 83 746 q 321 878 222 878 l 321 839 q 184 783 240 839 q 128 643 128 728 l 128 278 l 406 278 l 406 643 q 475 812 406 746 q 643 878 544 878 l 643 839 q 506 783 563 839 q 450 643 450 728 l 450 278 l 751 278 l 751 876 l 796 876 l 796 222 q 852 82 796 138 q 989 26 908 26 z "}}}
